<?xml version="1.0" encoding="utf-8"?>
<!-- Generator: Adobe Illustrator 27.5.0, SVG Export Plug-In . SVG Version: 6.00 Build 0)  -->
<svg version="1.1" xmlns="http://www.w3.org/2000/svg" xmlns:xlink="http://www.w3.org/1999/xlink" x="0px" y="0px"
	 viewBox="0 0 3710 3710" style="enable-background:new 0 0 3710 3710;" xml:space="preserve">
<g id="Background">
	<g>
		<g>
			<rect style="fill:#FFFFFF;" width="3710" height="3710"/>
		</g>
	</g>
</g>
<g id="Illustration">
	<g>
		<linearGradient id="SVGID_1_" gradientUnits="userSpaceOnUse" x1="3605.1206" y1="4081.4114" x2="1113.6461" y2="987.1564">
			<stop  offset="0" style="stop-color:#B37CFF"/>
			<stop  offset="1" style="stop-color:#F895E7"/>
		</linearGradient>
		<path style="opacity:0.3;fill:url(#SVGID_1_);" d="M2919.7,2861.149c-57.228,60.247-111.377,99.1-154.159,129.797
			c-502.893,360.831-1097.948,255.651-1224.415,229.964c-186.751-37.93-547.736-111.248-808.721-418.162
			c-394.85-464.335-333.366-1195.882-27.094-1678.786c56.022-88.331,351.946-578.591,953.411-657.214
			c364-47.581,788.307,48.385,1095.578,305.817C3399.291,1312.939,3353.375,2404.59,2919.7,2861.149z"/>
		<g>
			
				<linearGradient id="SVGID_00000085945174354035134230000007866602325103104401_" gradientUnits="userSpaceOnUse" x1="1714.6364" y1="1709.3674" x2="2711.6675" y2="1709.3674">
				<stop  offset="0" style="stop-color:#A737D5"/>
				<stop  offset="1" style="stop-color:#EF497A"/>
			</linearGradient>
			<path style="fill:url(#SVGID_00000085945174354035134230000007866602325103104401_);" d="M2672.378,1136.074
				c-0.277-8.036-12.378-14.503-27.208-14.503h-899.54c-15.03,0-30.994,6.666-30.994,14.812v1137.895
				c0,6.081,6.355,11.911,14.298,16.205c7.944,4.294,19.658,6.697,30.877,6.681l909.392-1.346
				c11.316-0.016,22.381-2.495,30.297-6.878c7.916-4.384,12.372-10.322,12.159-16.454L2672.378,1136.074z"/>
			<g>
				<polygon style="fill:#FFFFFF;" points="2155.784,1202.21 1861.524,1201.658 1861.634,1181.703 2155.565,1182.206 				"/>
				<polygon style="fill:#FFFFFF;" points="2156.592,1275.715 1861.121,1274.984 1861.232,1254.864 2156.37,1255.546 				"/>
				<polygon style="fill:#FFFFFF;" points="2157.405,1349.826 1860.714,1348.914 1860.826,1328.628 2157.181,1329.491 				"/>
				<polygon style="fill:#FFFFFF;" points="2158.225,1424.554 1860.305,1423.457 1860.417,1403.003 2158,1404.05 				"/>
				<polygon style="fill:#FFFFFF;" points="2159.052,1499.904 1859.891,1498.619 1860.005,1477.994 2158.826,1479.228 				"/>
				<polygon style="fill:#FFFFFF;" points="2160.726,1652.502 1859.054,1650.833 1859.169,1629.861 2160.496,1631.477 				"/>
				<polygon style="fill:#FFFFFF;" points="2163.292,1886.272 1857.772,1884 1857.89,1862.491 2163.056,1864.707 				"/>
				<polygon style="fill:#FFFFFF;" points="2159.886,1575.884 1859.474,1574.408 1859.589,1553.611 2159.657,1555.035 				"/>
				<polygon style="fill:#FFFFFF;" points="2161.574,1729.769 1858.631,1727.902 1858.747,1706.753 2161.342,1708.566 				"/>
				<polygon style="fill:#FFFFFF;" points="2162.429,1807.689 1858.203,1805.621 1858.32,1784.293 2162.195,1786.306 				"/>
				<polygon style="fill:#FFFFFF;" points="2164.162,1965.526 1857.337,1963.047 1857.456,1941.355 2163.923,1943.776 				"/>
				<polygon style="fill:#FFFFFF;" points="2165.039,2045.461 1856.899,2042.771 1857.02,2020.893 2164.799,2023.524 				"/>
				<polygon style="fill:#FFFFFF;" points="2165.925,2126.087 1856.457,2123.182 1856.578,2101.115 2165.681,2103.96 				"/>
				<polygon style="fill:#FFFFFF;" points="2166.817,2207.408 1856.011,2204.286 1856.133,2182.029 2166.572,2185.091 				"/>
				<polygon style="fill:#FFFFFF;" points="2541.582,1202.934 2245.475,1202.379 2245.155,1182.36 2540.928,1182.867 				"/>
				<polygon style="fill:#FFFFFF;" points="2543.984,1276.673 2246.652,1275.938 2246.33,1255.754 2543.325,1256.439 				"/>
				<polygon style="fill:#FFFFFF;" points="2546.406,1351.023 2247.838,1350.104 2247.514,1329.753 2545.741,1330.621 				"/>
				<polygon style="fill:#FFFFFF;" points="2548.848,1425.993 2249.035,1424.889 2248.706,1404.369 2548.177,1405.422 				"/>
				<polygon style="fill:#FFFFFF;" points="2551.31,1501.589 2250.242,1500.296 2249.911,1479.604 2550.635,1480.845 				"/>
				<polygon style="fill:#FFFFFF;" points="2556.297,1654.692 2252.684,1653.011 2252.348,1631.97 2555.61,1633.597 				"/>
				<polygon style="fill:#FFFFFF;" points="2563.938,1889.25 2256.427,1886.964 2256.082,1865.382 2563.232,1867.612 				"/>
				<polygon style="fill:#FFFFFF;" points="2553.793,1577.819 2251.458,1576.334 2251.124,1555.469 2553.112,1556.901 				"/>
				<polygon style="fill:#FFFFFF;" points="2558.822,1732.217 2253.92,1730.338 2253.582,1709.119 2558.13,1710.944 				"/>
				<polygon style="fill:#FFFFFF;" points="2561.369,1810.4 2255.168,1808.319 2254.826,1786.92 2560.67,1788.945 				"/>
				<polygon style="fill:#FFFFFF;" points="2566.528,1968.777 2257.695,1966.282 2257.347,1944.515 2565.817,1946.953 				"/>
				<polygon style="fill:#FFFFFF;" points="2569.141,2048.989 2258.975,2046.281 2258.624,2024.326 2568.423,2026.976 				"/>
				<polygon style="fill:#FFFFFF;" points="2571.776,2129.895 2260.266,2126.971 2259.912,2104.828 2571.052,2107.692 				"/>
				<polygon style="fill:#FFFFFF;" points="2574.434,2211.502 2261.568,2208.36 2261.21,2186.024 2573.704,2189.106 				"/>
			</g>
		</g>
		<g>
			
				<linearGradient id="SVGID_00000074437438515871249660000005158326849103828104_" gradientUnits="userSpaceOnUse" x1="1209.1563" y1="1452.464" x2="1987.7463" y2="1452.464">
				<stop  offset="0" style="stop-color:#A737D5"/>
				<stop  offset="1" style="stop-color:#EF497A"/>
			</linearGradient>
			<path style="fill:url(#SVGID_00000074437438515871249660000005158326849103828104_);" d="M1957.294,632.53
				c-0.338-18.087-14.995-32.971-32.962-32.971h-679.088c-18.207,0-36.088,15.66-36.088,33.994v1638.62
				c0,8.82,5.047,17.277,11.248,23.506c6.203,6.227,15.391,9.713,24.15,9.69l710.023-1.952c8.835-0.024,17.485-3.619,23.665-9.977
				c6.18-6.359,9.664-15.147,9.498-24.042L1957.294,632.53z"/>
			<g style="opacity:0.5;">
				<g>
					<polygon style="fill:#FFFFFF;" points="1457.181,792.651 1263.724,792.389 1262.189,692.543 1455.835,692.543 					"/>
					<polygon style="fill:#FFFFFF;" points="1674.025,792.601 1480.762,792.339 1479.438,692.543 1672.889,692.543 					"/>
					<polygon style="fill:#FFFFFF;" points="1890.65,792.551 1697.582,792.289 1696.469,692.543 1889.724,692.543 					"/>
				</g>
				<g>
					<polygon style="fill:#FFFFFF;" points="1459.599,971.871 1266.479,971.995 1264.949,872.801 1458.257,872.721 					"/>
					<polygon style="fill:#FFFFFF;" points="1676.065,971.731 1483.138,971.856 1481.819,872.711 1674.933,872.631 					"/>
					<g>
						<polygon style="fill:#FFFFFF;" points="1892.314,971.592 1699.581,971.716 1698.471,872.621 1891.391,872.541 						"/>
					</g>
				</g>
				<g>
					<polygon style="fill:#FFFFFF;" points="1462.008,1149.86 1269.224,1150.063 1267.7,1051.213 1460.671,1051.053 					"/>
					<polygon style="fill:#FFFFFF;" points="1678.098,1149.631 1485.507,1149.834 1484.192,1051.034 1676.969,1050.874 					"/>
					<polygon style="fill:#FFFFFF;" points="1893.971,1149.402 1701.573,1149.606 1700.467,1050.854 1893.051,1050.695 					"/>
				</g>
				<g>
					<polygon style="fill:#FFFFFF;" points="1464.409,1327.231 1271.96,1327.515 1270.442,1229.006 1463.076,1228.767 					"/>
					<polygon style="fill:#FFFFFF;" points="1680.124,1326.915 1487.867,1327.197 1486.557,1228.738 1678.999,1228.5 					"/>
					<polygon style="fill:#FFFFFF;" points="1895.622,1326.599 1703.558,1326.88 1702.456,1228.471 1894.706,1228.232 					"/>
				</g>
				<g>
					<polygon style="fill:#FFFFFF;" points="1466.802,1503.991 1274.686,1504.352 1273.173,1406.185 1465.474,1405.866 					"/>
					<polygon style="fill:#FFFFFF;" points="1682.142,1503.586 1490.219,1503.947 1488.913,1405.828 1681.022,1405.511 					"/>
					<polygon style="fill:#FFFFFF;" points="1897.269,1503.182 1705.536,1503.542 1704.438,1405.472 1896.355,1405.156 					"/>
				</g>
				<g>
					<polygon style="fill:#FFFFFF;" points="1469.186,1680.141 1277.403,1680.579 1275.895,1582.751 1467.863,1582.355 					"/>
					<polygon style="fill:#FFFFFF;" points="1684.154,1679.649 1492.563,1680.087 1491.261,1582.307 1683.038,1581.911 					"/>
					<polygon style="fill:#FFFFFF;" points="1898.908,1679.158 1707.508,1679.595 1706.413,1581.863 1897.998,1581.469 					"/>
				</g>
				<g>
					<polygon style="fill:#FFFFFF;" points="1471.563,1855.684 1280.111,1856.199 1278.608,1758.707 1470.243,1758.235 					"/>
					<polygon style="fill:#FFFFFF;" points="1686.16,1855.105 1494.899,1855.621 1493.602,1758.177 1685.046,1757.704 					"/>
					<polygon style="fill:#FFFFFF;" points="1900.543,1854.528 1709.473,1855.042 1708.381,1757.647 1899.636,1757.175 					"/>
				</g>
				<g>
					<polygon style="fill:#FFFFFF;" points="1473.93,2030.623 1282.809,2031.215 1281.311,1934.058 1472.616,1933.508 					"/>
					<polygon style="fill:#FFFFFF;" points="1688.157,2029.959 1497.226,2030.55 1495.934,1933.441 1687.049,1932.892 					"/>
					<polygon style="fill:#FFFFFF;" points="1902.172,2029.296 1711.43,2029.887 1710.344,1932.825 1901.268,1932.276 					"/>
				</g>
				<g>
					<polygon style="fill:#FFFFFF;" points="1476.291,2204.962 1285.498,2205.631 1284.006,2108.807 1474.98,2108.181 					"/>
					<polygon style="fill:#FFFFFF;" points="1690.149,2204.212 1499.546,2204.88 1498.258,2108.104 1689.043,2107.479 					"/>
					<polygon style="fill:#FFFFFF;" points="1903.796,2203.464 1713.382,2204.131 1712.298,2107.403 1902.894,2106.777 					"/>
				</g>
			</g>
		</g>
		<g>
			
				<linearGradient id="SVGID_00000152953537700704569380000003406899007297305530_" gradientUnits="userSpaceOnUse" x1="535.4223" y1="1726.3186" x2="1383.3702" y2="1726.3186">
				<stop  offset="0" style="stop-color:#B37CFF"/>
				<stop  offset="1" style="stop-color:#F895E7"/>
			</linearGradient>
			<path style="fill:url(#SVGID_00000152953537700704569380000003406899007297305530_);" d="M1350.205,1156.953
				c-0.368-12.559-16.331-22.895-35.898-22.895H574.726c-19.829,0-39.304,10.874-39.304,23.605v1137.865
				c0,6.124,5.497,11.997,12.25,16.322c6.755,4.324,16.762,6.745,26.301,6.729l773.273-1.355c9.622-0.017,19.042-2.512,25.774-6.927
				c6.73-4.416,10.525-10.518,10.344-16.694L1350.205,1156.953z"/>
			<g style="opacity:0.5;">
				<g>
					<polygon style="fill:#FFFFFF;" points="805.542,1268.141 594.851,1267.96 593.18,1198.626 804.075,1198.626 					"/>
					<polygon style="fill:#FFFFFF;" points="1041.702,1268.107 831.223,1267.925 829.781,1198.626 1040.465,1198.626 					"/>
					<polygon style="fill:#FFFFFF;" points="1277.625,1268.072 1067.357,1267.89 1066.145,1198.626 1276.616,1198.626 					"/>
				</g>
				<g>
					<polygon style="fill:#FFFFFF;" points="808.175,1392.592 597.851,1392.679 596.186,1323.798 806.713,1323.742 					"/>
					<polygon style="fill:#FFFFFF;" points="1043.924,1392.496 833.811,1392.582 832.374,1323.736 1042.69,1323.68 					"/>
					<polygon style="fill:#FFFFFF;" points="1279.436,1392.399 1069.535,1392.485 1068.326,1323.673 1278.431,1323.618 					"/>
				</g>
				<g>
					<polygon style="fill:#FFFFFF;" points="810.799,1516.188 600.841,1516.33 599.182,1447.688 809.343,1447.577 					"/>
					<polygon style="fill:#FFFFFF;" points="1046.138,1516.03 836.39,1516.171 834.959,1447.564 1044.909,1447.453 					"/>
					<polygon style="fill:#FFFFFF;" points="1281.241,1515.871 1071.704,1516.013 1070.499,1447.439 1280.239,1447.328 					"/>
				</g>
				<g>
					<polygon style="fill:#FFFFFF;" points="813.413,1639.357 603.821,1639.553 602.167,1571.149 811.962,1570.982 					"/>
					<polygon style="fill:#FFFFFF;" points="1048.344,1639.136 838.96,1639.333 837.534,1570.962 1047.119,1570.797 					"/>
					<polygon style="fill:#FFFFFF;" points="1283.04,1638.917 1073.866,1639.113 1072.666,1570.776 1282.042,1570.611 					"/>
				</g>
				<g>
					<polygon style="fill:#FFFFFF;" points="816.019,1762.099 606.79,1762.35 605.142,1694.182 814.572,1693.961 					"/>
					<polygon style="fill:#FFFFFF;" points="1050.543,1761.818 841.523,1762.069 840.1,1693.934 1049.322,1693.714 					"/>
					<polygon style="fill:#FFFFFF;" points="1284.832,1761.537 1076.02,1761.788 1074.824,1693.687 1283.837,1693.467 					"/>
				</g>
				<g>
					<polygon style="fill:#FFFFFF;" points="818.616,1884.418 609.749,1884.723 608.106,1816.79 817.175,1816.515 					"/>
					<polygon style="fill:#FFFFFF;" points="1052.734,1884.077 844.076,1884.381 842.658,1816.482 1051.518,1816.207 					"/>
					<polygon style="fill:#FFFFFF;" points="1286.619,1883.735 1078.167,1884.039 1076.976,1816.174 1285.627,1815.9 					"/>
				</g>
				<g>
					<polygon style="fill:#FFFFFF;" points="821.205,2006.316 612.698,2006.674 611.061,1938.975 819.767,1938.647 					"/>
					<polygon style="fill:#FFFFFF;" points="1054.918,2005.914 846.619,2006.272 845.207,1938.606 1053.705,1938.279 					"/>
					<polygon style="fill:#FFFFFF;" points="1288.399,2005.513 1080.307,2005.871 1079.119,1938.239 1287.41,1937.911 					"/>
				</g>
				<g>
					<polygon style="fill:#FFFFFF;" points="823.783,2127.794 615.637,2128.206 614.005,2060.74 822.351,2060.358 					"/>
					<polygon style="fill:#FFFFFF;" points="1057.094,2127.333 849.154,2127.744 847.746,2060.311 1055.886,2059.93 					"/>
					<polygon style="fill:#FFFFFF;" points="1290.173,2126.873 1082.439,2127.283 1081.256,2059.883 1289.188,2059.502 					"/>
				</g>
				<g>
					<polygon style="fill:#FFFFFF;" points="826.353,2248.856 618.565,2249.321 616.939,2182.086 824.926,2181.651 					"/>
					<polygon style="fill:#FFFFFF;" points="1059.263,2248.335 851.68,2248.799 850.277,2181.598 1058.058,2181.164 					"/>
					<polygon style="fill:#FFFFFF;" points="1291.941,2247.816 1084.564,2248.279 1083.385,2181.111 1290.959,2180.676 					"/>
				</g>
			</g>
		</g>
		<g>
			
				<linearGradient id="SVGID_00000057121146457102083730000003047257580253022382_" gradientUnits="userSpaceOnUse" x1="1928.0637" y1="3198.5884" x2="2380.5239" y2="3198.5884" gradientTransform="matrix(-0.989 0.1478 0.1478 0.989 4428.2993 -1493.1334)">
				<stop  offset="0" style="stop-color:#CB236D"/>
				<stop  offset="0.9001" style="stop-color:#59246D"/>
				<stop  offset="1" style="stop-color:#4C246D"/>
			</linearGradient>
			<path style="fill:url(#SVGID_00000057121146457102083730000003047257580253022382_);" d="M2754.79,2538.967
				c73.263,3.594,152.52-87.538,169.126-176.641c17.089-91.695-43.59-119.971-61.243-241.03
				c-20.053-137.519,48.349-168.916,67.959-361.249c4.424-43.394,30.028-294.512-53.277-328.417
				c-77.024-31.349-257.805,118.661-269.633,277.855c-8.434,113.513,75.243,148.142,65.025,280.41
				c-8.966,116.057-76.353,127.785-86.088,239.918C2574.807,2366.326,2658.594,2534.248,2754.79,2538.967z"/>
			
				<linearGradient id="SVGID_00000080176319668449249360000012381608359298436234_" gradientUnits="userSpaceOnUse" x1="1005.2287" y1="2899.6128" x2="825.9642" y2="3769.291" gradientTransform="matrix(0.989 -0.1478 0.1478 0.989 1364.8414 -1035.6934)">
				<stop  offset="0" style="stop-color:#2B3582"/>
				<stop  offset="1" style="stop-color:#150E42"/>
			</linearGradient>
			<path style="fill:url(#SVGID_00000080176319668449249360000012381608359298436234_);" d="M2764.932,2571.494
				c-41.304-145.222-38.03-379.275-28.011-550.051c10.847-184.893,31.712-337.502,31.921-339.022l6.18,0.852
				c-0.209,1.518-21.045,153.924-31.877,338.581c-9.988,170.278-13.275,403.561,27.788,547.934L2764.932,2571.494z"/>
		</g>
		<g>
			
				<linearGradient id="SVGID_00000050629465604941322340000002145955830573557386_" gradientUnits="userSpaceOnUse" x1="1773.8688" y1="2195.8477" x2="910.5823" y2="3713.7109" gradientTransform="matrix(0.9875 -0.1577 0.1577 0.9875 1057.2449 -281.7509)">
				<stop  offset="0" style="stop-color:#A737D5"/>
				<stop  offset="1" style="stop-color:#EF497A"/>
			</linearGradient>
			<path style="fill:url(#SVGID_00000050629465604941322340000002145955830573557386_);" d="M2813.754,2513.495
				c-116.917-38.997-184.711-226.212-133.383-298.777c34.681-49.03,101.256-13.921,151.586-67.042
				c64.26-67.825-6.492-164.928,29.179-311.22c30.356-124.496,130.241-253.667,202.534-241.985
				c75.675,12.228,141.641,182.113,97.162,297.8c-28.926,75.233-89.5,88.377-92.528,154.535
				c-3.513,76.766,76.225,98.781,88.138,170.757C3177.842,2346.855,2968.427,2565.085,2813.754,2513.495z"/>
			
				<linearGradient id="SVGID_00000150096203848556966920000008896850283369139623_" gradientUnits="userSpaceOnUse" x1="1518.2207" y1="2423.771" x2="1380.257" y2="3093.0845" gradientTransform="matrix(0.9875 -0.1577 0.1577 0.9875 1057.2449 -281.7509)">
				<stop  offset="0" style="stop-color:#2B3582"/>
				<stop  offset="1" style="stop-color:#150E42"/>
			</linearGradient>
			<path style="fill:url(#SVGID_00000150096203848556966920000008896850283369139623_);" d="M2879.898,2553.648
				c-0.644,0.103-1.32,0.066-1.986-0.136c-2.354-0.711-3.686-3.195-2.974-5.549c95.991-317.712,83.309-666.472,83.17-669.958
				c-0.099-2.457,1.816-4.531,4.27-4.626c2.456-0.099,4.528,1.814,4.626,4.27c0.14,3.501,12.876,353.759-83.543,672.887
				C2882.951,2552.225,2881.53,2553.387,2879.898,2553.648z"/>
			<path style="fill:#F0F0F0;" d="M3084.324,1948.687c-0.451,0.072-0.93-0.001-1.361-0.237c-1.029-0.568-1.404-1.861-0.837-2.89
				c35.905-65.19,72.05-160.285,40.338-243.121c-18.885-49.333-53.346-71.132-53.691-71.346c-0.999-0.619-1.307-1.929-0.688-2.928
				c0.62-0.999,1.932-1.308,2.93-0.687c1.462,0.905,36.029,22.779,55.423,73.441c17.825,46.561,25.253,127.157-40.584,246.693
				C3085.524,1948.209,3084.948,1948.587,3084.324,1948.687z"/>
			<path style="fill:#F0F0F0;" d="M2799.91,2489.301c-0.67,0.107-1.38-0.108-1.881-0.636
				c-85.594-90.214-121.767-164.708-107.515-221.409c12.671-50.412,62.294-67.344,62.794-67.51c1.119-0.361,2.318,0.238,2.687,1.353
				c0.368,1.113-0.236,2.318-1.351,2.688c-0.478,0.159-47.948,16.421-60.018,64.561c-13.835,55.191,21.991,128.33,106.487,217.388
				c0.809,0.853,0.774,2.199-0.078,3.009C2800.713,2489.051,2800.319,2489.236,2799.91,2489.301z"/>
		</g>
		<g>
			<g>
				
					<linearGradient id="SVGID_00000131348553524837955870000003900414642934793642_" gradientUnits="userSpaceOnUse" x1="1827.7284" y1="1957.1959" x2="1861.3917" y2="3290.22">
					<stop  offset="0" style="stop-color:#53D8FF"/>
					<stop  offset="1" style="stop-color:#3840F7"/>
				</linearGradient>
				<path style="fill:url(#SVGID_00000131348553524837955870000003900414642934793642_);" d="M2012.714,1883.597
					c315.727,78.944,500.967,289.987,592.307,311.325c91.339,21.338,457.231,40.858,516.895,96.29
					c59.663,55.431,2.666,94.824,79.377,166.094c84.871,239.479-177.901,311.133-177.901,311.133l-2388.645-19.403
					c0,0-161.19,14.492-164.76-100.627c-3.571-115.12-6.087-166.836,2.38-270.507c8.466-103.671,50.332-115.325,73.419-169.085
					c23.087-53.76,247.328-59.599,290.969-119.392c43.641-59.793,95.597-155.156,280.754-187.667
					C1373.25,1856.849,1829.577,1837.805,2012.714,1883.597z"/>
				
					<linearGradient id="SVGID_00000116919053461369294420000003110628901790826906_" gradientUnits="userSpaceOnUse" x1="773.1293" y1="300.2186" x2="545.1229" y2="3458.1189">
					<stop  offset="0" style="stop-color:#53D8FF"/>
					<stop  offset="1" style="stop-color:#3840F7"/>
				</linearGradient>
				<path style="fill:url(#SVGID_00000116919053461369294420000003110628901790826906_);" d="M457.186,2641.589
					c4.107,132.321,228.452,108.874,229.43,108.788c0,0,178.36-136.533-67.005-131.295c-73.734-1.903-148.488-40.961-148.488-40.961
					L457.186,2641.589z"/>
				
					<linearGradient id="SVGID_00000172427720606221369250000006392117999538751422_" gradientUnits="userSpaceOnUse" x1="2972.3137" y1="1586.3898" x2="3017.7563" y2="2793.1201">
					<stop  offset="0" style="stop-color:#53D8FF"/>
					<stop  offset="1" style="stop-color:#3840F7"/>
				</linearGradient>
				<path style="fill:url(#SVGID_00000172427720606221369250000006392117999538751422_);" d="M3215.834,2516.45
					c0,0,2.345,33.748-60.884,68.221c-78.371,42.729-381.548-4.779-381.548-4.779v175.636l256.473,13.078
					C3023.882,2770.24,3366.673,2750.488,3215.834,2516.45z"/>
				
					<linearGradient id="SVGID_00000032607698776631663750000012049971789200749961_" gradientUnits="userSpaceOnUse" x1="-3060.9819" y1="897.4029" x2="-3566.7654" y2="2064.595" gradientTransform="matrix(0.9989 -0.0367 0.0367 0.9993 4561.3447 412.8723)">
					<stop  offset="0" style="stop-color:#2B3582"/>
					<stop  offset="1" style="stop-color:#150E42"/>
				</linearGradient>
				<path style="fill:url(#SVGID_00000032607698776631663750000012049971789200749961_);" d="M877.196,2262.728
					c0,0-7.696-60.087,55.424-133.754c63.12-73.666,99.965-122.254,148.505-134.766c48.539-12.51,403.811-61.665,427.144-23.855
					c23.333,37.809,53.391,269.95,53.391,269.95L877.196,2262.728z"/>
				
					<linearGradient id="SVGID_00000075877492073490066210000014691247370546988955_" gradientUnits="userSpaceOnUse" x1="-2008.8923" y1="-2579.5354" x2="-2567.4248" y2="-926.7342" gradientTransform="matrix(0.9993 -0.0367 0.0367 0.9993 4561.9023 412.9544)">
					<stop  offset="0" style="stop-color:#5AB6FF"/>
					<stop  offset="1" style="stop-color:#2F68E3"/>
				</linearGradient>
				<path style="opacity:0.25;fill:url(#SVGID_00000075877492073490066210000014691247370546988955_);" d="M1087.566,1987.856
					c39.8-5.928,341.988-41.063,420.014-31.038l20.19,77.673l-650.88,228.204c0,0-3.105-49.452,29.41-98.208
					C960.928,2082.572,1045.957,1993.092,1087.566,1987.856z"/>
				
					<linearGradient id="SVGID_00000081638658795097913230000009240532356013970619_" gradientUnits="userSpaceOnUse" x1="-2419.6208" y1="1174.6417" x2="-2925.5354" y2="2342.1367" gradientTransform="matrix(0.9993 -0.0367 0.0367 0.9993 4561.9023 412.9544)">
					<stop  offset="0" style="stop-color:#2B3582"/>
					<stop  offset="1" style="stop-color:#150E42"/>
				</linearGradient>
				<path style="fill:url(#SVGID_00000081638658795097913230000009240532356013970619_);" d="M1614.538,1970.302
					c9.84,44.861,46.096,263.574,46.096,263.574l768.208-3.552c0,0-242.159-222.531-428.313-257.752
					C1814.374,1937.351,1608.248,1946.588,1614.538,1970.302z"/>
				
					<linearGradient id="SVGID_00000045614666628474820870000011185223368675309747_" gradientUnits="userSpaceOnUse" x1="-1469.3555" y1="-2397.2085" x2="-2027.8855" y2="-744.4149" gradientTransform="matrix(0.9993 -0.0367 0.0367 0.9993 4561.9023 412.9544)">
					<stop  offset="0" style="stop-color:#5AB6FF"/>
					<stop  offset="1" style="stop-color:#2F68E3"/>
				</linearGradient>
				<path style="opacity:0.25;fill:url(#SVGID_00000045614666628474820870000011185223368675309747_);" d="M1974.262,1956.06
					c-151.636-21.047-207.231-17.052-366.178-3.134l15.307,63.576c0,0,236.566-46.396,456.991-19.57
					C2080.381,1996.932,2023.763,1962.93,1974.262,1956.06z"/>
				
					<linearGradient id="SVGID_00000143589356517024204150000007746851445015552659_" gradientUnits="userSpaceOnUse" x1="3078.115" y1="2381.0693" x2="2805.4641" y2="3915.9893">
					<stop  offset="0" style="stop-color:#53D8FF"/>
					<stop  offset="1" style="stop-color:#3840F7"/>
				</linearGradient>
				<path style="fill:url(#SVGID_00000143589356517024204150000007746851445015552659_);" d="M3104.21,2279.767
					c0,0-124.463-39.904-154.824,58.494c-28.943,93.8,251.907,119.044,251.907,119.044S3180.585,2318.154,3104.21,2279.767z"/>
				<path style="fill:#FFFFFF;" d="M834.681,2156.419c0.692,0,1.39-0.099,2.089-0.31c29.226-8.83,53.843-39.615,82.349-75.263
					c41.626-52.058,88.814-111.067,165.757-125.747c147.569-28.167,371.249-47.682,373.493-47.879
					c3.981-0.346,6.924-3.847,6.578-7.82c-0.339-3.981-3.705-6.959-7.82-6.578c-2.252,0.19-226.68,19.776-374.962,48.077
					c-82.187,15.689-133.285,79.582-174.339,130.92c-26.996,33.764-50.314,62.919-75.235,70.457
					c-3.825,1.151-5.985,5.188-4.827,9.006C828.711,2154.408,831.576,2156.419,834.681,2156.419z"/>
				<path style="fill:#FFFFFF;" d="M605.941,2238.345c2.66,0,5.223-1.475,6.479-4.016c12.125-24.441,65.799-35.521,117.701-46.235
					c18.569-3.833,37.766-7.792,55.417-12.415c3.867-1.016,6.175-4.961,5.166-8.822c-1.016-3.868-4.961-6.134-8.822-5.167
					c-17.292,4.531-36.298,8.455-54.683,12.246c-57.845,11.941-112.479,23.22-127.723,53.97c-1.779,3.578-0.318,7.912,3.26,9.683
					C603.767,2238.105,604.862,2238.345,605.941,2238.345z"/>
				<g>
					<path style="fill:#FFFFFF;" d="M1661.424,2734.95c0.239,0,0.477,0,0.714,0c4.197,0,7.555-3.751,7.501-7.948
						c-0.041-3.043-1.864-5.768-4.464-6.948c-14.952-24.068-34.363-284.245-43.19-444.613c-0.23-4.193-3.815-7.456-8.006-7.2
						c-4.192,0.23-7.401,3.799-7.171,7.992c0.063,1.128,6.321,114.461,15.286,226.067
						C1640.342,2729.461,1651.587,2734.95,1661.424,2734.95z"/>
				</g>
				
					<linearGradient id="SVGID_00000073710453136007118840000017088523141734423944_" gradientUnits="userSpaceOnUse" x1="1117.2845" y1="1896.0164" x2="1119.8678" y2="3022.4141">
					<stop  offset="0" style="stop-color:#53D8FF"/>
					<stop  offset="1" style="stop-color:#3840F7"/>
				</linearGradient>
				<path style="fill:url(#SVGID_00000073710453136007118840000017088523141734423944_);" d="M1401.769,2748.415
					c1.725-10.099,2.694-24.638,2.694-37.8c0-157.573-127.738-284.82-285.31-284.82c-157.572,0-285.31,127.002-285.31,284.575
					c0,13.162,0.969,27.946,2.694,38.045H1401.769z"/>
				<g>
					
						<linearGradient id="SVGID_00000057118987020119224620000001664524853963557004_" gradientUnits="userSpaceOnUse" x1="884.4034" y1="2703.7378" x2="1349.4766" y2="2703.7378">
						<stop  offset="0" style="stop-color:#2B3582"/>
						<stop  offset="1" style="stop-color:#150E42"/>
					</linearGradient>
					
						<circle style="fill:url(#SVGID_00000057118987020119224620000001664524853963557004_);" cx="1116.94" cy="2703.738" r="232.537"/>
					
						<linearGradient id="SVGID_00000175290233081889185990000003237138694026263943_" gradientUnits="userSpaceOnUse" x1="1116.9402" y1="1139.0068" x2="1116.9402" y2="2775.155">
						<stop  offset="0" style="stop-color:#53D8FF"/>
						<stop  offset="1" style="stop-color:#3840F7"/>
					</linearGradient>
					
						<circle style="opacity:0.61;fill:url(#SVGID_00000175290233081889185990000003237138694026263943_);" cx="1116.94" cy="2703.738" r="188.845"/>
					<path style="fill:#FFFFFF;" d="M1275.561,2772.186c-0.437,0-0.881-0.085-1.31-0.266c-1.713-0.723-2.513-2.699-1.788-4.412
						c8.542-20.194,12.873-41.65,12.873-63.771c0-90.336-73.495-163.83-163.832-163.83c-28.026,0-55.681,7.196-79.976,20.809
						c-1.622,0.911-3.67,0.335-4.583-1.289c-0.909-1.624-0.33-3.675,1.292-4.583c25.297-14.178,54.091-21.67,83.266-21.67
						c94.05,0,170.564,76.516,170.564,170.563c0,23.028-4.51,45.365-13.406,66.394
						C1278.12,2771.416,1276.872,2772.186,1275.561,2772.186z"/>
				</g>
				
					<linearGradient id="SVGID_00000167361081215433502320000000188814285746869415_" gradientUnits="userSpaceOnUse" x1="2683.522" y1="1774.4231" x2="2515.2102" y2="2858.3479">
					<stop  offset="0" style="stop-color:#53D8FF"/>
					<stop  offset="1" style="stop-color:#3840F7"/>
				</linearGradient>
				<path style="fill:url(#SVGID_00000167361081215433502320000000188814285746869415_);" d="M2818.79,2761.88
					c1.725-10.099,2.694-23.988,2.694-37.149c0-157.573-127.738-284.495-285.31-284.495c-157.572,0-285.31,126.514-285.31,284.087
					c0,13.162,0.969,27.458,2.694,37.557H2818.79z"/>
				<g>
					
						<linearGradient id="SVGID_00000183208494749130387680000010067416567444763565_" gradientUnits="userSpaceOnUse" x1="2301.4243" y1="2718.5032" x2="2766.4978" y2="2718.5032">
						<stop  offset="0" style="stop-color:#2B3582"/>
						<stop  offset="1" style="stop-color:#150E42"/>
					</linearGradient>
					
						<circle style="fill:url(#SVGID_00000183208494749130387680000010067416567444763565_);" cx="2533.961" cy="2718.503" r="232.537"/>
					
						<linearGradient id="SVGID_00000103256322008658458430000008183130984121006976_" gradientUnits="userSpaceOnUse" x1="2490.3096" y1="1425.3239" x2="2544.1692" y2="3020.9124">
						<stop  offset="0" style="stop-color:#53D8FF"/>
						<stop  offset="1" style="stop-color:#3840F7"/>
					</linearGradient>
					
						<circle style="opacity:0.61;fill:url(#SVGID_00000103256322008658458430000008183130984121006976_);" cx="2533.961" cy="2718.503" r="188.845"/>
					<path style="fill:#FFFFFF;" d="M2692.582,2786.952c-0.437,0-0.881-0.085-1.31-0.266c-1.713-0.723-2.513-2.699-1.788-4.411
						c8.542-20.194,12.873-41.651,12.873-63.771c0-90.339-73.495-163.834-163.834-163.834c-28.026,0-55.681,7.196-79.974,20.812
						c-1.617,0.917-3.672,0.332-4.583-1.289c-0.909-1.624-0.33-3.675,1.292-4.583c25.296-14.178,54.088-21.673,83.265-21.673
						c94.051,0,170.566,76.516,170.566,170.566c0,23.028-4.51,45.365-13.406,66.394
						C2695.141,2786.183,2693.894,2786.952,2692.582,2786.952z"/>
				</g>
			</g>
			
				<linearGradient id="SVGID_00000085948806499079269090000004096579628720942232_" gradientUnits="userSpaceOnUse" x1="2137.2747" y1="2217.8354" x2="2243.3052" y2="1536.2097">
				<stop  offset="0" style="stop-color:#53D8FF"/>
				<stop  offset="1" style="stop-color:#3840F7"/>
			</linearGradient>
			<path style="fill:url(#SVGID_00000085948806499079269090000004096579628720942232_);" d="M2303.005,2214.123l-58.31-61.125
				c-24.298-25.471-54.879-42.858-88.089-50.083l-115.329-25.089c-31.649-6.885-61.941,17.05-65.405,51.68l-0.814,8.135
				c-3.527,35.273,22.298,65.951,55.181,65.548l148.577-1.822c20.72-0.254,39.55,12.961,47.733,33.499l2.737,6.869
				c3.633,9.116,11.947,15.025,21.145,15.025h36.535C2307.631,2256.76,2317.826,2229.658,2303.005,2214.123z"/>
			
				<linearGradient id="SVGID_00000159456232206500993140000016865641863321218458_" gradientUnits="userSpaceOnUse" x1="1831.2825" y1="2093.1882" x2="1937.3129" y2="1411.5631">
				<stop  offset="0" style="stop-color:#53D8FF"/>
				<stop  offset="1" style="stop-color:#3840F7"/>
			</linearGradient>
			<path style="fill:url(#SVGID_00000159456232206500993140000016865641863321218458_);" d="M1701.621,2283.903h192.68
				c15.029,0,25.624,16.113,20.413,31.321c-8.816,25.73-29.814,58.548-79.723,62.382c-44.886,3.448-101.462-23.972-144.136-50.024
				C1671.51,2315.772,1679.392,2283.903,1701.621,2283.903z"/>
			
				<linearGradient id="SVGID_00000163759478152900608880000007826987333421164417_" gradientUnits="userSpaceOnUse" x1="800.1627" y1="1728.5913" x2="281.7642" y2="2940.4299">
				<stop  offset="0" style="stop-color:#53D8FF"/>
				<stop  offset="1" style="stop-color:#3840F7"/>
			</linearGradient>
			<path style="fill:url(#SVGID_00000163759478152900608880000007826987333421164417_);" d="M471.605,2377.901l33.69,6.004
				c11.209,1.998,19.372,11.745,19.372,23.13v79.501c0,12.941-10.491,23.432-23.432,23.432h-33.564L471.605,2377.901z"/>
		</g>
		<g>
			<g>
				
					<linearGradient id="SVGID_00000176033183481583284470000014792223947795162535_" gradientUnits="userSpaceOnUse" x1="-389.9548" y1="859.8053" x2="-1223.5709" y2="1809.9943" gradientTransform="matrix(-1 0 0 1 2062.8765 0)">
					<stop  offset="0" style="stop-color:#2B3582"/>
					<stop  offset="1" style="stop-color:#150E42"/>
				</linearGradient>
				<path style="fill:url(#SVGID_00000176033183481583284470000014792223947795162535_);" d="M2347.946,1114.34
					c0,172.528,145.15,312.389,324.202,312.389s332.222-145.973,332.222-318.5c0-172.527-153.17-306.277-332.222-306.277
					S2347.946,941.813,2347.946,1114.34z"/>
				<g>
					<path style="fill:#FFFFFF;" d="M2978.915,1038.382c0.193,0,0.385-0.021,0.577-0.071c1.196-0.308,1.906-1.488,1.59-2.642
						c-3.489-12.622-7.945-25.145-13.247-37.215c-0.483-1.096-1.803-1.597-2.934-1.146c-1.139,0.468-1.67,1.731-1.189,2.831
						c5.22,11.881,9.608,24.209,13.041,36.642C2977.02,1037.746,2977.927,1038.382,2978.915,1038.382z"/>
					<path style="fill:#FFFFFF;" d="M2929.373,940.759c0.468,0,0.942-0.143,1.346-0.434c0.986-0.716,1.183-2.073,0.439-3.021
						c-60.067-76.752-156.821-122.569-258.818-122.569c-43.56,0-85.694,8.511-125.226,25.287c-1.13,0.481-1.644,1.757-1.146,2.844
						c0.496,1.091,1.819,1.584,2.952,1.108c38.959-16.541,80.484-24.925,123.419-24.925c100.6,0,196.016,45.178,255.242,120.85
						C2928.024,940.464,2928.693,940.759,2929.373,940.759z"/>
				</g>
				
					<linearGradient id="SVGID_00000152968512001653612730000011458225475685386378_" gradientUnits="userSpaceOnUse" x1="-599.3862" y1="1097.4904" x2="-948.7182" y2="1519.3252" gradientTransform="matrix(-1 0 0 1 2062.8765 0)">
					<stop  offset="0" style="stop-color:#FDF53F"/>
					<stop  offset="1" style="stop-color:#D93C65"/>
				</linearGradient>
				<path style="fill:url(#SVGID_00000152968512001653612730000011458225475685386378_);" d="M2392.054,1114.34
					c0,149.342,125.644,270.407,280.633,270.407s287.574-126.355,287.574-275.696c0-149.341-132.585-265.118-287.574-265.118
					S2392.054,964.998,2392.054,1114.34z"/>
				
					<linearGradient id="SVGID_00000070805784225238262810000005407998224053454009_" gradientUnits="userSpaceOnUse" x1="2779.9487" y1="476.9913" x2="2568.103" y2="1758.6594">
					<stop  offset="0" style="stop-color:#FDF53F"/>
					<stop  offset="1" style="stop-color:#D93C65"/>
				</linearGradient>
				<path style="fill:url(#SVGID_00000070805784225238262810000005407998224053454009_);" d="M2680.596,844.164l-12.411,258.296
					l-277.846,0.238c-0.17,3.865-0.305,7.738-0.305,11.643c0,149.343,125.644,270.408,280.633,270.408
					c154.988,0,287.573-126.355,287.573-275.696C2958.24,962.913,2831.269,848.989,2680.596,844.164z"/>
				<path style="opacity:0.78;fill:#FFFFFF;" d="M2421.766,1126.493c0.693,11.478,10.913,20.242,22.824,19.574
					c11.913-0.668,21.008-10.515,20.314-21.993c-0.693-11.478-10.913-20.242-22.824-19.573
					C2430.167,1105.168,2421.072,1115.015,2421.766,1126.493z"/>
				<path style="opacity:0.78;fill:#FFFFFF;" d="M2714.848,1313.314c-11.738,2.066-19.516,12.91-17.372,24.22
					c2.144,11.311,13.398,18.805,25.136,16.739c11.738-2.066,19.516-12.91,17.372-24.22
					C2737.84,1318.742,2726.587,1311.249,2714.848,1313.314z"/>
				<path style="opacity:0.78;fill:#FFFFFF;" d="M2630.836,870.115c-11.739,2.066-19.517,12.91-17.372,24.22
					c2.144,11.311,13.397,18.805,25.136,16.739c11.738-2.065,19.516-12.91,17.373-24.22
					C2653.829,875.544,2642.574,868.05,2630.836,870.115z"/>
				<path style="opacity:0.78;fill:#FFFFFF;" d="M2561.245,1325.214c-2.196,5.338-1.648,10.335,1.225,11.163
					c2.872,0.827,6.981-2.829,9.176-8.166c2.196-5.338,1.647-10.337-1.225-11.164
					C2567.549,1316.219,2563.439,1319.876,2561.245,1325.214z"/>
				<path style="opacity:0.78;fill:#FFFFFF;" d="M2463.195,1245.301c-4.752,3.464-6.977,8.01-4.968,10.154
					c2.009,2.145,7.49,1.075,12.243-2.387c4.753-3.464,6.977-8.01,4.968-10.154
					C2473.429,1240.769,2467.948,1241.838,2463.195,1245.301z"/>
				<path style="opacity:0.78;fill:#FFFFFF;" d="M2450.881,1007.28c-5.38-2.468-10.592-2.275-11.641,0.431
					c-1.05,2.706,2.461,6.9,7.841,9.369c5.38,2.468,10.593,2.276,11.642-0.431C2459.771,1013.943,2456.26,1009.748,2450.881,1007.28
					z"/>
				<path style="opacity:0.78;fill:#FFFFFF;" d="M2873.596,1215.97c-5.38-2.468-10.592-2.276-11.642,0.431
					c-1.05,2.706,2.461,6.901,7.841,9.369c5.379,2.469,10.592,2.275,11.641-0.431
					C2882.486,1222.634,2878.975,1218.438,2873.596,1215.97z"/>
				<path style="opacity:0.78;fill:#FFFFFF;" d="M2540.195,918.368c-3.268-4.802-7.826-7.244-10.181-5.456
					c-2.355,1.788-1.615,7.13,1.652,11.931c3.268,4.801,7.827,7.244,10.181,5.456
					C2544.203,928.51,2543.462,923.168,2540.195,918.368z"/>
				<path style="opacity:0.78;fill:#FFFFFF;" d="M2789.01,1308.208c-3.268-4.801-7.827-7.243-10.181-5.456
					c-2.355,1.787-1.615,7.128,1.653,11.93c3.267,4.802,7.827,7.244,10.181,5.456
					C2793.018,1318.35,2792.277,1313.009,2789.01,1308.208z"/>
				
					<linearGradient id="SVGID_00000022525971957809601180000015319295908478176430_" gradientUnits="userSpaceOnUse" x1="-4583.2866" y1="4263.7876" x2="-4490.084" y2="3761.9263" gradientTransform="matrix(-0.9985 -0.0539 0.0539 -0.9985 -2338.3816 5245.7158)">
					<stop  offset="0" style="stop-color:#CB236D"/>
					<stop  offset="1" style="stop-color:#4C246D"/>
				</linearGradient>
				<path style="fill:url(#SVGID_00000022525971957809601180000015319295908478176430_);" d="M2675.942,1112.365l-192.502-4.946
					c-3.73-0.095-6.325,3.731-4.738,6.985l9.445,19.358c1.836,3.765-1.882,7.98-5.993,6.791l-158.104-45.678
					c-4.837-1.398-4.435-8.208,0.55-9.319l161.059-35.911c3.854-0.859,7.024,2.781,5.552,6.375l-9.891,24.155
					c-1.223,2.985,0.776,6.208,4.02,6.481l191.427,16.091c2.666,0.224,4.602,2.49,4.36,5.103l0,0
					C2680.887,1110.438,2678.595,1112.433,2675.942,1112.365z"/>
				<path style="fill:#FFFFFF;" d="M2342.055,1087.331c-1.472,0.661-2.448,2.051-2.521,3.687c-0.087,1.956,1.146,3.596,3.072,4.089
					l34.014,8.698c1.179,0.302,2.416-0.397,2.755-1.556c0.343-1.161-0.336-2.343-1.519-2.648l-34.014-8.698
					c36.677-7.652,122.222-26.363,123.914-26.934c1.15-0.369,1.822-1.627,1.45-2.763c-0.369-1.118-1.591-1.715-2.746-1.353
					c-2.505,0.691-68.047,15.065-123.497,27.182C2342.643,1087.104,2342.34,1087.203,2342.055,1087.331z"/>
				
					<linearGradient id="SVGID_00000021829480276373425960000014398026328699100829_" gradientUnits="userSpaceOnUse" x1="2682.1685" y1="906.7312" x2="2818.3821" y2="240.0018">
					<stop  offset="0" style="stop-color:#CB236D"/>
					<stop  offset="1" style="stop-color:#4C246D"/>
				</linearGradient>
				<path style="fill:url(#SVGID_00000021829480276373425960000014398026328699100829_);" d="M2663.322,1097.746l0.344-163.519
					c-0.057-3.62-4.104-5.871-7.385-4.108l-19.525,10.486c-3.798,2.04-8.291-1.273-7.241-5.339l40.381-156.342
					c1.235-4.782,8.261-4.864,9.613-0.11l43.707,153.581c1.045,3.675-2.568,6.997-6.329,5.818l-25.272-7.918
					c-3.124-0.979-6.355,1.18-6.5,4.342l-11.862,163.247c-0.118,2.599-2.369,4.631-5.069,4.576l0,0
					C2665.512,1102.405,2663.363,1100.322,2663.322,1097.746z"/>
				<path style="fill:#FFFFFF;" d="M2709.804,917.401c0.273,0,0.549-0.046,0.817-0.147c1.137-0.43,1.704-1.656,1.284-2.756
					c-0.813-2.367-18.352-64.887-33.148-117.787c-0.525-1.871-2.175-3.101-4.241-3.054c-2.016,0.05-3.656,1.36-4.082,3.26
					l-7.525,33.558c-0.26,1.163,0.507,2.313,1.717,2.562c1.196,0.257,2.396-0.485,2.661-1.652l7.525-33.558
					c9.414,35.012,32.256,116.599,32.91,118.205C2708.066,916.883,2708.91,917.401,2709.804,917.401z"/>
				
					<linearGradient id="SVGID_00000000909090055679934360000004066855063168272044_" gradientUnits="userSpaceOnUse" x1="2660.9709" y1="1185.9976" x2="2725.4868" y2="796.5128">
					<stop  offset="0" style="stop-color:#CB236D"/>
					<stop  offset="1" style="stop-color:#4C246D"/>
				</linearGradient>
				
					<ellipse style="fill:url(#SVGID_00000000909090055679934360000004066855063168272044_);" cx="2674.137" cy="1106.513" rx="23.075" ry="22.235"/>
				<path style="opacity:0.78;fill:#FFFFFF;" d="M2749.029,904.839c-2.196,5.338-1.647,10.335,1.225,11.163
					c2.873,0.828,6.981-2.828,9.177-8.165c2.196-5.338,1.647-10.336-1.225-11.164
					C2755.333,895.846,2751.225,899.502,2749.029,904.839z"/>
				<path style="opacity:0.78;fill:#FFFFFF;" d="M2850.206,979.982c-4.752,3.464-6.977,8.009-4.968,10.154
					c2.008,2.145,7.49,1.076,12.243-2.387c4.753-3.463,6.977-8.01,4.968-10.154C2860.439,975.45,2854.958,976.519,2850.206,979.982z
					"/>
			</g>
		</g>
		<g>
			<g>
				
					<linearGradient id="SVGID_00000014600484955835294860000010403088120039021985_" gradientUnits="userSpaceOnUse" x1="-536.88" y1="3184.3853" x2="-409.8159" y2="3184.3853" gradientTransform="matrix(1 0 0 1 1290.1023 0)">
					<stop  offset="0" style="stop-color:#2B3582"/>
					<stop  offset="1" style="stop-color:#150E42"/>
				</linearGradient>
				<path style="fill:url(#SVGID_00000014600484955835294860000010403088120039021985_);" d="M880.284,3229.628
					c0.015-0.946-0.049-1.905-0.291-2.87c-14.311-56.738-85.342-92.077-85.342-92.077l-28.147,2.206
					c-16.183,50.008-14.103,80.677-11.505,94.339c0.072,0.383,0.189,0.747,0.29,1.117
					C778.509,3234.418,826.298,3235.773,880.284,3229.628z"/>
				
					<linearGradient id="SVGID_00000129908345090357234370000006679211758085931398_" gradientUnits="userSpaceOnUse" x1="-218.7812" y1="3034.4854" x2="-681.0449" y2="3397.4561" gradientTransform="matrix(1 0 0 1 1290.1023 0)">
					<stop  offset="0" style="stop-color:#53D8FF"/>
					<stop  offset="1" style="stop-color:#3840F7"/>
				</linearGradient>
				<path style="fill:url(#SVGID_00000129908345090357234370000006679211758085931398_);" d="M755.29,3232.343
					c1.254,4.562,4.621,8.114,8.932,9.021c33.029,6.946,85.524,1.357,107.565-1.525c4.863-0.635,8.417-5.133,8.498-10.21
					C826.298,3235.773,778.509,3234.418,755.29,3232.343z"/>
				
					<linearGradient id="SVGID_00000017476508931375894110000005648243233788733617_" gradientUnits="userSpaceOnUse" x1="-501.5447" y1="3039.7283" x2="-525.8161" y2="3251.5525" gradientTransform="matrix(1 0 0 1 1290.1023 0)">
					<stop  offset="0" style="stop-color:#F9B776"/>
					<stop  offset="1" style="stop-color:#F47960"/>
				</linearGradient>
				<path style="fill:url(#SVGID_00000017476508931375894110000005648243233788733617_);" d="M755.187,3094.964l11.921,57.388
					c0.873,4.205,4.104,7.354,8.018,7.721c4.79,0.45,11.61,0.714,18.469-0.294c6.15-0.903,10.432-7.153,9.342-13.86l-8.286-50.955
					H755.187z"/>
				
					<linearGradient id="SVGID_00000023980742821535051760000009885234807071379119_" gradientUnits="userSpaceOnUse" x1="-136.6627" y1="3138.9175" x2="-598.9269" y2="3501.8884" gradientTransform="matrix(1 0 0 1 1290.1023 0)">
					<stop  offset="0" style="stop-color:#53D8FF"/>
					<stop  offset="1" style="stop-color:#3840F7"/>
				</linearGradient>
				<path style="fill:url(#SVGID_00000023980742821535051760000009885234807071379119_);" d="M1002.184,3231.617
					c-31.086-0.87-47.165-4.531-55.477-7.928c-0.019,3.09-0.002,6.236,0.099,9.495c0.107,3.481,2.685,6.262,5.857,6.241
					l170.682-1.102c5.447-0.035,8.63-6.352,6.269-11.347C1107.235,3228.825,1050.238,3232.962,1002.184,3231.617z"/>
				
					<linearGradient id="SVGID_00000006676775339702485350000017113070024057205659_" gradientUnits="userSpaceOnUse" x1="-343.3951" y1="3187.6147" x2="-160.4878" y2="3187.6147" gradientTransform="matrix(1 0 0 1 1290.1023 0)">
					<stop  offset="0" style="stop-color:#2B3582"/>
					<stop  offset="1" style="stop-color:#150E42"/>
				</linearGradient>
				<path style="fill:url(#SVGID_00000006676775339702485350000017113070024057205659_);" d="M1129.615,3226.976
					c-0.206-0.434-0.382-0.877-0.676-1.287c-15.074-21.062-53.465-63.002-129.327-81.193l-36.393-1.148
					c0,0-16.206,28.166-16.511,80.34c8.312,3.397,24.391,7.058,55.477,7.928C1050.238,3232.962,1107.235,3228.825,1129.615,3226.976
					z"/>
				
					<linearGradient id="SVGID_00000012435825616555495120000005818469377008448433_" gradientUnits="userSpaceOnUse" x1="-198.7108" y1="2989.8162" x2="-222.9826" y2="3201.6438" gradientTransform="matrix(0.998 -0.0629 0.0629 0.998 993.2088 65.7657)">
					<stop  offset="0" style="stop-color:#F9B776"/>
					<stop  offset="1" style="stop-color:#F47960"/>
				</linearGradient>
				<path style="fill:url(#SVGID_00000012435825616555495120000005818469377008448433_);" d="M954.849,3089.886
					c0.574,2.682,8.147,43.516,11.08,59.349c0.697,3.762,3.628,6.523,7.116,6.717c6.231,0.35,16.282,0.391,24.925-1.956
					c4.662-1.266,7.795-6.02,7.463-11.295l-4.072-64.59L954.849,3089.886z"/>
				
					<linearGradient id="SVGID_00000108288568638751660470000004381829544110518675_" gradientUnits="userSpaceOnUse" x1="1093.7677" y1="2215.5437" x2="938.9212" y2="2531.9685">
					<stop  offset="0" style="stop-color:#2B3582"/>
					<stop  offset="1" style="stop-color:#150E42"/>
				</linearGradient>
				<path style="fill:url(#SVGID_00000108288568638751660470000004381829544110518675_);" d="M927.272,2335.923
					c0,0,50.063,344.009,86.191,753.374c0.673,7.625-5.403,14.26-12.891,15.836c-11.037,2.325-27.26,5.084-40.691,4.708
					c-7.17-0.2-13.163-5.518-14.369-12.588c-12.307-72.177-100.133-459.546-123.183-544.802c0,0-26.477,362.146-18.014,550.031
					c0.211,4.671-3.21,8.725-7.855,9.261c-7.047,0.815-18.32,1.433-32.668-0.091c-5.446-0.578-9.839-4.695-10.618-10.117
					c-8.767-61.085-59.226-424.69-57.081-686.618c0.121-14.771,17.33-136.132,17.33-136.132L927.272,2335.923z"/>
			</g>
			<g>
				
					<linearGradient id="SVGID_00000063622183957678873730000011814687984921598866_" gradientUnits="userSpaceOnUse" x1="-24.6623" y1="1998.3027" x2="245.7521" y2="1998.3027" gradientTransform="matrix(1 0 0 1 1290.1023 0)">
					<stop  offset="0" style="stop-color:#F9B776"/>
					<stop  offset="1" style="stop-color:#F47960"/>
				</linearGradient>
				<path style="fill:url(#SVGID_00000063622183957678873730000011814687984921598866_);" d="M1356.4,2007.028
					c0,0-14.015-36.892-30.384-33.514c-16.37,3.379-34.278,15.954-34.278,15.954l-26.298,35.566c0,0,73.824,29.082,99.787,12.416
					c0,0,75.405,13.029,170.627-2.596c-13.784-29.102-22-58.237-26.824-80.853C1460.801,1981.3,1408.854,2001.692,1356.4,2007.028z"
					/>
				
					<linearGradient id="SVGID_00000011710772205423570960000004956772605712434570_" gradientUnits="userSpaceOnUse" x1="1570.3523" y1="2081.0735" x2="2162.8081" y2="825.4728">
					<stop  offset="0" style="stop-color:#FDF53F"/>
					<stop  offset="1" style="stop-color:#D93C65"/>
				</linearGradient>
				<path style="fill:url(#SVGID_00000011710772205423570960000004956772605712434570_);" d="M1755.829,1739.434
					c0,0-107.961,135.979-246.799,214.567c4.825,22.616,13.04,51.751,26.824,80.853c72.023-11.819,155.378-40.023,226.045-102.695
					L1755.829,1739.434z"/>
			</g>
			
				<linearGradient id="SVGID_00000093898482640793825540000004673461208191623347_" gradientUnits="userSpaceOnUse" x1="-215.9024" y1="1756.2039" x2="-357.5534" y2="1900.7456" gradientTransform="matrix(1 0 0 1 1290.1023 0)">
				<stop  offset="0" style="stop-color:#CE1567"/>
				<stop  offset="1" style="stop-color:#7A1DBC"/>
			</linearGradient>
			<path style="fill:url(#SVGID_00000093898482640793825540000004673461208191623347_);" d="M946.672,1757.415l6.702,180.013
				c19.038,6.552,37.163,11.647,54.422,15.453c10.796-34.757,34.567-77.416,54.033-109.134
				C990.311,1818.466,946.672,1757.415,946.672,1757.415z"/>
			
				<linearGradient id="SVGID_00000073712366324260555780000000826153752525756095_" gradientUnits="userSpaceOnUse" x1="143.1509" y1="1739.2272" x2="-281.0795" y2="1950.2583" gradientTransform="matrix(1 0 0 1 1290.1023 0)">
				<stop  offset="0" style="stop-color:#F9B776"/>
				<stop  offset="1" style="stop-color:#F47960"/>
			</linearGradient>
			<path style="fill:url(#SVGID_00000073712366324260555780000000826153752525756095_);" d="M1303.734,1754.352
				c-98.105,105.923-177.511,112.158-241.904,89.395c-19.466,31.719-43.237,74.377-54.033,109.134
				c261.988,57.759,323.681-183.09,323.681-183.09L1303.734,1754.352z"/>
			
				<linearGradient id="SVGID_00000034048016706621757390000005039331988929838997_" gradientUnits="userSpaceOnUse" x1="209.0634" y1="1529.0024" x2="-509.0489" y2="2476.1682" gradientTransform="matrix(0.991 -0.1339 0.1339 0.991 690.6002 157.8111)">
				<stop  offset="0" style="stop-color:#CE1567"/>
				<stop  offset="1" style="stop-color:#7A1DBC"/>
			</linearGradient>
			<path style="fill:url(#SVGID_00000034048016706621757390000005039331988929838997_);" d="M705.899,2355.751
				c-5.147-1.829-8.736-6.495-9.296-11.929c-6.657-64.589-38.891-465.065,164.611-629.805c0,0,11.67-30.534,107.597,44.523
				c95.926,75.056,44.568,153.729,21.602,262.241c-27.791,131.307-76.552,238.639-54.978,319.444
				c1.489,5.576-1.443,11.431-6.858,13.427C854.06,2381.115,779.832,2382.023,705.899,2355.751z"/>
			
				<linearGradient id="SVGID_00000165947652176249601340000017739513458220238736_" gradientUnits="userSpaceOnUse" x1="-404.7171" y1="1805.1233" x2="-348.3463" y2="1651.1877" gradientTransform="matrix(1 0 0 1 1290.1023 0)">
				<stop  offset="0" style="stop-color:#F9B776"/>
				<stop  offset="1" style="stop-color:#F47960"/>
			</linearGradient>
			<path style="fill:url(#SVGID_00000165947652176249601340000017739513458220238736_);" d="M940.595,1594.026
				c-0.064,5.698-81.324,121.119-81.324,121.119s14.586,28.726,84.217,52.049l60.107-123.581L940.595,1594.026z"/>
			
				<linearGradient id="SVGID_00000074438033908145925360000008505155335201536133_" gradientUnits="userSpaceOnUse" x1="-125.3733" y1="1984.1372" x2="-544.4674" y2="2712.3494" gradientTransform="matrix(1 0 0 1 1290.1023 0)">
				<stop  offset="0" style="stop-color:#F9B776"/>
				<stop  offset="1" style="stop-color:#F47960"/>
			</linearGradient>
			<path style="fill:url(#SVGID_00000074438033908145925360000008505155335201536133_);" d="M908.638,1990.305
				c0,0,154.172,129.12,320.653,72.779c10.325-3.495,21.616-2.735,31.255,2.354l47.862,25.279
				c20.089,10.609,44.967,3.645,56.624-15.855c6.648-11.123,12.323-23.827,13.452-35.998l-93.652-37.913l6.905-11.484
				c0,0-45.725-3.874-57.693,28.897c0,0-87.093,36.226-233.969-125.327C1000.076,1893.038,933.425,1949.71,908.638,1990.305z"/>
			
				<linearGradient id="SVGID_00000031898392369694406110000002717118102872346272_" gradientUnits="userSpaceOnUse" x1="-3991.0637" y1="11084.7188" x2="-3708.5125" y2="10642.1689" gradientTransform="matrix(-1 0 0 1 2705.8369 0)">
				<stop  offset="0" style="stop-color:#CE1567"/>
				<stop  offset="1" style="stop-color:#7A1DBC"/>
			</linearGradient>
			<path style="fill:url(#SVGID_00000031898392369694406110000002717118102872346272_);" d="M900.34,1988.969
				c-0.508,0-1.023-0.145-1.474-0.453c-64.916-43.86-95.454-114.652-95.755-115.364c-0.567-1.346,0.059-2.892,1.399-3.459
				c1.345-0.572,2.889,0.052,3.461,1.397c0.294,0.696,30.265,70.091,93.849,113.054c1.209,0.815,1.526,2.453,0.708,3.665
				C902.02,1988.562,901.187,1988.969,900.34,1988.969z"/>
			
				<linearGradient id="SVGID_00000006697337610224591470000001482380855274359703_" gradientUnits="userSpaceOnUse" x1="-4085.3499" y1="11024.5273" x2="-3802.7981" y2="10581.9766" gradientTransform="matrix(-1 0 0 1 2705.8369 0)">
				<stop  offset="0" style="stop-color:#CE1567"/>
				<stop  offset="1" style="stop-color:#7A1DBC"/>
			</linearGradient>
			<path style="fill:url(#SVGID_00000006697337610224591470000001482380855274359703_);" d="M997.033,1890.848
				c-0.866,0-1.716-0.428-2.221-1.212c-0.196-0.303-20.028-31.174-57.801-98.812c-11.616-20.798-26.881-33.969-45.372-39.144
				c-30.623-8.556-60.135,7.862-60.426,8.026c-1.27,0.701-2.876,0.279-3.598-0.989c-0.719-1.268-0.279-2.877,0.989-3.598
				c1.273-0.721,31.628-17.706,64.408-8.531c19.917,5.557,36.273,19.573,48.607,41.659c37.678,67.468,57.434,98.23,57.63,98.534
				c0.789,1.222,0.436,2.855-0.789,3.645C998.017,1890.714,997.523,1890.848,997.033,1890.848z"/>
			<g>
				
					<linearGradient id="SVGID_00000008131230170764362780000000476571254390013085_" gradientUnits="userSpaceOnUse" x1="-266.1631" y1="1574.2152" x2="-602.0322" y2="1841.7213" gradientTransform="matrix(1 0 0 1 1290.1023 0)">
					<stop  offset="0" style="stop-color:#F9B776"/>
					<stop  offset="1" style="stop-color:#F47960"/>
				</linearGradient>
				<path style="fill:url(#SVGID_00000008131230170764362780000000476571254390013085_);" d="M1004.574,1527.887
					c0,0,28.914,66.421,30.856,101.283c1.942,34.862,9.454,57.482-30.856,64.503c-40.309,7.02-74.267-13.061-92.663-47.787
					c0,0-28.824-53.509-22.358-75.423C896.019,1548.549,1004.574,1527.887,1004.574,1527.887z"/>
				
					<linearGradient id="SVGID_00000121959635971626552290000001443409149421402537_" gradientUnits="userSpaceOnUse" x1="-395.8253" y1="1486.2122" x2="-241.8818" y2="1684.4141" gradientTransform="matrix(1 0 0 1 1290.1023 0)">
					<stop  offset="0" style="stop-color:#2B3582"/>
					<stop  offset="1" style="stop-color:#150E42"/>
				</linearGradient>
				<path style="fill:url(#SVGID_00000121959635971626552290000001443409149421402537_);" d="M925.685,1620.918l2.295-1.011
					c2.921-1.288,4.172-4.765,2.704-7.6c-5.684-10.983-16.766-36.15-2.45-42.021c18.448-7.566,91.526-22.469,107.293-48.399
					c15.154-24.921,1.727-57.091-18.451-66.24c-1.351-0.612-2.943-0.126-3.635,1.185l-1.681,3.182
					c-1.152,2.178-4.369,1.848-5.053-0.519l0,0c-0.657-2.272-3.679-2.712-4.933-0.707c-4.847,7.758-17.931,20.335-52.922,26.792
					c-49.729,9.178-82.607,29.302-83.425,63.666c-0.052,2.183-2.374,3.396-4.24,2.26c-3.672-2.237-9.547-3.288-17.4,3.316
					c-13.657,11.483-8.069,41.272,21.87,65.776c1.423,1.164,1.411,3.385-0.129,4.387c-5.428,3.533-13.518,11.939,7.446,23.147
					c21.685,11.592,37.877,10.641,44.113,9.612c1.551-0.256,2.551-1.758,2.212-3.293l-6.654-30.202
					c-0.377-1.71,0.924-3.329,2.674-3.329H925.685z"/>
				
					<linearGradient id="SVGID_00000070077285388167610930000004600160863515808134_" gradientUnits="userSpaceOnUse" x1="-299.9701" y1="1559.5564" x2="-465.2617" y2="1686.0295" gradientTransform="matrix(1 0 0 1 1290.1023 0)">
					<stop  offset="0" style="stop-color:#F9B776"/>
					<stop  offset="1" style="stop-color:#F47960"/>
				</linearGradient>
				<path style="fill:url(#SVGID_00000070077285388167610930000004600160863515808134_);" d="M926.937,1627.292
					c0,0-11.03-42.429-30.053-30.533c-19.022,11.896,9.872,47.54,25.165,49.127L926.937,1627.292z"/>
			</g>
			
				<linearGradient id="SVGID_00000114794408697336851570000003715544321277997701_" gradientUnits="userSpaceOnUse" x1="-29.5555" y1="2066.6746" x2="37.0813" y2="2066.6746" gradientTransform="matrix(1 0 0 1 1290.1023 0)">
				<stop  offset="0" style="stop-color:#F9B776"/>
				<stop  offset="1" style="stop-color:#F47960"/>
			</linearGradient>
			<path style="fill:url(#SVGID_00000114794408697336851570000003715544321277997701_);" d="M1260.547,2065.439
				c0,0,39.178,38.322,46.738,32.743c2.69-1.985,9.482-9.194,16.063-17.222c4.644-5.666,5.127-13.669,1.143-19.817l-9.24-14.259
				c-8.805-13.586-27.658-16.436-39.87-5.807C1269.222,2046.438,1263.63,2054.201,1260.547,2065.439z"/>
			
				<linearGradient id="SVGID_00000131345700243494834180000000034995268738668428_" gradientUnits="userSpaceOnUse" x1="1924.6014" y1="1902.3517" x2="2436.2664" y2="3013.2024">
				<stop  offset="0" style="stop-color:#FDF53F"/>
				<stop  offset="1" style="stop-color:#D93C65"/>
			</linearGradient>
			<path style="fill:url(#SVGID_00000131345700243494834180000000034995268738668428_);" d="M1890.469,2342.126
				c-21.113-100.287-42.226-158.347-112.921-348.438c-22.248-59.819-42.45-120.344-32.686-183.417l10.967-70.837
				c0,0,137.387-46.49,289.678-1.958c0,0,207.774,90.26,66.648,536.033C2048.544,2344.677,1974.097,2364.96,1890.469,2342.126z"/>
			
				<linearGradient id="SVGID_00000010991143033126720750000004091186122860810401_" gradientUnits="userSpaceOnUse" x1="1843.3124" y1="1776.8763" x2="1900.5385" y2="1396.493">
				<stop  offset="0" style="stop-color:#F9B776"/>
				<stop  offset="1" style="stop-color:#F47960"/>
			</linearGradient>
			<path style="fill:url(#SVGID_00000010991143033126720750000004091186122860810401_);" d="M1779.215,1649.025l35.625,85.586
				c2.25,5.406,7.114,9.257,12.885,10.247c20.539,3.523,70.216,9.025,102.841-12.427c3.888-2.557,4.876-7.841,2.218-11.659
				l-65.817-94.491L1779.215,1649.025z"/>
			<g>
				
					<linearGradient id="SVGID_00000023978987785904013680000016649347896791425707_" gradientUnits="userSpaceOnUse" x1="5288.3638" y1="5941.9907" x2="5132.5034" y2="6148.1816" gradientTransform="matrix(-0.6854 -0.7281 -0.7281 0.6854 9787.373 1318.7853)">
					<stop  offset="0" style="stop-color:#F9B776"/>
					<stop  offset="1" style="stop-color:#F47960"/>
				</linearGradient>
				<path style="fill:url(#SVGID_00000023978987785904013680000016649347896791425707_);" d="M1816.058,1518.08
					c-1.496,1.408-63.144,122.47-63.144,122.47l69.872,33.73l75.476-106.059C1898.262,1568.221,1841.106,1494.503,1816.058,1518.08z
					"/>
				
					<linearGradient id="SVGID_00000129928178625419217710000000753803202484372661_" gradientUnits="userSpaceOnUse" x1="5169.3301" y1="5991.5078" x2="5355.5073" y2="5991.5078" gradientTransform="matrix(-0.6854 -0.7281 -0.7281 0.6854 9787.373 1318.7853)">
					<stop  offset="0" style="stop-color:#2B3582"/>
					<stop  offset="1" style="stop-color:#150E42"/>
				</linearGradient>
				<path style="fill:url(#SVGID_00000129928178625419217710000000753803202484372661_);" d="M1866.509,1580.946l-34.849,58.091
					c-0.529,0.882-1.158,1.678-1.911,2.379c-4.147,3.861-18.342,15.092-29.315-0.199c-9.352-13.032-18.126-24.881-27.529-29.767
					c-5.491-2.853-12.248-0.575-15.035,4.95c-5.741,11.38-16.863,34.577-23.849,56.574c-1.751,5.513,1.094,11.432,6.455,13.604
					c14.149,5.732,42.112,16.099,66.925,19.523c4.076,0.563,8.111-1.157,10.537-4.48c10.675-14.625,40.765-55.496,51.035-65.725
					c9.54-9.505,27.149-5.921,35.083-3.641c3.012,0.866,6.219,0.449,8.903-1.167c8.05-4.849,22.098-16.924,9.247-37.367
					c-3.195-5.083-1.566-11.853,3.45-15.152c8.988-5.913,18.741-17.01,9.449-34.982c-9.407-18.192-26.203-19.827-37.644-18.428
					c-5.062,0.619-10.2-2.036-12.143-6.752c-0.863-2.097-2.571-3.885-5.75-4.53c-5.996-1.216-9.932-6.7-8.755-12.704
					c2.017-10.295,0.498-23.669-15.94-32.706c-30.147-16.576-56.555,10.432-63.27,33.232c-6.716,22.8,26.992,38.912,48.196,41.601
					c15.574,1.976,24.114,18.974,27.55,27.859C1868.594,1574.382,1868.288,1577.981,1866.509,1580.946z"/>
				
					<linearGradient id="SVGID_00000053512357379742078560000014358613418253765821_" gradientUnits="userSpaceOnUse" x1="5060.0898" y1="6105.2778" x2="5185.1016" y2="5977.0186" gradientTransform="matrix(-0.6854 -0.7281 -0.7281 0.6854 9787.373 1318.7853)">
					<stop  offset="0" style="stop-color:#F9B776"/>
					<stop  offset="1" style="stop-color:#F47960"/>
				</linearGradient>
				<path style="fill:url(#SVGID_00000053512357379742078560000014358613418253765821_);" d="M1855.883,1657.229
					c0,0,13.406-39.225,30.566-37.785c17.16,1.44,30.665,18.535,9.398,37.751
					C1869.395,1681.099,1855.883,1657.229,1855.883,1657.229z"/>
			</g>
			<g>
				
					<linearGradient id="SVGID_00000142159423431732685760000004789143263541117575_" gradientUnits="userSpaceOnUse" x1="2688.5925" y1="3235.335" x2="2882.2849" y2="3235.335" gradientTransform="matrix(-1 0 0 1 4753.7588 0)">
					<stop  offset="0" style="stop-color:#CE1567"/>
					<stop  offset="1" style="stop-color:#7A1DBC"/>
				</linearGradient>
				<path style="fill:url(#SVGID_00000142159423431732685760000004789143263541117575_);" d="M1876.943,3225.967
					c33.182,2.868,90.771,7.527,136.171,9.525c27.29,1.201,43.002-1.471,52.051-5.093c-0.015,1.02-0.044,1.983-0.083,2.879
					c-0.215,4.777-4.098,8.599-8.923,8.869c-85.786,4.788-154.011,1.657-178.3,0.179c-5.022-0.306-8.015-5.764-5.447-10.046
					C1873.698,3230.139,1875.253,3228.04,1876.943,3225.967z"/>
				
					<linearGradient id="SVGID_00000054249930679489844270000002407972368151569039_" gradientUnits="userSpaceOnUse" x1="2179.3667" y1="7101.7744" x2="2226.4937" y2="6798.8145" gradientTransform="matrix(-1 0 0 1 4753.7588 0)">
					<stop  offset="0" style="stop-color:#53D8FF"/>
					<stop  offset="1" style="stop-color:#3840F7"/>
				</linearGradient>
				<path style="fill:url(#SVGID_00000054249930679489844270000002407972368151569039_);" d="M2013.115,3235.492
					c-45.4-1.998-102.99-6.657-136.171-9.525c32.623-40.024,136.171-67.001,136.171-67.001h29.245
					c20.114,28.994,23.027,56.599,22.806,71.434C2056.117,3234.02,2040.405,3236.693,2013.115,3235.492z"/>
				
					<linearGradient id="SVGID_00000158717414151815530220000004365818912278392216_" gradientUnits="userSpaceOnUse" x1="2706.4746" y1="3144.375" x2="2761.0344" y2="3144.375" gradientTransform="matrix(-1 0 0 1 4753.7588 0)">
					<stop  offset="0" style="stop-color:#F9B776"/>
					<stop  offset="1" style="stop-color:#F47960"/>
				</linearGradient>
				<path style="fill:url(#SVGID_00000158717414151815530220000004365818912278392216_);" d="M2047.284,3111.221l-2.737,54.156
					c-0.296,5.865-4.687,10.793-10.56,11.632c-5.843,0.836-13.669,0.943-21.968-1.82c-5.105-1.699-8.897-6.002-9.838-11.249
					l-9.457-52.72H2047.284z"/>
			</g>
			<g>
				<g>
					
						<linearGradient id="SVGID_00000110460256161461885040000018356867960768103060_" gradientUnits="userSpaceOnUse" x1="2302.4509" y1="3231.1577" x2="2376.6765" y2="3231.1577" gradientTransform="matrix(-1 0 0 1 4753.7588 0)">
						<stop  offset="0" style="stop-color:#CE1567"/>
						<stop  offset="1" style="stop-color:#7A1DBC"/>
					</linearGradient>
					<path style="fill:url(#SVGID_00000110460256161461885040000018356867960768103060_);" d="M2427.138,3235.085
						c14.389-2.006,20.9-9.481,23.629-17.474c0.018,0.073,0.037,0.145,0.055,0.216c2.116,8.43-2.791,17.166-12.603,21.321
						c-11.86,5.022-24.826,5.878-34.894,5.463c-10.799-0.445-20.713-4.915-26.161-12.067l-0.082-0.108
						C2387.923,3237.801,2403.14,3238.433,2427.138,3235.085z"/>
					
						<linearGradient id="SVGID_00000136370603638204593280000004033757398446066056_" gradientUnits="userSpaceOnUse" x1="1757.4915" y1="7036.1421" x2="1804.6184" y2="6733.1826" gradientTransform="matrix(-1 0 0 1 4753.7588 0)">
						<stop  offset="0" style="stop-color:#53D8FF"/>
						<stop  offset="1" style="stop-color:#3840F7"/>
					</linearGradient>
					<path style="fill:url(#SVGID_00000136370603638204593280000004033757398446066056_);" d="M2359.293,3110.873h24.118
						c36.737-0.75,59.806,76.734,67.356,106.739c-2.729,7.992-9.24,15.468-23.629,17.474c-23.998,3.348-39.215,2.716-50.056-2.648
						c-19.847-26.117-29.688-64.367-34.417-86.692C2337.286,3120.356,2359.293,3110.873,2359.293,3110.873z"/>
				</g>
				
					<linearGradient id="SVGID_00000042017828717478817360000007544243664122779798_" gradientUnits="userSpaceOnUse" x1="2359.6208" y1="3098.8926" x2="2424.8245" y2="3098.8926" gradientTransform="matrix(-1 0 0 1 4753.7588 0)">
					<stop  offset="0" style="stop-color:#F9B776"/>
					<stop  offset="1" style="stop-color:#F47960"/>
				</linearGradient>
				<path style="fill:url(#SVGID_00000042017828717478817360000007544243664122779798_);" d="M2380.311,3060.608l13.392,53.265
					c1.642,6.53-1.484,13.285-7.522,16.384c-7.492,3.845-18.04,7.885-27.733,6.715c-4.56-0.55-8.346-3.761-9.853-8.054
					l-19.661-56.04L2380.311,3060.608z"/>
			</g>
			
				<linearGradient id="SVGID_00000041275514556687226890000006767509123076005771_" gradientUnits="userSpaceOnUse" x1="49.6343" y1="3150.0994" x2="1044.584" y2="1774.5339" gradientTransform="matrix(-1 0 0 1 2420.7585 0)">
				<stop  offset="0" style="stop-color:#CE1567"/>
				<stop  offset="1" style="stop-color:#7A1DBC"/>
			</linearGradient>
			<path style="fill:url(#SVGID_00000041275514556687226890000006767509123076005771_);" d="M2396.286,3076.003
				c-16.662,14.78-70.858,16.731-70.858,16.731c-195.222-468.552-276.612-597.54-276.612-597.54
				c28.188,176.853,6.076,630.807,6.076,630.807c-32.215,14.215-73.749,0-73.749,0c-2.616-289.531-43.38-600.645-95.953-799.71
				c131.947-2.965,203.654-31.729,226.566-49.85C2221.743,2453.76,2396.286,3076.003,2396.286,3076.003z"/>
			
				<linearGradient id="SVGID_00000005260570117137146080000007127835298537331840_" gradientUnits="userSpaceOnUse" x1="1437.6161" y1="1685.2894" x2="1376.5389" y2="1771.4626" gradientTransform="matrix(1 0 0 1 -123.206 0)">
				<stop  offset="0" style="stop-color:#F9B776"/>
				<stop  offset="1" style="stop-color:#F47960"/>
			</linearGradient>
			<path style="fill:url(#SVGID_00000005260570117137146080000007127835298537331840_);" d="M1295.426,1733.697
				c0,0-8.578-15.517-7.657-28c0.922-12.484-6.857-30.817,1.421-29.46c8.279,1.357,9.987,0.25,12.234,15.229
				C1303.672,1706.445,1323.881,1761.697,1295.426,1733.697z"/>
			<g>
				
					<linearGradient id="SVGID_00000018919249055237711760000015798540023159432351_" gradientUnits="userSpaceOnUse" x1="1507.6122" y1="1637.4586" x2="1293.6882" y2="1939.2825" gradientTransform="matrix(1 0 0 1 -123.206 0)">
					<stop  offset="0" style="stop-color:#2B3582"/>
					<stop  offset="1" style="stop-color:#150E42"/>
				</linearGradient>
				<path style="fill:url(#SVGID_00000018919249055237711760000015798540023159432351_);" d="M1357.979,1641.031
					c-0.094-2.344-1.225-4.524-3.087-5.95c-1.862-1.425-4.261-1.95-6.548-1.429l-57.097,12.987
					c-2.217,0.504-3.701,2.594-3.448,4.853l16.601,148.404c0.072,0.64,0.396,1.225,0.901,1.624c0.505,0.399,1.148,0.581,1.787,0.503
					l49.839-6.039c4.083-0.494,7.101-4.041,6.936-8.15L1357.979,1641.031z"/>
				
					<linearGradient id="SVGID_00000036225575428857605470000016971528792033829524_" gradientUnits="userSpaceOnUse" x1="1492.8862" y1="1652.2703" x2="1320.5527" y2="1895.4146" gradientTransform="matrix(1 0 0 1 -123.206 0)">
					<stop  offset="0" style="stop-color:#FDF53F"/>
					<stop  offset="1" style="stop-color:#D93C65"/>
				</linearGradient>
				<path style="fill:url(#SVGID_00000036225575428857605470000016971528792033829524_);" d="M1341.921,1649.593
					c-0.073-1.331-0.738-2.558-1.81-3.348c-1.072-0.79-2.442-1.061-3.734-0.737l-37.566,9.392c-2.173,0.543-3.607,2.61-3.356,4.834
					l14.253,126.379c0.075,0.663,0.421,1.265,0.955,1.663c0.534,0.399,1.21,0.559,1.866,0.442l34.642-6.166
					c1.202-0.214,2.055-1.291,1.987-2.51L1341.921,1649.593z"/>
				
					<linearGradient id="SVGID_00000082362825388827132410000008536457378229252276_" gradientUnits="userSpaceOnUse" x1="1404.0786" y1="2264.8311" x2="1389.4353" y2="2285.4915" gradientTransform="matrix(0.9792 -0.2029 0.1066 0.5144 -300.6439 763.8746)">
					<stop  offset="0" style="stop-color:#8D55D1"/>
					<stop  offset="0.9964" style="stop-color:#1C2873"/>
				</linearGradient>
				<path style="fill:url(#SVGID_00000082362825388827132410000008536457378229252276_);" d="M1320.335,1646.191
					c0.093,0.447-0.523,0.953-1.375,1.13l-12.561,2.603c-0.851,0.176-1.617-0.043-1.71-0.49l-0.09-0.435
					c-0.093-0.447,0.523-0.953,1.375-1.13l12.562-2.603c0.851-0.177,1.617,0.043,1.71,0.49L1320.335,1646.191z"/>
			</g>
			
				<linearGradient id="SVGID_00000023240551806039496680000014200971749151313562_" gradientUnits="userSpaceOnUse" x1="1512.457" y1="1668.7816" x2="1386.0334" y2="1847.1519" gradientTransform="matrix(1 0 0 1 -123.206 0)">
				<stop  offset="0" style="stop-color:#F9B776"/>
				<stop  offset="1" style="stop-color:#F47960"/>
			</linearGradient>
			<path style="fill:url(#SVGID_00000023240551806039496680000014200971749151313562_);" d="M1377.809,1678.737
				c-9.225-3.4-27.277-34.639-30.734-24.361s1.46,24.361,0,28.731c-1.46,4.371-11.447,28.652-6.953,39.822
				c3.243,8.06,8.593,32.863,11.32,46.047c0.905,4.376,4.759,7.515,9.229,7.517c4.469,0.002,8.325-3.133,9.236-7.508
				C1370.271,1767.23,1387.034,1682.135,1377.809,1678.737z"/>
			
				<linearGradient id="SVGID_00000026859684797018842610000016062305558779318928_" gradientUnits="userSpaceOnUse" x1="-971.0983" y1="2354.0342" x2="-1255.4192" y2="2495.468" gradientTransform="matrix(0.4463 -0.8949 0.8949 0.4463 357.206 272.6585)">
				<stop  offset="0" style="stop-color:#2B3582"/>
				<stop  offset="1" style="stop-color:#150E42"/>
			</linearGradient>
			<path style="fill:url(#SVGID_00000026859684797018842610000016062305558779318928_);" d="M1981.889,2205.579
				c-4.434,0.932-7.98,3.675-9.692,7.495l-23.699,52.892c-3.14,7.009,0.638,15.668,8.529,19.552l120.165,59.12
				c4.133,2.033,8.822,2.441,12.903,1.122c4.082-1.32,7.173-4.243,8.508-8.043l13.962-39.757c2.167-6.172-0.696-13.376-6.942-17.462
				l-110.427-72.255C1991.192,2205.622,1986.323,2204.648,1981.889,2205.579z"/>
			
				<linearGradient id="SVGID_00000018924073843723182970000001697768707111757731_" gradientUnits="userSpaceOnUse" x1="2049.3069" y1="1844.912" x2="2560.9724" y2="2955.7642">
				<stop  offset="0" style="stop-color:#FDF53F"/>
				<stop  offset="1" style="stop-color:#D93C65"/>
			</linearGradient>
			<path style="fill:url(#SVGID_00000018924073843723182970000001697768707111757731_);" d="M2186.056,2097.654
				c25.692-194.073-123.868-343.302-123.868-343.302l-88.984,103.737c67.558,84.208,99.672,161.371,114.342,221.977
				C2107,2074.4,2153.842,2065.449,2186.056,2097.654z"/>
			
				<linearGradient id="SVGID_00000057112419887857786210000010091729212339575695_" gradientUnits="userSpaceOnUse" x1="2267.781" y1="1189.0298" x2="1874.6125" y2="2480.8701">
				<stop  offset="0" style="stop-color:#FDF53F"/>
				<stop  offset="1" style="stop-color:#D93C65"/>
			</linearGradient>
			<path style="fill:url(#SVGID_00000057112419887857786210000010091729212339575695_);" d="M2087.54,2085.576
				c-2.483,0-4.741-1.689-5.352-4.214c-18.082-74.71-56.198-148.671-113.281-219.824c-1.905-2.373-1.526-5.844,0.847-7.749
				c2.371-1.9,5.845-1.523,7.747,0.85c58.105,72.428,96.932,147.838,115.401,224.13c0.716,2.96-1.103,5.936-4.06,6.651
				C2088.407,2085.528,2087.971,2085.576,2087.54,2085.576z"/>
			
				<linearGradient id="SVGID_00000012455507871665727960000005726463110739906966_" gradientUnits="userSpaceOnUse" x1="2136.875" y1="2107.594" x2="1991.1085" y2="2387.9143">
				<stop  offset="0" style="stop-color:#F9B776"/>
				<stop  offset="1" style="stop-color:#F47960"/>
			</linearGradient>
			<path style="fill:url(#SVGID_00000012455507871665727960000005726463110739906966_);" d="M2088.843,2085.42
				c13.634,56.329,10.904,100.205,8.83,120.271c-0.782,7.565-6.862,13.471-14.449,14.003c-8.618,0.603-20.346,1.395-30.828,1.998
				c-11.521,0.664-24.309-6.617-32.86-12.704c-4.365-3.107-10.013,1.731-7.575,6.502c6.382,12.488,22.58,23.602,33.745,30.139
				c4.061,2.379,3.3,8.449-1.228,9.733l-30.638,8.684c-3.467,0.983-6.074,3.851-6.721,7.396c-0.647,3.545,0.781,7.144,3.675,9.291
				c70.519,52.284,116.185-20.624,116.185-20.624c34.631-53.51,52.535-113.038,59.077-162.456
				C2153.352,2058.213,2108.297,2079.755,2088.843,2085.42z"/>
		</g>
		<g>
			<g>
				<g>
					<path style="fill:#FFFFFF;" d="M1301.294,1508.976c10.904-9.126,52.278-78.509,118.478-0.018
						c7.163,3.735,25.684-6.733,23.326-14.067c-77.471-112.996-173.955-6.947-164.492,4.681
						C1288.069,1511.2,1288.612,1519.592,1301.294,1508.976z"/>
				</g>
				<g>
					<path style="fill:#FFFFFF;" d="M1489.829,1461.924c14.449-1.696,28.033-11.554,23.971-24.191
						c-4.002-12.451-141.894-173.539-295.481,8.052c-1.884,2.229-2.801,5.117-2.547,8.024c0.254,2.907,1.657,5.594,3.899,7.461
						c6.993,5.824,12.95,9.736,20.678,8.784C1380.89,1310.691,1475.379,1463.619,1489.829,1461.924z"/>
				</g>
				<g>
					<path style="fill:#FFFFFF;" d="M1561.611,1413.798c10.263,2.055,31.245-5.66,25.825-22.522
						c-242.72-264.087-458.876,12.709-450.946,23.873c7.928,11.164,24.006,11.583,30.477,7.815
						C1360.218,1175.076,1551.347,1411.742,1561.611,1413.798z"/>
				</g>
			</g>
			<path style="fill:#FFFFFF;" d="M1391.662,1549.318c0,17.758-14.395,32.153-32.153,32.153c-17.758,0-32.152-14.396-32.152-32.153
				c0-17.757,14.395-32.152,32.152-32.152C1377.267,1517.166,1391.662,1531.56,1391.662,1549.318z"/>
		</g>
		<g>
			<g>
				
					<linearGradient id="SVGID_00000139287305144928313050000003735196572634472868_" gradientUnits="userSpaceOnUse" x1="580.4493" y1="1089.8347" x2="755.4159" y2="886.7488">
					<stop  offset="0" style="stop-color:#FDF53F"/>
					<stop  offset="1" style="stop-color:#D93C65"/>
				</linearGradient>
				<circle style="fill:url(#SVGID_00000139287305144928313050000003735196572634472868_);" cx="758.95" cy="882.647" r="130.444"/>
				
					<linearGradient id="SVGID_00000080905586398705282190000010163719660932679101_" gradientUnits="userSpaceOnUse" x1="854.2833" y1="738.6252" x2="336.9025" y2="1520.2401">
					<stop  offset="0" style="stop-color:#FDF53F"/>
					<stop  offset="1" style="stop-color:#D93C65"/>
				</linearGradient>
				<circle style="fill:url(#SVGID_00000080905586398705282190000010163719660932679101_);" cx="758.95" cy="882.647" r="126.107"/>
				<path style="fill:#FFFFFF;" d="M654.96,835.16c-0.741,0-1.494-0.167-2.203-0.526c-2.415-1.218-3.384-4.164-2.164-6.58
					c20.769-41.151,62.288-66.715,108.356-66.715c7.359,0,14.718,0.662,21.879,1.966c2.662,0.485,4.427,3.035,3.941,5.696
					c-0.483,2.662-3.026,4.42-5.697,3.942c-6.582-1.201-13.353-1.808-20.123-1.808c-42.349,0-80.517,23.503-99.612,61.334
					C658.476,834.177,656.751,835.16,654.96,835.16z"/>
				
					<ellipse transform="matrix(0.7071 -0.7071 0.7071 0.7071 -402.9724 797.9276)" style="opacity:0.78;fill:#FFFFFF;" cx="761.698" cy="885.395" rx="106.734" ry="106.734"/>
				<g>
					
						<linearGradient id="SVGID_00000093161586370992281890000010343442115904263870_" gradientUnits="userSpaceOnUse" x1="838.8494" y1="761.0212" x2="563.3552" y2="1223.5302">
						<stop  offset="0" style="stop-color:#FDF53F"/>
						<stop  offset="1" style="stop-color:#D93C65"/>
					</linearGradient>
					<path style="fill:url(#SVGID_00000093161586370992281890000010343442115904263870_);" d="M751.224,964.742V953.13
						c-12.105-0.484-24.079-3.342-32.582-7.065c-3.037-1.329-4.585-4.737-3.713-7.935l2.95-10.817
						c1.082-3.968,5.397-6.02,9.191-4.43c8.436,3.537,18.851,6.334,30.083,6.334c11.66,0,20.355-3.952,20.355-12.056
						c0-7.311-6.719-11.658-22.924-16.005c-23.121-6.324-39.722-16.403-39.722-36.757c0-18.379,13.439-32.41,36.758-36.164v-11.613
						c0-3.736,3.029-6.766,6.765-6.766h6.823c3.736,0,6.766,3.029,6.766,6.766v10.427c11.201,0.448,19.355,2.364,25.826,4.637
						c3.315,1.165,5.127,4.737,4.207,8.128l-2.713,10.003c-1.046,3.858-5.169,5.97-8.907,4.557
						c-5.958-2.253-14.381-4.599-25.33-4.599c-13.834,0-17.785,5.731-17.785,10.869c0,6.323,8.299,10.671,26.283,16.205
						c25.69,7.707,36.362,18.378,36.362,37.547c0,17.589-13.043,33.398-38.338,37.35v12.996c0,3.737-3.029,6.766-6.766,6.766h-6.823
						C754.253,971.507,751.224,968.478,751.224,964.742z"/>
				</g>
			</g>
			<g>
				
					<linearGradient id="SVGID_00000176006623658110263490000004660575700848403126_" gradientUnits="userSpaceOnUse" x1="853.5536" y1="1082.9092" x2="1158.14" y2="729.3718">
					<stop  offset="0" style="stop-color:#FDF53F"/>
					<stop  offset="1" style="stop-color:#D93C65"/>
				</linearGradient>
				
					<circle style="fill:url(#SVGID_00000176006623658110263490000004660575700848403126_);" cx="1164.292" cy="722.231" r="227.081"/>
				
					<linearGradient id="SVGID_00000060025932675191323590000000986728301214606980_" gradientUnits="userSpaceOnUse" x1="1330.2513" y1="471.5144" x2="429.581" y2="1832.1707">
					<stop  offset="0" style="stop-color:#FDF53F"/>
					<stop  offset="1" style="stop-color:#D93C65"/>
				</linearGradient>
				
					<circle style="fill:url(#SVGID_00000060025932675191323590000000986728301214606980_);" cx="1164.292" cy="722.231" r="219.53"/>
				<path style="fill:#FFFFFF;" d="M983.266,635.937c-0.742,0-1.495-0.168-2.203-0.526c-2.416-1.218-3.384-4.164-2.164-6.58
					c35.54-70.41,106.579-114.149,185.394-114.149c12.57,0,25.167,1.133,37.436,3.367c2.662,0.485,4.427,3.035,3.941,5.697
					c-0.483,2.66-3.025,4.41-5.697,3.941c-11.693-2.131-23.696-3.21-35.681-3.21c-75.098,0-142.784,41.677-176.65,108.768
					C986.782,634.953,985.058,635.937,983.266,635.937z"/>
				
					<ellipse transform="matrix(0.7071 -0.7071 0.7071 0.7071 -171.6619 1039.5989)" style="opacity:0.78;fill:#FFFFFF;" cx="1169.076" cy="727.014" rx="185.805" ry="185.805"/>
				<g>
					
						<linearGradient id="SVGID_00000072240588254494221920000018282505683024211853_" gradientUnits="userSpaceOnUse" x1="1303.3833" y1="510.5014" x2="823.795" y2="1315.6509">
						<stop  offset="0" style="stop-color:#FDF53F"/>
						<stop  offset="1" style="stop-color:#D93C65"/>
					</linearGradient>
					<path style="fill:url(#SVGID_00000072240588254494221920000018282505683024211853_);" d="M1150.842,865.143v-20.214
						c-21.073-0.844-41.917-5.817-56.721-12.298c-5.286-2.314-7.981-8.246-6.462-13.814l5.135-18.829
						c1.884-6.907,9.396-10.48,15.999-7.712c14.685,6.156,32.818,11.027,52.37,11.027c20.297,0,35.434-6.882,35.434-20.986
						c0-12.728-11.696-20.296-39.906-27.864c-40.249-11.008-69.148-28.554-69.148-63.988c0-31.995,23.394-56.42,63.988-62.955
						v-20.216c0-6.505,5.274-11.779,11.778-11.779h11.877c6.505,0,11.778,5.273,11.778,11.779v18.151
						c19.499,0.78,33.694,4.115,44.958,8.073c5.771,2.027,8.925,8.245,7.324,14.149l-4.723,17.414
						c-1.821,6.715-8.998,10.393-15.506,7.932c-10.371-3.922-25.034-8.006-44.094-8.006c-24.082,0-30.96,9.976-30.96,18.921
						c0,11.008,14.448,18.576,45.753,28.21c44.724,13.416,63.3,31.993,63.3,65.363c0,30.618-22.705,58.139-66.739,65.021v22.622
						c0,6.506-5.273,11.779-11.778,11.779h-11.878C1156.116,876.922,1150.842,871.649,1150.842,865.143z"/>
				</g>
			</g>
			<g>
				
					<linearGradient id="SVGID_00000071529789126755280180000017220649280994786457_" gradientUnits="userSpaceOnUse" x1="771.3886" y1="1478.1444" x2="1019.9114" y2="1189.6808">
					<stop  offset="0" style="stop-color:#FDF53F"/>
					<stop  offset="1" style="stop-color:#D93C65"/>
				</linearGradient>
				
					<circle style="fill:url(#SVGID_00000071529789126755280180000017220649280994786457_);" cx="1024.932" cy="1183.854" r="185.283"/>
				
					<linearGradient id="SVGID_00000035517143822851159000000016223069075054772138_" gradientUnits="userSpaceOnUse" x1="1160.343" y1="979.2858" x2="425.4546" y2="2089.4927">
					<stop  offset="0" style="stop-color:#FDF53F"/>
					<stop  offset="1" style="stop-color:#D93C65"/>
				</linearGradient>
				
					<circle style="fill:url(#SVGID_00000035517143822851159000000016223069075054772138_);" cx="1024.932" cy="1183.854" r="179.122"/>
				<path style="fill:#FFFFFF;" d="M877.225,1113.33c-0.588,0-1.185-0.133-1.747-0.417c-1.916-0.965-2.684-3.302-1.716-5.218
					c28.98-57.41,86.903-93.074,151.169-93.074c10.256,0,20.525,0.924,30.527,2.744c2.111,0.385,3.509,2.407,3.126,4.518
					c-0.383,2.109-2.395,3.501-4.518,3.126c-9.543-1.737-19.345-2.619-29.135-2.619c-61.316,0-116.583,34.028-144.235,88.807
					C880.013,1112.551,878.646,1113.33,877.225,1113.33z"/>
				
					<ellipse transform="matrix(0.7071 -0.7071 0.7071 0.7071 -538.5325 1075.3816)" style="opacity:0.78;fill:#FFFFFF;" cx="1028.834" cy="1187.757" rx="151.605" ry="151.605"/>
				<g>
					
						<linearGradient id="SVGID_00000101793037108364006370000007843070449267424661_" gradientUnits="userSpaceOnUse" x1="1138.4205" y1="1011.0966" x2="747.1074" y2="1668.0466">
						<stop  offset="0" style="stop-color:#FDF53F"/>
						<stop  offset="1" style="stop-color:#D93C65"/>
					</linearGradient>
					<path style="fill:url(#SVGID_00000101793037108364006370000007843070449267424661_);" d="M1013.957,1300.462v-16.494
						c-17.194-0.689-34.201-4.746-46.28-10.034c-4.313-1.889-6.512-6.729-5.273-11.272l4.19-15.363
						c1.537-5.636,7.667-8.551,13.054-6.293c11.983,5.023,26.777,8.997,42.731,8.997c16.561,0,28.911-5.615,28.911-17.124
						c0-10.385-9.543-16.56-32.561-22.735c-32.841-8.982-56.421-23.298-56.421-52.21c0-26.106,19.089-46.035,52.21-51.367v-16.495
						c0-5.308,4.302-9.611,9.61-9.611h9.691c5.308,0,9.61,4.302,9.61,9.611v14.81c15.91,0.637,27.492,3.358,36.683,6.587
						c4.709,1.655,7.282,6.727,5.976,11.544l-3.854,14.208c-1.486,5.479-7.342,8.48-12.651,6.473
						c-8.462-3.2-20.427-6.532-35.978-6.532c-19.65,0-25.262,8.14-25.262,15.438c0,8.982,11.789,15.157,37.332,23.017
						c36.491,10.947,51.648,26.104,51.648,53.332c0,24.982-18.526,47.438-54.455,53.053v18.459c0,5.307-4.302,9.61-9.61,9.61h-9.692
						C1018.26,1310.072,1013.957,1305.769,1013.957,1300.462z"/>
				</g>
			</g>
		</g>
	</g>
</g>
</svg>
