<?xml version="1.0" encoding="utf-8"?>
<!-- Generator: Adobe Illustrator 27.5.0, SVG Export Plug-In . SVG Version: 6.00 Build 0)  -->
<svg version="1.1" xmlns="http://www.w3.org/2000/svg" xmlns:xlink="http://www.w3.org/1999/xlink" x="0px" y="0px"
	 viewBox="0 0 500 500" style="enable-background:new 0 0 500 500;" xml:space="preserve">
<g id="BACKGROUND">
	<rect style="fill:#6B64BB;" width="500" height="500"/>
</g>
<g id="OBJECTS">
	<g>
		<defs>
			<rect id="SVGID_1_" width="500" height="500"/>
		</defs>
		<clipPath id="SVGID_00000080902857032815416030000003063183210239894666_">
			<use xlink:href="#SVGID_1_"  style="overflow:visible;"/>
		</clipPath>
		<g style="clip-path:url(#SVGID_00000080902857032815416030000003063183210239894666_);">
			<path style="fill:#3D1B1F;" d="M158.422,529.09c0,0-28.094-86.441-0.72-90.043c27.373-3.602,49.037,50.433,38.925,84.645
				C186.515,557.903,158.422,529.09,158.422,529.09z"/>
			<g>
				<g>
					<g>
						<path style="fill:#3D1B1F;" d="M141.171,295.232c0,0,21.805,106.747,4.37,128.573c-16.051,20.094-40.556,16.398-46.389,7.325
							c-14.649-22.788,2.673-89.078,4.411-102.112c1.738-13.033,9.123-49.961,13.033-55.826
							C120.506,267.327,141.171,295.232,141.171,295.232z"/>
						<path style="fill:#48416B;" d="M137.47,345.564c0,0,27.331-14.536,50.879,16.309c0,0,19.335,26.884,20.164,37.829
							c0.796,10.503-10.867,33.065-10.486,56.676c0.381,23.612-90.554-1.471-90.554-1.471S107.059,366.718,137.47,345.564z"/>
						
							<ellipse transform="matrix(0.8704 -0.4923 0.4923 0.8704 -106.9537 118.3281)" style="fill:#3D1B1F;" cx="171.311" cy="262.344" rx="18.789" ry="18.789"/>
						<path style="fill:#E2887F;" d="M188.306,296.06c0.347,0.81,0.969,1.403,1.504,1.967c0.607,0.636,1.114,1.215,0.984,2.01
							c-0.246,1.49-1.49,3.472-1.49,3.472s2.734,0.998,2.488,4.224c-0.246,3.24-2.242,2.488-2.242,2.488s0.014,0.029,0.029,0.087
							c0.26,0.839,2.256,7.522-0.767,9.605c-3.24,2.242-19.137,2.488-19.137,2.488s-6.505,13.831-0.623,24.517
							c1.357,2.466,6.065,8.022,8.658,11.086c3.464,4.093-43.385-4.475-41.347-12.549c7.892-31.267,2.98-89.91,2.98-89.91
							s21.133-5.468,31.577-0.246c10.429,5.222,11.673,15.651,11.919,19.137c0.26,3.471-1.244,6.711,3.486,9.445
							c4.715,2.734,8.954,3.978,6.712,6.205C190.794,292.328,187.568,294.324,188.306,296.06z"/>
						<path style="fill:#7E373F;" d="M169.63,283.372c0,0,6.27,0,9.806-3.858c0,0,1.125,1.447-1.286,3.376l-0.482,4.019
							l-3.858-2.733C173.81,284.176,170.112,284.015,169.63,283.372z"/>
						<path style="fill:#D14B1D;" d="M191.792,307.733c-0.246,3.24-2.242,2.488-2.242,2.488s0.014,0.029,0.029,0.087
							c-4.368-0.246-9.113-6.466-9.113-6.466c4.31-0.217,8.621-4.976,9.344-5.815c0.607,0.636,1.114,1.215,0.984,2.01
							c-0.246,1.49-1.49,3.472-1.49,3.472S192.038,304.507,191.792,307.733z"/>
						<path style="fill:#3D1B1F;" d="M161.087,250.464c0,0,11.101,14.517,0,24.479c-11.101,9.963-14.156,16.041-14.725,28.281
							c0,0-39.072-4.94-29.11-31.412C127.214,245.34,150.271,245.056,161.087,250.464z"/>
						<path style="fill:#E2887F;" d="M146.82,295.003c0,0-1.969-9.131-9.847-7.698c-7.877,1.432-6.982,16.292,2.865,19.156
							C149.684,309.326,147.715,295.898,146.82,295.003z"/>
						<path style="fill:#3D1B1F;" d="M167.463,278.262c0,0,5.291-6.749,11.289-4.607c0,0,0.493-1.927-0.685-2.784
							C176.889,270.014,169.82,270.228,167.463,278.262z"/>
						<path style="fill:#7E373F;" d="M134.934,294.011c0,0,6.148-2.968,9.753,4.452
							C144.687,298.463,143.895,288.263,134.934,294.011z"/>
						<path style="fill:#7E373F;" d="M142.767,294.79c0,0-5.623,3.749-0.302,7.074c0,0-6.288-1.391-1.693-7.74L142.767,294.79z"/>
					</g>
					<path style="fill:#5E558C;" d="M118.899,503.535c-0.765-1.147-3.19-134.176,16.69-140.292
						c19.88-6.117,23.321,23.703,22.939,32.496c-0.184,4.226-2.214,34.125-0.465,59.041c1.891,26.93,7.596,48.979,7.993,52.752
						C166.821,514.795,118.899,503.535,118.899,503.535z"/>
				</g>
				<polygon style="fill:#FAE0C8;" points="141.832,302.807 136.236,322.791 149.51,322.865 				"/>
			</g>
		</g>
		<polygon style="clip-path:url(#SVGID_00000080902857032815416030000003063183210239894666_);fill:#52211D;" points="
			252.947,443.998 319.037,451.889 313.119,522.911 226.489,519.601 		"/>
		<g style="clip-path:url(#SVGID_00000080902857032815416030000003063183210239894666_);">
			<path style="fill:#48416B;" d="M362.399,384.884c0,0,35.252-16.555,53.21,22.126c0,0,14.625,22.699,17.141,34.022
				c2.516,11.322-8.13,36.896-7.71,62.896c0.419,26-82.869-0.413-82.869-0.413S331.984,401.355,362.399,384.884z"/>
			<path style="fill:#8E3A32;" d="M417.811,327.008c0.331,0.912,1.067,1.545,1.657,2.166c0.669,0.701,1.226,1.338,1.083,2.214
				c-0.271,1.641-1.641,3.823-1.641,3.823s3.01,1.099,2.74,4.651c-0.271,3.568-2.469,2.74-2.469,2.74s0.016,0.032,0.032,0.096
				c0.287,0.924-1.323,8.525-4.652,10.818c-3.568,2.469-17.265,2.497-17.265,2.497s-6.913,16.551,0.129,30.299
				c0.894,1.745,11.919,13.931,9.322,14.581c-2.903,0.727-12.669-6.693-24.878-9.915c-10.095-2.664-22.28-2.782-22.28-2.782
				s5.095-22.786,5.304-29.439c0.611-19.416-0.997-76.361-0.997-76.361s23.27-6.021,34.77-0.271
				c11.484,5.75,14.465,14.827,14.735,18.665c0.287,3.823-2.913,11.908,2.295,14.918c5.192,3.01,5.788,3.285,5.694,6.017
				C421.292,324.592,417.437,325.975,417.811,327.008z"/>
			<path style="fill:#52211D;" d="M397.247,313.037c0,0,6.904,0,10.798-4.248c0,0,1.239,1.593-1.416,3.717l-0.531,4.425
				l-4.248-3.009C401.849,313.922,397.778,313.746,397.247,313.037z"/>
			<path style="fill:#692B25;" d="M421.65,339.862c-0.271,3.568-2.469,2.74-2.469,2.74s0.016,0.032,0.032,0.096
				c-4.81-0.271-10.034-7.12-10.034-7.12c4.746-0.239,9.493-5.479,10.289-6.403c0.669,0.701,1.226,1.338,1.083,2.214
				c-0.271,1.641-1.641,3.823-1.641,3.823S421.921,336.31,421.65,339.862z"/>
			<path style="fill:#8E3A32;" d="M372.13,325.845c0,0-2.168-10.054-10.842-8.477c-8.674,1.577-7.688,17.939,3.154,21.094
				C375.284,341.616,373.115,326.831,372.13,325.845z"/>
			<path style="fill:#52211D;" d="M394.861,307.411c0,0,5.826-7.432,12.431-5.073c0,0,0.543-2.122-0.754-3.065
				C405.24,298.329,397.456,298.565,394.861,307.411z"/>
			<path style="fill:#52211D;" d="M359.042,324.753c0,0,6.77-3.268,10.739,4.903C369.781,329.655,368.909,318.423,359.042,324.753z"
				/>
			<path style="fill:#52211D;" d="M367.667,325.61c0,0-6.192,4.128-0.333,7.79c0,0-6.924-1.531-1.864-8.522L367.667,325.61z"/>
			<path style="fill:#FAE0C8;" d="M365.188,339.089c0,2.097,1.7,3.796,3.797,3.796s3.797-1.7,3.797-3.796
				c0-2.097-1.7-3.797-3.797-3.797S365.188,336.992,365.188,339.089z"/>
			<path style="fill:#E0656E;" d="M378.979,302.851c0,0,4.694-2.564,17.828-6.275c13.121-3.708,16.6,0.45,15.974-2.995
				c-0.626-3.445-11.364-24.97-44.409-18.393L378.979,302.851z"/>
			<path style="fill:#F397B4;" d="M418.098,409.312c0,0-40.584,9.413-71.403-8.776c0,0,10.703-34.483,10.703-42.065
				c0-0.366-0.08-0.781-0.207-1.258c-0.127-0.446-0.319-0.956-0.557-1.513c-4.746-11.102-29.434-41.826-8.139-69.142
				c20.308-26.042,51.621-7.996,51.621-7.996s-28.845,15.338-19.686,55.986c3.727,16.533,17.456,22.028,17.488,22.41
				c0.287,3.281,0.78,6.498,1.434,9.636c0.127,0.621,0.255,1.242,0.414,1.863c0.685,3.026,1.513,5.973,2.437,8.808
				c0.239,0.733,0.478,1.449,0.717,2.166C408.987,396.84,418.098,409.312,418.098,409.312z"/>
			<path style="fill:#F397B4;" d="M355.575,370.705c0,0,38.759,7.973,49.612,8.859c0,0,14.969,27.371,12.911,29.743
				C416.04,411.679,361.334,390.196,355.575,370.705z"/>
			<path style="fill:#E384A2;" d="M402.919,379.431c-14.176-0.08-35.948-7.088-37.302-7.534c18.301,4.938,32.206,5.384,36.586,5.368
				C402.441,377.998,402.68,378.715,402.919,379.431z"/>
			<path style="fill:#E384A2;" d="M399.765,368.457c-24.194-3.074-36.474-7.757-42.574-11.245c-0.127-0.446-0.319-0.956-0.557-1.513
				c13.937,7.358,32.668,9.971,42.718,10.895C399.479,367.215,399.606,367.836,399.765,368.457z"/>
		</g>
		<g style="clip-path:url(#SVGID_00000080902857032815416030000003063183210239894666_);">
			<path style="fill:#B14762;" d="M254.014,311.24c0,0,38.484-11.545,55.16,24.373c0,0,13.581,21.078,15.917,31.592
				c2.336,10.514-2.378,53.726-1.989,77.869c0.389,24.143-89.554,13.716-89.554,13.716S225.771,326.535,254.014,311.24z"/>
			<circle style="fill:#FAE0C8;" cx="293.841" cy="226.85" r="19.212"/>
			<path style="fill:#E2887F;" d="M311.219,261.324c0.355,0.828,0.991,1.435,1.538,2.012c0.621,0.651,1.139,1.242,1.006,2.056
				c-0.252,1.523-1.523,3.55-1.523,3.55s2.795,1.021,2.544,4.319c-0.251,3.313-2.293,2.544-2.293,2.544s0.015,0.03,0.03,0.089
				c0.266,0.858,2.307,7.691-0.784,9.821c-3.313,2.292-19.568,2.544-19.568,2.544s-4.475,7.159,0,28.471
				c1.75,8.334-34.062,0-34.062,0l3.047-96.831c0,0,21.609-5.591,32.287-0.252c10.664,5.339,11.936,16.003,12.187,19.568
				c0.266,3.55-1.272,6.863,3.564,9.658c4.822,2.795,9.155,4.067,6.863,6.345C313.763,257.508,310.465,259.549,311.219,261.324z"/>
			<path style="fill:#7E373F;" d="M292.123,248.351c0,0,6.411,0,10.027-3.945c0,0,1.151,1.479-1.315,3.452l-0.493,4.109
				l-3.945-2.794C296.396,249.173,292.616,249.008,292.123,248.351z"/>
			<path style="fill:#D14B1D;" d="M314.783,273.26c-0.251,3.313-2.293,2.544-2.293,2.544s0.015,0.03,0.03,0.089
				c-4.467-0.251-9.318-6.611-9.318-6.611c4.408-0.222,8.815-5.088,9.555-5.946c0.621,0.651,1.139,1.242,1.006,2.056
				c-0.252,1.523-1.523,3.55-1.523,3.55S315.035,269.962,314.783,273.26z"/>
			<path style="fill:#FAE0C8;" d="M283.388,214.703c0,0,11.351,14.844,0,25.03c-11.351,10.187-14.475,16.402-15.057,28.917
				c0,0-39.951-5.051-29.765-32.119C248.753,209.464,272.328,209.173,283.388,214.703z"/>
			<path style="fill:#FAE0C8;" d="M256.997,262.152c0,0,23.283,50.564,5.456,72.882c-16.412,20.546-41.596,11.507-46.261,1.512
				c-4.664-9.995,6.6-28.195,8.376-41.521c1.777-13.327,9.329-51.085,13.326-57.082
				C241.894,231.945,256.997,262.152,256.997,262.152z"/>
			<path style="fill:#E2887F;" d="M268.799,260.244c0,0-2.014-9.336-10.068-7.872c-8.055,1.465-7.139,16.658,2.929,19.587
				C271.728,274.889,269.715,261.159,268.799,260.244z"/>
			<path style="fill:#FAE0C8;" d="M289.907,243.126c0,0,5.41-6.901,11.543-4.711c0,0,0.504-1.97-0.7-2.847
				C299.545,234.693,292.317,234.912,289.907,243.126z"/>
			<path style="fill:#7E373F;" d="M256.646,259.23c0,0,6.287-3.035,9.972,4.552C266.618,263.782,265.809,253.352,256.646,259.23z"/>
			<path style="fill:#7E373F;" d="M264.656,260.026c0,0-5.75,3.833-0.309,7.233c0,0-6.43-1.422-1.731-7.914L264.656,260.026z"/>
		</g>
		<g style="clip-path:url(#SVGID_00000080902857032815416030000003063183210239894666_);">
			<path style="fill:#FAE0C8;" d="M318.009,428.815c0,0,31.824-14.945,48.037,19.975c0,0,13.203,20.492,15.474,30.714
				c2.271,10.222-4.922,15.522-4.543,38.993c0.379,23.472-77.23,17.415-77.23,17.415S290.551,443.685,318.009,428.815z"/>
			<path style="fill:#52211D;" d="M357.01,343.001c0,10.315-14.572,21.445-24.888,21.445c-10.316,0-18.678-8.362-18.678-18.678
				s5.992-19.922,16.307-19.922C340.068,325.845,357.01,332.685,357.01,343.001z"/>
			<path style="fill:#8E3A32;" d="M368.034,376.567c0.299,0.824,0.963,1.395,1.495,1.956c0.604,0.633,1.107,1.208,0.978,1.999
				c-0.244,1.481-1.481,3.451-1.481,3.451s2.718,0.992,2.473,4.199c-0.244,3.221-2.229,2.473-2.229,2.473s0.014,0.029,0.029,0.086
				c0.259,0.834-1.194,7.696-4.199,9.767c-3.221,2.229-15.586,2.254-15.586,2.254s-6.24,14.942,0.117,27.353
				c0.807,1.575,10.76,12.576,8.416,13.163c-2.621,0.656-11.437-6.042-22.459-8.951c-9.114-2.405-20.114-2.511-20.114-2.511
				s4.6-20.571,4.789-26.577c0.551-17.529-0.9-68.936-0.9-68.936s21.008-5.435,31.39-0.245
				c10.367,5.191,13.058,13.385,13.303,16.851c0.259,3.451-2.63,10.75,2.072,13.468c4.688,2.718,5.225,2.966,5.14,5.432
				C371.175,374.385,367.696,375.634,368.034,376.567z"/>
			<path style="fill:#52211D;" d="M349.468,363.954c0,0,6.232,0,9.748-3.835c0,0,1.119,1.438-1.278,3.356l-0.48,3.995l-3.835-2.717
				C353.623,364.753,349.948,364.593,349.468,363.954z"/>
			<path style="fill:#692B25;" d="M371.499,388.171c-0.244,3.221-2.229,2.473-2.229,2.473s0.014,0.029,0.029,0.086
				c-4.342-0.244-9.059-6.427-9.059-6.427c4.285-0.216,8.57-4.946,9.289-5.78c0.604,0.633,1.107,1.208,0.978,1.999
				c-0.244,1.481-1.481,3.451-1.481,3.451S371.743,384.964,371.499,388.171z"/>
			<path style="fill:#52211D;" d="M340.976,331.241c0,0,11.035,14.431,0,24.334c-11.035,9.904-19.962,25.924-20.715,41.75
				c0,0-32.764-18.548-22.86-44.863C307.304,326.148,330.224,325.865,340.976,331.241z"/>
			<path style="fill:#8E3A32;" d="M326.793,375.517c0,0-1.958-9.077-9.788-7.653c-7.831,1.424-6.941,16.195,2.848,19.043
				C329.641,389.754,327.683,376.406,326.793,375.517z"/>
			<path style="fill:#52211D;" d="M347.314,358.875c0,0,5.259-6.709,11.222-4.58c0,0,0.49-1.915-0.681-2.767
				C356.685,350.676,349.657,350.889,347.314,358.875z"/>
			<path style="fill:#52211D;" d="M314.978,374.53c0,0,6.112-2.951,9.695,4.426C324.673,378.956,323.886,368.816,314.978,374.53z"/>
			<path style="fill:#52211D;" d="M322.765,375.304c0,0-5.59,3.727-0.301,7.033c0,0-6.251-1.382-1.683-7.694L322.765,375.304z"/>
			<circle style="fill:#52211D;" cx="299.988" cy="340.23" r="22.186"/>
			<path style="fill:#52211D;" d="M310.544,327.927c0,3.207,2.6,5.806,5.806,5.806c3.207,0,5.807-2.6,5.807-5.806
				c0-3.207-2.6-5.806-5.807-5.806C313.143,322.121,310.544,324.721,310.544,327.927z"/>
			<circle style="fill:#52211D;" cx="312.168" cy="322.788" r="4.855"/>
			<circle style="fill:#52211D;" cx="300.079" cy="320.789" r="6.282"/>
			<circle style="fill:#52211D;" cx="306.742" cy="319.457" r="3.808"/>
			<circle style="fill:#52211D;" cx="291.797" cy="320.694" r="6.378"/>
			<circle style="fill:#52211D;" cx="283.135" cy="332.212" r="7.234"/>
			<path style="fill:#52211D;" d="M290.75,325.549c0,3.154-2.557,5.711-5.711,5.711c-3.154,0-5.711-2.557-5.711-5.711
				c0-3.154,2.557-5.711,5.711-5.711C288.193,319.837,290.75,322.395,290.75,325.549z"/>
			
				<ellipse transform="matrix(0.7071 -0.7071 0.7071 0.7071 -159.8799 298.8099)" style="fill:#52211D;" cx="280.755" cy="342.397" rx="7.52" ry="7.52"/>
			
				<ellipse transform="matrix(0.7071 -0.7071 0.7071 0.7071 -164.9475 304.8517)" style="fill:#52211D;" cx="285.515" cy="351.535" rx="7.71" ry="7.71"/>
			<circle style="fill:#52211D;" cx="292.94" cy="358.579" r="6.187"/>
			<path style="fill:#FAE0C8;" d="M320.527,387.473c0,1.893,1.534,3.427,3.427,3.427c1.893,0,3.427-1.534,3.427-3.427
				c0-1.893-1.535-3.427-3.427-3.427C322.061,384.045,320.527,385.58,320.527,387.473z"/>
		</g>
		<g style="clip-path:url(#SVGID_00000080902857032815416030000003063183210239894666_);">
			<g>
				<path style="fill:#D14B1D;" d="M220.102,360.156c0,14.796-11.994,26.79-26.79,26.79c-14.796,0-23.87-11.118-23.87-25.914
					s15.309-21.383,30.105-21.383C214.342,339.65,220.102,345.36,220.102,360.156z"/>
				<g>
					<path style="fill:#7E373F;" d="M202.328,405.579c0,0,37.089-11.127,53.161,23.49c0,0,13.088,20.314,15.34,30.447
						c2.252,10.133-4.879,15.387-4.503,38.655c0.375,23.268-76.559,17.263-76.559,17.263S175.109,420.32,202.328,405.579z"/>
					<circle style="fill:#D14B1D;" cx="240.712" cy="324.248" r="18.515"/>
					<path style="fill:#E2887F;" d="M257.46,357.473c0.342,0.798,0.955,1.383,1.482,1.939c0.599,0.627,1.098,1.197,0.969,1.981
						c-0.242,1.468-1.468,3.421-1.468,3.421s2.694,0.983,2.452,4.162c-0.242,3.193-2.209,2.452-2.209,2.452s0.014,0.029,0.028,0.086
						c0.257,0.827,2.224,7.412-0.755,9.465c-3.193,2.209-18.858,2.452-18.858,2.452s-5.499,5.628-0.083,25.905
						c1.013,3.793,7.571,10.577,6.871,11.102c-6.38,4.785-44.04-4.886-41.142-11.456c12.62-28.61,4.463-91.433,4.463-91.433
						s20.825-5.388,31.117-0.242c10.277,5.146,11.503,15.423,11.745,18.858c0.257,3.421-1.226,6.614,3.435,9.308
						c4.647,2.694,7.487,5.658,5.278,7.853C258.575,355.534,256.733,355.762,257.46,357.473z"/>
					<path style="fill:#7E373F;" d="M239.056,344.97c0,0,6.178,0,9.663-3.802c0,0,1.109,1.426-1.267,3.327l-0.475,3.96l-3.802-2.693
						C243.175,345.762,239.531,345.603,239.056,344.97z"/>
					<path style="fill:#D14B1D;" d="M260.895,368.976c-0.242,3.193-2.209,2.452-2.209,2.452s0.014,0.029,0.028,0.086
						c-4.305-0.242-8.98-6.372-8.98-6.372c4.248-0.214,8.496-4.903,9.208-5.73c0.599,0.627,1.098,1.197,0.969,1.981
						c-0.242,1.468-1.468,3.421-1.468,3.421S261.138,365.797,260.895,368.976z"/>
					<path style="fill:#D14B1D;" d="M230.638,312.541c0,0,10.939,14.306,0,24.123s-13.95,15.808-14.511,27.869
						c0,0-38.503-4.868-28.686-30.955C197.258,307.492,219.979,307.211,230.638,312.541z"/>
					<path style="fill:#FAE0C8;" d="M195.713,347.097c1.668,2.651-1.891,5.418-4.054,3.154c-4.58-4.792-8.346-9.953-6.571-12.615
						C187.01,334.751,191.598,340.557,195.713,347.097z"/>
					<path style="fill:#E2887F;" d="M216.578,356.431c0,0-1.941-8.998-9.703-7.586c-7.763,1.411-6.881,16.055,2.823,18.877
						C219.401,370.546,217.46,357.314,216.578,356.431z"/>
					<path style="fill:#D14B1D;" d="M236.921,339.934c0,0,5.214-6.651,11.125-4.54c0,0,0.486-1.899-0.675-2.743
						C246.21,331.806,239.243,332.017,236.921,339.934z"/>
					<path style="fill:#7E373F;" d="M204.865,355.454c0,0,6.059-2.925,9.611,4.388C214.476,359.841,213.696,349.79,204.865,355.454z
						"/>
					<path style="fill:#7E373F;" d="M212.584,356.221c0,0-5.541,3.694-0.298,6.971c0,0-6.197-1.37-1.668-7.627L212.584,356.221z"/>
				</g>
				<path style="fill:#7E373F;" d="M204.894,404.425c0,0,27.924,0.482,46.46,21.184c0,0-64.514,9.629-59.218-2.648
					C197.431,410.684,204.894,404.425,204.894,404.425z"/>
			</g>
			<path style="fill:#E2887F;" d="M192.536,454.148c0,0,13.909,4.909,35.181,2.454c0,0,0.818,52.771-1.227,62.998
				c-2.045,10.227-29.863,4.091-29.863,4.091S193.296,472.134,192.536,454.148z"/>
		</g>
		<g style="clip-path:url(#SVGID_00000080902857032815416030000003063183210239894666_);">
			<g>
				<path style="fill:#F397B4;" d="M92.591,467.214c0,0,31.824-14.945,48.037,19.975c0,0,13.203,20.492,15.474,30.714
					c2.271,10.222-4.922,15.522-4.543,38.993c0.379,23.472-77.23,17.415-77.23,17.415S65.133,482.084,92.591,467.214z"/>
				<path style="fill:#9C5937;" d="M137.04,381.485c-0.542,10.301-20.02,21.359-30.336,21.359s-18.678-8.362-18.678-18.678
					c0-10.315,8.362-18.678,18.678-18.678S137.724,368.505,137.04,381.485z"/>
				<path style="fill:#E2887F;" d="M142.616,414.966c0.299,0.824,0.963,1.395,1.495,1.956c0.604,0.633,1.107,1.208,0.978,1.999
					c-0.245,1.481-1.481,3.451-1.481,3.451s2.718,0.992,2.473,4.199c-0.244,3.221-2.229,2.473-2.229,2.473s0.014,0.029,0.029,0.086
					c0.259,0.834-1.194,7.696-4.199,9.767c-3.221,2.229-15.586,2.254-15.586,2.254s-6.241,14.942,0.117,27.353
					c0.807,1.575,10.76,12.576,8.416,13.163c-2.621,0.656-11.437-6.042-22.459-8.951c-9.114-2.405-20.114-2.511-20.114-2.511
					s4.6-20.571,4.789-26.577c0.552-17.529-0.9-68.936-0.9-68.936s21.008-5.435,31.389-0.245
					c10.367,5.191,13.058,13.385,13.303,16.851c0.259,3.451-2.63,10.75,2.072,13.468c4.688,2.718,5.225,2.966,5.14,5.432
					C145.758,412.784,142.278,414.033,142.616,414.966z"/>
				<path style="fill:#52211D;" d="M124.051,402.353c0,0,6.232,0,9.748-3.835c0,0,1.119,1.438-1.278,3.356l-0.479,3.995
					l-3.835-2.717C128.205,403.152,124.53,402.992,124.051,402.353z"/>
				<path style="fill:#BF655C;" d="M146.081,426.569c-0.244,3.221-2.229,2.473-2.229,2.473s0.014,0.029,0.029,0.086
					c-4.343-0.244-9.059-6.427-9.059-6.427c4.285-0.216,8.57-4.946,9.289-5.78c0.604,0.633,1.107,1.208,0.978,1.999
					c-0.245,1.481-1.481,3.451-1.481,3.451S146.326,423.363,146.081,426.569z"/>
				<path style="fill:#9C5937;" d="M115.558,369.64c0,0,11.035,14.431,0,24.334c-11.035,9.904-19.962,25.924-20.715,41.75
					c0,0-32.764-18.548-22.86-44.863C81.886,364.547,104.806,364.264,115.558,369.64z"/>
				<path style="fill:#E2887F;" d="M101.376,413.915c0,0-1.958-9.076-9.788-7.653c-7.831,1.424-6.941,16.195,2.848,19.043
					C104.223,428.153,102.265,414.805,101.376,413.915z"/>
				<path style="fill:#9C5937;" d="M121.897,397.273c0,0,5.259-6.709,11.222-4.58c0,0,0.49-1.915-0.681-2.767
					C131.267,389.074,124.239,389.287,121.897,397.273z"/>
				<path style="fill:#9C5937;" d="M89.561,412.929c0,0,6.112-2.951,9.695,4.426C99.255,417.355,98.468,407.215,89.561,412.929z"/>
				<path style="fill:#9C5937;" d="M97.347,413.703c0,0-5.59,3.727-0.3,7.032c0,0-6.251-1.382-1.683-7.694L97.347,413.703z"/>
			</g>
			<path style="fill:#F397B4;" d="M98.64,443.65c0,0,18.286,6.752,27.569,6.189c9.283-0.563-5.064,10.409,1.125,27.288
				c6.189,16.879-21.943,14.91-30.101,9.846C89.075,481.909,80.917,486.128,98.64,443.65z"/>
			<path style="fill:#9C5937;" d="M71.097,407.26c0,0,5.215,35.28,22.088,49.085c0,0,2.761,9.51,11.351,11.964
				c8.59,2.454,10.737,4.295,10.737,4.295s0.613,5.522,8.283,8.283c7.669,2.761,11.657,6.442,11.657,6.442s-4.295,3.068,6.136,9.203
				c10.43,6.136,11.964,10.43,11.964,10.43s-2.761-13.805-10.124-20.861c0,0-7.669-12.885-11.658-13.498
				c0,0-6.136-11.044-15.339-10.124c0,0-3.068-11.044-11.964-13.805c0,0-3.988-16.873-12.271-20.554
				C83.675,424.44,71.097,407.26,71.097,407.26z"/>
			<path style="fill:#FAE0C8;" d="M103.311,433.351H96.56c-0.939,0-1.7-0.761-1.7-1.7V424.9c0-0.939,0.761-1.7,1.7-1.7h6.751
				c0.939,0,1.7,0.761,1.7,1.7v6.751C105.011,432.59,104.25,433.351,103.311,433.351z"/>
		</g>
	</g>
	<g>
		<g>
			
				<text transform="matrix(1 0 0 1 175.146 86.7109)" style="fill:#F9E1CC; font-family:'Montserrat-Regular'; font-size:14.2019px; letter-spacing:2;">international</text>
		</g>
		<g>
			
				<text transform="matrix(1 0 0 1 209.1099 157.7168)" style="fill:#F9E1CC; font-family:'Montserrat-Regular'; font-size:14.2019px; letter-spacing:2;">8 march</text>
		</g>
		
			<text transform="matrix(1 0 0 1 146.7593 115.1875)" style="fill:#F9E1CC; font-family:'Montserrat-ExtraBold'; font-size:24.3726px; letter-spacing:1;">women’s day</text>
	</g>
</g>
</svg>
