<?xml version="1.0" encoding="utf-8"?>
<!-- Generator: Adobe Illustrator 27.5.0, SVG Export Plug-In . SVG Version: 6.00 Build 0)  -->
<svg version="1.1" xmlns="http://www.w3.org/2000/svg" xmlns:xlink="http://www.w3.org/1999/xlink" x="0px" y="0px"
	 viewBox="0 0 500 500" style="enable-background:new 0 0 500 500;" xml:space="preserve">
<g id="BACKGROUND">
	<linearGradient id="SVGID_1_" gradientUnits="userSpaceOnUse" x1="598.4395" y1="598.4395" x2="31.2595" y2="31.2595">
		<stop  offset="0" style="stop-color:#02007D"/>
		<stop  offset="0.2291" style="stop-color:#0E1988"/>
		<stop  offset="0.7461" style="stop-color:#264C9F"/>
		<stop  offset="1" style="stop-color:#3060A8"/>
	</linearGradient>
	<rect style="fill:url(#SVGID_1_);" width="500" height="500"/>
	<g>
		
			<linearGradient id="SVGID_00000029735991170190425680000002907950052870235817_" gradientUnits="userSpaceOnUse" x1="148.4742" y1="246.513" x2="148.4742" y2="50.7523">
			<stop  offset="0" style="stop-color:#1A1885"/>
			<stop  offset="0.1856" style="stop-color:#202C8F;stop-opacity:0.8144"/>
			<stop  offset="0.5104" style="stop-color:#29489C;stop-opacity:0.4896"/>
			<stop  offset="0.7931" style="stop-color:#2E5AA5;stop-opacity:0.2069"/>
			<stop  offset="1" style="stop-color:#3060A8;stop-opacity:0"/>
		</linearGradient>
		<polygon style="fill:url(#SVGID_00000029735991170190425680000002907950052870235817_);" points="215.674,202.708 81.274,280.304 
			81.274,105.038 215.674,27.442 		"/>
		
			<linearGradient id="SVGID_00000150061311508669661670000005679882695083694254_" gradientUnits="userSpaceOnUse" x1="-7273.6978" y1="246.513" x2="-7273.6978" y2="50.7523" gradientTransform="matrix(-1 0 0 1 -6913.8945 0)">
			<stop  offset="0" style="stop-color:#1A1885"/>
			<stop  offset="0.1856" style="stop-color:#202C8F;stop-opacity:0.8144"/>
			<stop  offset="0.5104" style="stop-color:#29489C;stop-opacity:0.4896"/>
			<stop  offset="0.7931" style="stop-color:#2E5AA5;stop-opacity:0.2069"/>
			<stop  offset="1" style="stop-color:#3060A8;stop-opacity:0"/>
		</linearGradient>
		<polygon style="fill:url(#SVGID_00000150061311508669661670000005679882695083694254_);" points="292.603,202.708 
			427.003,280.304 427.003,105.038 292.603,27.442 		"/>
	</g>
</g>
<g id="OBJECTS">
	<g>
		<g>
			<path style="fill:none;stroke:#FFB06D;stroke-miterlimit:10;" d="M209.194,356.812"/>
			<path style="fill:none;stroke:#FFB06D;stroke-miterlimit:10;" d="M235.321,305.504l76.076-44.341
				c1.313-0.765,1.318-2.661,0.009-3.433l-49.022-28.911"/>
			<line style="fill:none;stroke:#B5E9FE;stroke-miterlimit:10;" x1="279.491" y1="353.567" x2="349.158" y2="313.093"/>
			<line style="fill:none;stroke:#B5E9FE;stroke-miterlimit:10;" x1="156.411" y1="276.794" x2="226.078" y2="236.32"/>
			<g>
				<line style="fill:none;stroke:#FF5A72;stroke-miterlimit:10;" x1="273.853" y1="350.095" x2="343.519" y2="309.621"/>
				<g>
					<path style="fill:#FF5A72;" d="M293.388,338.746c1.049,0.606,1.055,1.588,0.012,2.193c-1.042,0.606-2.737,0.606-3.786,0
						c-1.049-0.606-1.055-1.587-0.012-2.193C290.644,338.14,292.339,338.14,293.388,338.746z"/>
					<path style="fill:#FF5A72;" d="M299.119,335.416c1.049,0.606,1.055,1.587,0.012,2.193c-1.042,0.606-2.737,0.606-3.786,0
						c-1.049-0.606-1.055-1.588-0.012-2.193C296.374,334.811,298.069,334.811,299.119,335.416z"/>
					<path style="fill:#FF5A72;" d="M304.849,332.087c1.049,0.606,1.055,1.588,0.012,2.193c-1.042,0.606-2.737,0.606-3.786,0
						c-1.049-0.606-1.055-1.588-0.012-2.193C302.105,331.481,303.8,331.481,304.849,332.087z"/>
				</g>
			</g>
			<g>
				<path style="fill:none;stroke:#FF5A72;stroke-miterlimit:10;" d="M237.861,297.522l61.893-36.074
					c1.313-0.765,1.318-2.661,0.009-3.433l-49.022-28.911"/>
				<g>
					<path style="fill:#FF5A72;" d="M285.843,269.137c1.049,0.606,1.055,1.587,0.012,2.193c-1.042,0.606-2.737,0.606-3.786,0
						c-1.049-0.606-1.055-1.587-0.012-2.193C283.099,268.531,284.794,268.531,285.843,269.137z"/>
					<path style="fill:#FF5A72;" d="M291.574,265.808c1.049,0.606,1.055,1.587,0.012,2.193c-1.042,0.606-2.737,0.606-3.786,0
						c-1.049-0.606-1.055-1.587-0.012-2.193C288.829,265.202,290.524,265.202,291.574,265.808z"/>
					<path style="fill:#FF5A72;" d="M297.304,262.478c1.049,0.606,1.055,1.587,0.012,2.193c-1.042,0.606-2.737,0.606-3.786,0
						c-1.049-0.606-1.055-1.587-0.012-2.193C294.56,261.873,296.255,261.873,297.304,262.478z"/>
				</g>
				<g>
					<path style="fill:#FF5A72;" d="M291.386,250.615c1.049,0.606,1.055,1.588,0.012,2.193c-1.042,0.606-2.737,0.606-3.786,0
						c-1.049-0.606-1.055-1.587-0.012-2.193C288.642,250.009,290.337,250.009,291.386,250.615z"/>
					<path style="fill:#FF5A72;" d="M285.655,247.281c1.049,0.606,1.055,1.587,0.012,2.193c-1.042,0.606-2.737,0.606-3.786,0
						c-1.049-0.606-1.055-1.587-0.012-2.193C282.911,246.676,284.606,246.676,285.655,247.281z"/>
				</g>
			</g>
			<g>
				<path style="fill:none;stroke:#FF5A72;stroke-miterlimit:10;" d="M274.825,284.057l-94.089,54.84
					c-2.167,1.263-4.846,1.261-7.011-0.006l-33.605-19.668"/>
				<g>
					<path style="fill:#FF5A72;" d="M168.404,333.754c1.049,0.606,1.055,1.587,0.012,2.193c-1.042,0.606-2.737,0.606-3.786,0
						c-1.049-0.606-1.055-1.587-0.012-2.193C165.659,333.148,167.354,333.148,168.404,333.754z"/>
					<path style="fill:#FF5A72;" d="M162.673,330.42c1.049,0.606,1.055,1.587,0.012,2.193c-1.042,0.606-2.737,0.606-3.786,0
						c-1.049-0.606-1.055-1.587-0.012-2.193C159.929,329.815,161.624,329.815,162.673,330.42z"/>
				</g>
			</g>
			<g>
				<line style="fill:none;stroke:#FFB06D;stroke-miterlimit:10;" x1="285.129" y1="357.039" x2="354.796" y2="316.564"/>
				<g>
					<path style="fill:#FFB06D;" d="M334.033,328.626c1.049,0.606,1.055,1.588,0.012,2.193c-1.042,0.606-2.737,0.606-3.786,0
						c-1.049-0.606-1.055-1.588-0.012-2.193C331.289,328.021,332.984,328.021,334.033,328.626z"/>
					<path style="fill:#FFB06D;" d="M339.764,325.297c1.049,0.606,1.055,1.587,0.012,2.193c-1.042,0.606-2.737,0.606-3.786,0
						c-1.049-0.606-1.055-1.587-0.012-2.193C337.02,324.691,338.715,324.691,339.764,325.297z"/>
					<path style="fill:#FFB06D;" d="M345.495,321.967c1.049,0.606,1.055,1.587,0.012,2.193c-1.042,0.606-2.737,0.606-3.786,0
						c-1.049-0.606-1.055-1.587-0.012-2.193C342.751,321.362,344.446,321.362,345.495,321.967z"/>
				</g>
			</g>
			<g>
				<path style="fill:none;stroke:#FFB06D;stroke-miterlimit:10;" d="M270.879,279.844l-90.144,52.54
					c-2.167,1.263-4.846,1.26-7.011-0.006L140.12,312.71"/>
				<g>
					<path style="fill:#FFB06D;" d="M206.1,317.538c1.049,0.606,1.055,1.587,0.012,2.193c-1.042,0.606-2.737,0.606-3.786,0
						c-1.049-0.606-1.055-1.587-0.012-2.193C203.356,316.932,205.051,316.932,206.1,317.538z"/>
					<path style="fill:#FFB06D;" d="M211.831,314.208c1.049,0.606,1.055,1.587,0.012,2.193c-1.042,0.606-2.737,0.606-3.786,0
						c-1.049-0.606-1.055-1.588-0.012-2.193C209.087,313.602,210.782,313.602,211.831,314.208z"/>
					<path style="fill:#FFB06D;" d="M217.562,310.879c1.049,0.606,1.055,1.588,0.012,2.193c-1.042,0.606-2.737,0.606-3.787,0
						c-1.049-0.606-1.055-1.587-0.012-2.193C214.817,310.273,216.512,310.273,217.562,310.879z"/>
				</g>
			</g>
			<g>
				<line style="fill:none;stroke:#FFB06D;stroke-miterlimit:10;" x1="162.049" y1="280.266" x2="231.716" y2="239.792"/>
				<g>
					<path style="fill:#FFB06D;" d="M212.037,251.317c1.049,0.606,1.055,1.587,0.012,2.193c-1.042,0.606-2.737,0.606-3.786,0
						c-1.049-0.606-1.055-1.587-0.012-2.193C209.293,250.711,210.988,250.711,212.037,251.317z"/>
					<path style="fill:#FFB06D;" d="M217.768,247.988c1.049,0.606,1.055,1.588,0.012,2.193c-1.042,0.606-2.737,0.606-3.786,0
						c-1.049-0.606-1.055-1.587-0.012-2.193C215.024,247.382,216.719,247.382,217.768,247.988z"/>
					<path style="fill:#FFB06D;" d="M223.499,244.658c1.049,0.606,1.055,1.588,0.012,2.193c-1.042,0.606-2.737,0.606-3.786,0
						c-1.049-0.606-1.055-1.587-0.012-2.193C220.754,244.052,222.449,244.052,223.499,244.658z"/>
				</g>
			</g>
			<g>
				<path style="fill:none;stroke:#FFB06D;stroke-miterlimit:10;" d="M258.378,310.043l90.144-52.54
					c2.167-1.263,4.846-1.261,7.011,0.006l33.605,19.668"/>
				<g>
					<path style="fill:#FFB06D;" d="M306.954,281.727c1.049,0.606,1.055,1.587,0.012,2.193c-1.042,0.606-2.737,0.606-3.786,0
						c-1.049-0.606-1.055-1.587-0.012-2.193C304.21,281.121,305.904,281.121,306.954,281.727z"/>
					<path style="fill:#FFB06D;" d="M312.684,278.398c1.049,0.606,1.055,1.587,0.012,2.193c-1.042,0.606-2.737,0.606-3.786,0
						c-1.049-0.606-1.055-1.587-0.012-2.193C309.94,277.792,311.635,277.792,312.684,278.398z"/>
					<path style="fill:#FFB06D;" d="M318.415,275.068c1.049,0.606,1.055,1.588,0.012,2.193c-1.042,0.606-2.737,0.606-3.786,0
						c-1.049-0.606-1.055-1.587-0.012-2.193C315.671,274.463,317.366,274.463,318.415,275.068z"/>
				</g>
			</g>
			<g>
				<path style="fill:none;stroke:#B5E9FE;stroke-miterlimit:10;" d="M254.432,305.83l94.089-54.84
					c2.167-1.263,4.846-1.26,7.011,0.006l33.605,19.668"/>
				<g>
					<path style="fill:#B5E9FE;" d="M290.137,285.057c1.049,0.606,1.055,1.588,0.012,2.193c-1.042,0.606-2.737,0.606-3.786,0
						c-1.049-0.606-1.055-1.587-0.012-2.193C287.393,284.451,289.087,284.451,290.137,285.057z"/>
					<path style="fill:#B5E9FE;" d="M295.868,281.727c1.049,0.606,1.055,1.587,0.012,2.193c-1.042,0.606-2.737,0.606-3.786,0
						c-1.049-0.606-1.055-1.587-0.012-2.193C293.123,281.121,294.818,281.121,295.868,281.727z"/>
					<path style="fill:#B5E9FE;" d="M301.598,278.398c1.049,0.606,1.055,1.587,0.012,2.193c-1.042,0.606-2.737,0.606-3.786,0
						c-1.049-0.606-1.055-1.587-0.012-2.193C298.854,277.792,300.549,277.792,301.598,278.398z"/>
				</g>
			</g>
			<g>
				<path style="fill:none;stroke:#FF5A72;stroke-miterlimit:10;" d="M274.825,299.498l-61.893,36.074
					c-1.313,0.765-1.318,2.661-0.009,3.433l49.022,28.911"/>
				<g>
					<path style="fill:#FF5A72;" d="M227.069,345.181c1.049,0.606,1.055,1.588,0.012,2.193c-1.042,0.606-2.737,0.606-3.786,0
						c-1.049-0.606-1.055-1.588-0.012-2.193C224.325,344.575,226.02,344.575,227.069,345.181z"/>
					<path style="fill:#FF5A72;" d="M221.338,341.848c1.049,0.606,1.055,1.588,0.012,2.193c-1.042,0.606-2.737,0.606-3.786,0
						c-1.049-0.606-1.055-1.587-0.012-2.193C218.594,341.242,220.289,341.242,221.338,341.848z"/>
				</g>
				<g>
					<path style="fill:#FF5A72;" d="M230.168,325.67c1.049,0.606,1.055,1.587,0.012,2.193c-1.042,0.606-2.737,0.606-3.786,0
						c-1.049-0.606-1.055-1.587-0.012-2.193C227.424,325.064,229.119,325.064,230.168,325.67z"/>
					<path style="fill:#FF5A72;" d="M235.899,322.341c1.049,0.606,1.055,1.588,0.012,2.193c-1.042,0.606-2.737,0.606-3.786,0
						c-1.049-0.606-1.055-1.588-0.012-2.193C233.155,321.735,234.85,321.735,235.899,322.341z"/>
					<path style="fill:#FF5A72;" d="M241.63,319.011c1.049,0.606,1.055,1.587,0.012,2.193c-1.042,0.606-2.737,0.606-3.786,0
						c-1.049-0.606-1.055-1.587-0.012-2.193C238.886,318.405,240.581,318.405,241.63,319.011z"/>
				</g>
			</g>
			<g>
				<path style="fill:none;stroke:#B5E9FE;stroke-miterlimit:10;" d="M277.365,291.516l-76.076,44.341
					c-1.313,0.765-1.318,2.661-0.009,3.433l49.022,28.911"/>
				<g>
					<path style="fill:#B5E9FE;" d="M210.064,330.55c1.049,0.606,1.055,1.588,0.012,2.193c-1.042,0.606-2.737,0.606-3.786,0
						c-1.049-0.606-1.055-1.587-0.012-2.193C207.32,329.945,209.015,329.945,210.064,330.55z"/>
					<path style="fill:#B5E9FE;" d="M215.795,327.221c1.049,0.606,1.055,1.588,0.012,2.193c-1.042,0.606-2.737,0.606-3.786,0
						c-1.049-0.606-1.055-1.588-0.012-2.193C213.051,326.615,214.746,326.615,215.795,327.221z"/>
					<path style="fill:#B5E9FE;" d="M221.526,323.892c1.049,0.606,1.055,1.587,0.012,2.193c-1.042,0.606-2.737,0.606-3.786,0
						c-1.049-0.606-1.055-1.587-0.012-2.193C218.782,323.286,220.477,323.286,221.526,323.892z"/>
				</g>
			</g>
			<g>
				<line style="fill:none;stroke:#FF5A72;stroke-miterlimit:10;" x1="150.773" y1="273.323" x2="220.44" y2="232.849"/>
				<g>
					<path style="fill:#FF5A72;" d="M193.633,248.422c1.049,0.606,1.055,1.587,0.012,2.193c-1.042,0.606-2.737,0.606-3.786,0
						c-1.049-0.606-1.055-1.588-0.012-2.193C190.889,247.816,192.584,247.816,193.633,248.422z"/>
					<path style="fill:#FF5A72;" d="M199.364,245.093c1.049,0.606,1.055,1.588,0.012,2.193c-1.042,0.606-2.737,0.606-3.787,0
						c-1.049-0.606-1.055-1.587-0.012-2.193C196.62,244.487,198.315,244.487,199.364,245.093z"/>
					<path style="fill:#FF5A72;" d="M205.095,241.763c1.049,0.606,1.055,1.587,0.012,2.193c-1.042,0.606-2.737,0.606-3.786,0
						c-1.049-0.606-1.055-1.587-0.012-2.193C202.35,241.158,204.045,241.158,205.095,241.763z"/>
				</g>
			</g>
		</g>
		<g>
			<g>
				<path style="fill:#FFFFFF;" d="M164.874,143.585c0-0.509,0.357-1.128,0.798-1.382c0.441-0.255,0.798-0.048,0.798,0.461
					s-0.357,1.128-0.798,1.382C165.231,144.301,164.874,144.094,164.874,143.585z"/>
				<path style="fill:#FFFFFF;" d="M164.874,133.401c0-0.509,0.357-1.128,0.798-1.382c0.441-0.255,0.798-0.048,0.798,0.461
					s-0.357,1.128-0.798,1.382C165.231,134.116,164.874,133.91,164.874,133.401z"/>
				<path style="fill:#FFFFFF;" d="M164.874,123.217c0-0.509,0.357-1.128,0.798-1.382c0.441-0.255,0.798-0.048,0.798,0.461
					c0,0.509-0.357,1.128-0.798,1.382C165.231,123.932,164.874,123.726,164.874,123.217z"/>
				<path style="fill:#FFFFFF;" d="M164.874,113.032c0-0.509,0.357-1.128,0.798-1.382c0.441-0.254,0.798-0.048,0.798,0.461
					c0,0.509-0.357,1.128-0.798,1.382C165.231,113.747,164.874,113.541,164.874,113.032z"/>
				<path style="fill:#FFFFFF;" d="M164.874,102.848c0-0.509,0.357-1.128,0.798-1.382c0.441-0.255,0.798-0.048,0.798,0.461
					c0,0.509-0.357,1.128-0.798,1.382C165.231,103.563,164.874,103.357,164.874,102.848z"/>
				<path style="fill:#FFFFFF;" d="M164.874,92.663c0-0.509,0.357-1.128,0.798-1.382c0.441-0.255,0.798-0.048,0.798,0.461
					s-0.357,1.128-0.798,1.382C165.231,93.379,164.874,93.172,164.874,92.663z"/>
				<path style="fill:#FFFFFF;" d="M164.874,82.479c0-0.509,0.357-1.128,0.798-1.382c0.441-0.254,0.798-0.048,0.798,0.461
					c0,0.509-0.357,1.128-0.798,1.382C165.231,83.194,164.874,82.988,164.874,82.479z"/>
			</g>
			<g>
				<path style="fill:#FFFFFF;" d="M208.396,167.949c0-0.509,0.357-1.128,0.798-1.382s0.798-0.048,0.798,0.461
					s-0.357,1.128-0.798,1.382S208.396,168.458,208.396,167.949z"/>
				<path style="fill:#FFFFFF;" d="M208.396,157.764c0-0.509,0.357-1.128,0.798-1.382s0.798-0.048,0.798,0.461
					s-0.357,1.128-0.798,1.382S208.396,158.273,208.396,157.764z"/>
				<path style="fill:#FFFFFF;" d="M208.396,147.58c0-0.509,0.357-1.128,0.798-1.382s0.798-0.048,0.798,0.461
					c0,0.509-0.357,1.128-0.798,1.382S208.396,148.089,208.396,147.58z"/>
				<path style="fill:#FFFFFF;" d="M208.396,137.395c0-0.509,0.357-1.128,0.798-1.382s0.798-0.048,0.798,0.461
					s-0.357,1.128-0.798,1.382S208.396,137.904,208.396,137.395z"/>
				<path style="fill:#FFFFFF;" d="M208.396,127.211c0-0.509,0.357-1.128,0.798-1.382s0.798-0.048,0.798,0.461
					s-0.357,1.128-0.798,1.382S208.396,127.72,208.396,127.211z"/>
				<path style="fill:#FFFFFF;" d="M208.396,117.026c0-0.509,0.357-1.128,0.798-1.382c0.441-0.254,0.798-0.048,0.798,0.461
					c0,0.509-0.357,1.128-0.798,1.382S208.396,117.535,208.396,117.026z"/>
				<path style="fill:#FFFFFF;" d="M208.396,106.842c0-0.509,0.357-1.128,0.798-1.382s0.798-0.048,0.798,0.461
					c0,0.509-0.357,1.128-0.798,1.382C208.753,107.557,208.396,107.351,208.396,106.842z"/>
			</g>
			<g>
				<path style="fill:#FFFFFF;" d="M357.662,144.857c0-0.509,0.357-1.128,0.798-1.382s0.798-0.048,0.798,0.461
					s-0.357,1.128-0.798,1.382S357.662,145.366,357.662,144.857z"/>
				<path style="fill:#FFFFFF;" d="M357.662,134.672c0-0.509,0.357-1.128,0.798-1.382s0.798-0.048,0.798,0.461
					c0,0.509-0.357,1.128-0.798,1.382S357.662,135.181,357.662,134.672z"/>
				<path style="fill:#FFFFFF;" d="M357.662,124.488c0-0.509,0.357-1.128,0.798-1.382s0.798-0.048,0.798,0.461
					s-0.357,1.128-0.798,1.382S357.662,124.997,357.662,124.488z"/>
				<path style="fill:#FFFFFF;" d="M357.662,114.303c0-0.509,0.357-1.128,0.798-1.382s0.798-0.048,0.798,0.461
					c0,0.509-0.357,1.128-0.798,1.382S357.662,114.812,357.662,114.303z"/>
				<path style="fill:#FFFFFF;" d="M357.662,104.119c0-0.509,0.357-1.128,0.798-1.382c0.441-0.255,0.798-0.048,0.798,0.461
					c0,0.509-0.357,1.128-0.798,1.382C358.019,104.834,357.662,104.628,357.662,104.119z"/>
				<path style="fill:#FFFFFF;" d="M357.662,93.935c0-0.509,0.357-1.128,0.798-1.382s0.798-0.048,0.798,0.461
					c0,0.509-0.357,1.128-0.798,1.382S357.662,94.443,357.662,93.935z"/>
				<path style="fill:#FFFFFF;" d="M357.662,83.75c0-0.509,0.357-1.128,0.798-1.382s0.798-0.048,0.798,0.461
					c0,0.509-0.357,1.128-0.798,1.382S357.662,84.259,357.662,83.75z"/>
			</g>
			<g>
				<path style="fill:#FFFFFF;" d="M346.192,127.662c0-0.509,0.357-1.128,0.798-1.382c0.441-0.255,0.798-0.048,0.798,0.461
					c0,0.509-0.357,1.128-0.798,1.382C346.55,128.377,346.192,128.171,346.192,127.662z"/>
				<path style="fill:#FFFFFF;" d="M346.192,117.478c0-0.509,0.357-1.128,0.798-1.382s0.798-0.048,0.798,0.461
					s-0.357,1.128-0.798,1.382S346.192,117.987,346.192,117.478z"/>
				<path style="fill:#FFFFFF;" d="M346.192,107.293c0-0.509,0.357-1.128,0.798-1.382c0.441-0.254,0.798-0.048,0.798,0.461
					c0,0.509-0.357,1.128-0.798,1.382S346.192,107.802,346.192,107.293z"/>
				<path style="fill:#FFFFFF;" d="M346.192,97.109c0-0.509,0.357-1.128,0.798-1.382c0.441-0.254,0.798-0.048,0.798,0.461
					c0,0.509-0.357,1.128-0.798,1.382C346.55,97.824,346.192,97.618,346.192,97.109z"/>
				<path style="fill:#FFFFFF;" d="M346.192,86.924c0-0.509,0.357-1.128,0.798-1.382s0.798-0.048,0.798,0.461
					c0,0.509-0.357,1.128-0.798,1.382S346.192,87.433,346.192,86.924z"/>
				<path style="fill:#FFFFFF;" d="M346.192,76.74c0-0.509,0.357-1.128,0.798-1.382s0.798-0.048,0.798,0.461
					s-0.357,1.128-0.798,1.382S346.192,77.249,346.192,76.74z"/>
				<path style="fill:#FFFFFF;" d="M346.192,66.555c0-0.509,0.357-1.128,0.798-1.382c0.441-0.254,0.798-0.048,0.798,0.461
					c0,0.509-0.357,1.128-0.798,1.382C346.55,67.271,346.192,67.064,346.192,66.555z"/>
			</g>
			<g>
				<path style="fill:#FFFFFF;" d="M218.653,139.999c0-0.509,0.357-1.128,0.798-1.382c0.441-0.255,0.798-0.048,0.798,0.461
					s-0.357,1.128-0.798,1.382C219.01,140.715,218.653,140.508,218.653,139.999z"/>
				<path style="fill:#FFFFFF;" d="M218.653,129.815c0-0.509,0.357-1.128,0.798-1.382c0.441-0.255,0.798-0.048,0.798,0.461
					s-0.357,1.128-0.798,1.382C219.01,130.53,218.653,130.324,218.653,129.815z"/>
				<path style="fill:#FFFFFF;" d="M218.653,119.631c0-0.509,0.357-1.128,0.798-1.382c0.441-0.254,0.798-0.048,0.798,0.461
					c0,0.509-0.357,1.128-0.798,1.382C219.01,120.346,218.653,120.14,218.653,119.631z"/>
				<path style="fill:#FFFFFF;" d="M218.653,109.446c0-0.509,0.357-1.128,0.798-1.382c0.441-0.255,0.798-0.048,0.798,0.461
					c0,0.509-0.357,1.128-0.798,1.382C219.01,110.161,218.653,109.955,218.653,109.446z"/>
				<path style="fill:#FFFFFF;" d="M218.653,99.262c0-0.509,0.357-1.128,0.798-1.382c0.441-0.255,0.798-0.048,0.798,0.461
					c0,0.509-0.357,1.128-0.798,1.382C219.01,99.977,218.653,99.771,218.653,99.262z"/>
				<path style="fill:#FFFFFF;" d="M218.653,89.077c0-0.509,0.357-1.128,0.798-1.382c0.441-0.255,0.798-0.048,0.798,0.461
					c0,0.509-0.357,1.128-0.798,1.382C219.01,89.793,218.653,89.586,218.653,89.077z"/>
				<path style="fill:#FFFFFF;" d="M218.653,78.893c0-0.509,0.357-1.128,0.798-1.382c0.441-0.255,0.798-0.048,0.798,0.461
					s-0.357,1.128-0.798,1.382C219.01,79.608,218.653,79.402,218.653,78.893z"/>
			</g>
		</g>
	</g>
	<g>
		<g>
			<g>
				<path style="fill:#1A1885;" d="M185.753,296.573c3.746,2.163,3.766,5.672,0.044,7.835l-58.38,33.927
					c-3.722,2.163-9.781,2.163-13.527,0l-58.762-33.926c-3.746-2.163-3.766-5.672-0.044-7.835l58.38-33.927
					c3.722-2.163,9.781-2.163,13.527,0L185.753,296.573z"/>
				
					<linearGradient id="SVGID_00000045582860503815676020000018413334513667689872_" gradientUnits="userSpaceOnUse" x1="56.39" y1="313.5262" x2="184.4739" y2="313.5262">
					<stop  offset="0" style="stop-color:#66D2FE"/>
					<stop  offset="0.3365" style="stop-color:#52A7DE"/>
					<stop  offset="0.7813" style="stop-color:#3974B7"/>
					<stop  offset="1" style="stop-color:#3060A8"/>
				</linearGradient>
				<path style="fill:url(#SVGID_00000045582860503815676020000018413334513667689872_);" d="M181.863,295.665l-54.866,31.884
					c-3.498,2.033-9.192,2.033-12.713,0L59.06,295.666c-1.771-1.023-2.656-2.366-2.653-3.707l-0.017,6.02
					c-0.004,1.341,0.881,2.685,2.653,3.708l55.225,31.884c3.521,2.033,9.215,2.033,12.713,0l54.866-31.885
					c1.738-1.01,2.607-2.332,2.611-3.656l0.017-6.02C184.47,293.333,183.6,294.655,181.863,295.665z"/>
				<path style="fill:#A4D4ED;" d="M181.821,288.302c3.521,2.033,3.539,5.331,0.041,7.364l-54.866,31.885
					c-3.498,2.033-9.192,2.033-12.713,0L59.06,295.666c-3.521-2.033-3.539-5.331-0.041-7.364l54.866-31.884
					c3.498-2.033,9.192-2.033,12.713,0L181.821,288.302z"/>
				<g>
					<path style="fill:#FF5A72;" d="M155.08,314.109c0-0.412,0.289-0.913,0.646-1.119c0.357-0.206,0.646-0.039,0.646,0.373
						s-0.289,0.913-0.646,1.119C155.37,314.688,155.08,314.521,155.08,314.109z"/>
					<path style="fill:#FF5A72;" d="M161.607,310.341c0-0.412,0.289-0.913,0.646-1.119c0.357-0.206,0.646-0.039,0.646,0.373
						s-0.289,0.913-0.646,1.119C161.896,310.92,161.607,310.753,161.607,310.341z"/>
					<path style="fill:#FF5A72;" d="M168.446,306.393c0-0.412,0.289-0.913,0.646-1.119c0.357-0.206,0.646-0.039,0.646,0.373
						c0,0.412-0.289,0.913-0.646,1.119C168.735,306.972,168.446,306.805,168.446,306.393z"/>
					<path style="fill:#FF5A72;" d="M174.972,302.625c0-0.412,0.289-0.913,0.646-1.119c0.357-0.206,0.646-0.039,0.646,0.373
						s-0.289,0.913-0.646,1.119C175.261,303.204,174.972,303.037,174.972,302.625z"/>
				</g>
			</g>
			<g>
				
					<linearGradient id="SVGID_00000172407477420125883140000012651707927855390626_" gradientUnits="userSpaceOnUse" x1="56.39" y1="297.3711" x2="184.4739" y2="297.3711">
					<stop  offset="0" style="stop-color:#66D2FE"/>
					<stop  offset="0.3365" style="stop-color:#52A7DE"/>
					<stop  offset="0.7813" style="stop-color:#3974B7"/>
					<stop  offset="1" style="stop-color:#3060A8"/>
				</linearGradient>
				<path style="fill:url(#SVGID_00000172407477420125883140000012651707927855390626_);" d="M181.863,279.51l-54.866,31.884
					c-3.498,2.033-9.192,2.033-12.713,0L59.06,279.511c-1.771-1.023-2.656-2.366-2.653-3.708l-0.017,6.02
					c-0.004,1.341,0.881,2.685,2.653,3.707l55.225,31.884c3.521,2.033,9.215,2.033,12.713,0l54.866-31.885
					c1.738-1.01,2.607-2.332,2.611-3.656l0.017-6.02C184.47,277.178,183.6,278.5,181.863,279.51z"/>
				<path style="fill:#A4D4ED;" d="M181.821,272.146c3.521,2.033,3.539,5.331,0.041,7.364l-54.866,31.884
					c-3.498,2.033-9.192,2.033-12.713,0L59.06,279.511c-3.521-2.033-3.539-5.331-0.041-7.364l54.866-31.885
					c3.498-2.033,9.192-2.033,12.713,0L181.821,272.146z"/>
			</g>
			<g>
				
					<linearGradient id="SVGID_00000176727481043256361180000016290847890884764849_" gradientUnits="userSpaceOnUse" x1="56.39" y1="281.216" x2="184.4739" y2="281.216">
					<stop  offset="0" style="stop-color:#66D2FE"/>
					<stop  offset="0.3365" style="stop-color:#52A7DE"/>
					<stop  offset="0.7813" style="stop-color:#3974B7"/>
					<stop  offset="1" style="stop-color:#3060A8"/>
				</linearGradient>
				<path style="fill:url(#SVGID_00000176727481043256361180000016290847890884764849_);" d="M181.863,263.355l-54.866,31.884
					c-3.498,2.033-9.192,2.033-12.713,0L59.06,263.356c-1.771-1.023-2.656-2.366-2.653-3.707l-0.017,6.02
					c-0.004,1.341,0.881,2.685,2.653,3.708l55.225,31.884c3.521,2.033,9.215,2.033,12.713,0l54.866-31.885
					c1.738-1.01,2.607-2.332,2.611-3.656l0.017-6.02C184.47,261.023,183.6,262.345,181.863,263.355z"/>
				<path style="fill:#A4D4ED;" d="M181.821,255.991c3.521,2.033,3.539,5.331,0.041,7.364l-54.866,31.885
					c-3.498,2.033-9.192,2.033-12.713,0L59.06,263.355c-3.521-2.033-3.539-5.331-0.041-7.364l54.866-31.884
					c3.498-2.033,9.192-2.033,12.713,0L181.821,255.991z"/>
			</g>
			<g>
				
					<linearGradient id="SVGID_00000030471746758598582740000006261309913083846335_" gradientUnits="userSpaceOnUse" x1="56.39" y1="265.0608" x2="184.4739" y2="265.0608">
					<stop  offset="0" style="stop-color:#66D2FE"/>
					<stop  offset="0.3365" style="stop-color:#52A7DE"/>
					<stop  offset="0.7813" style="stop-color:#3974B7"/>
					<stop  offset="1" style="stop-color:#3060A8"/>
				</linearGradient>
				<path style="fill:url(#SVGID_00000030471746758598582740000006261309913083846335_);" d="M181.863,247.2l-54.866,31.884
					c-3.498,2.033-9.192,2.033-12.713,0L59.06,247.2c-1.771-1.023-2.656-2.366-2.653-3.707l-0.017,6.02
					c-0.004,1.341,0.881,2.685,2.653,3.708l55.225,31.884c3.521,2.033,9.215,2.033,12.713,0l54.866-31.885
					c1.738-1.01,2.607-2.332,2.611-3.656l0.017-6.02C184.47,244.868,183.6,246.19,181.863,247.2z"/>
				<path style="fill:#A4D4ED;" d="M181.821,239.836c3.521,2.033,3.539,5.331,0.041,7.364l-54.866,31.884
					c-3.498,2.033-9.192,2.033-12.713,0L59.06,247.2c-3.521-2.033-3.539-5.331-0.041-7.364l54.866-31.885
					c3.498-2.033,9.192-2.033,12.713,0L181.821,239.836z"/>
				<g>
					<path style="fill:#B5E9FE;" d="M91.878,270.322c-0.303-0.175-0.549-0.645-0.549-1.049c0-0.404,0.246-0.59,0.549-0.415
						c0.303,0.175,0.549,0.645,0.549,1.049C92.427,270.311,92.181,270.497,91.878,270.322z"/>
					<path style="fill:#B5E9FE;" d="M97.338,273.474c-0.303-0.175-0.549-0.645-0.549-1.049c0-0.405,0.246-0.59,0.549-0.415
						c0.303,0.175,0.549,0.645,0.549,1.049C97.887,273.463,97.641,273.649,97.338,273.474z"/>
					<path style="fill:#B5E9FE;" d="M102.797,276.626c-0.303-0.175-0.549-0.645-0.549-1.049c0-0.404,0.246-0.59,0.549-0.415
						c0.303,0.175,0.549,0.645,0.549,1.049C103.346,276.616,103.101,276.801,102.797,276.626z"/>
					<path style="fill:#B5E9FE;" d="M108.257,279.778c-0.303-0.175-0.549-0.645-0.549-1.049c0-0.404,0.246-0.59,0.549-0.415
						c0.303,0.175,0.549,0.645,0.549,1.049S108.56,279.953,108.257,279.778z"/>
				</g>
				<g>
					<path style="fill:#FF5A72;" d="M151.661,267.585c0-0.412,0.289-0.913,0.646-1.119c0.357-0.206,0.646-0.039,0.646,0.373
						s-0.289,0.913-0.646,1.119C151.95,268.164,151.661,267.997,151.661,267.585z"/>
					<path style="fill:#FF5A72;" d="M158.187,263.817c0-0.412,0.289-0.913,0.646-1.119c0.357-0.206,0.646-0.039,0.646,0.373
						s-0.289,0.913-0.646,1.119C158.476,264.396,158.187,264.229,158.187,263.817z"/>
					<path style="fill:#FF5A72;" d="M165.026,259.868c0-0.412,0.289-0.913,0.646-1.119c0.357-0.206,0.646-0.039,0.646,0.373
						c0,0.412-0.289,0.913-0.646,1.119C165.315,260.447,165.026,260.28,165.026,259.868z"/>
					<path style="fill:#FF5A72;" d="M171.553,256.1c0-0.412,0.289-0.913,0.646-1.119c0.357-0.206,0.646-0.039,0.646,0.373
						c0,0.412-0.289,0.913-0.646,1.119C171.842,256.679,171.553,256.512,171.553,256.1z"/>
				</g>
			</g>
			<g>
				<path style="fill:#B5E9FE;" d="M91.878,286.005c-0.303-0.175-0.549-0.645-0.549-1.049s0.246-0.59,0.549-0.415
					c0.303,0.175,0.549,0.645,0.549,1.049C92.427,285.994,92.181,286.18,91.878,286.005z"/>
				<path style="fill:#B5E9FE;" d="M97.338,289.157c-0.303-0.175-0.549-0.645-0.549-1.049s0.246-0.59,0.549-0.415
					c0.303,0.175,0.549,0.645,0.549,1.049C97.887,289.146,97.641,289.332,97.338,289.157z"/>
				<path style="fill:#B5E9FE;" d="M102.797,292.309c-0.303-0.175-0.549-0.645-0.549-1.049c0-0.405,0.246-0.59,0.549-0.415
					c0.303,0.175,0.549,0.645,0.549,1.049C103.346,292.298,103.101,292.484,102.797,292.309z"/>
				<path style="fill:#B5E9FE;" d="M108.257,295.461c-0.303-0.175-0.549-0.645-0.549-1.049c0-0.404,0.246-0.59,0.549-0.415
					c0.303,0.175,0.549,0.645,0.549,1.049C108.806,295.45,108.56,295.636,108.257,295.461z"/>
			</g>
		</g>
		<g>
			<path style="fill:#1A1885;" d="M319.219,379.573c3.746,2.163,3.766,5.672,0.044,7.835l-58.38,33.927
				c-3.722,2.163-9.781,2.163-13.527,0l-58.762-33.926c-3.746-2.163-3.766-5.672-0.044-7.835l58.38-33.927
				c3.722-2.163,9.781-2.163,13.527,0L319.219,379.573z"/>
			
				<linearGradient id="SVGID_00000175298441158973909890000015901090000080794296_" gradientUnits="userSpaceOnUse" x1="189.8556" y1="396.0568" x2="317.9395" y2="396.0568">
				<stop  offset="0" style="stop-color:#66D2FE"/>
				<stop  offset="0.3365" style="stop-color:#52A7DE"/>
				<stop  offset="0.7813" style="stop-color:#3974B7"/>
				<stop  offset="1" style="stop-color:#3060A8"/>
			</linearGradient>
			<path style="fill:url(#SVGID_00000175298441158973909890000015901090000080794296_);" d="M315.328,378.196l-54.866,31.884
				c-3.498,2.033-9.192,2.033-12.713,0l-55.225-31.884c-1.771-1.023-2.656-2.366-2.653-3.708l-0.017,6.02
				c-0.004,1.341,0.881,2.685,2.653,3.707l55.225,31.884c3.521,2.033,9.215,2.033,12.713,0l54.866-31.885
				c1.738-1.01,2.607-2.332,2.611-3.656l0.017-6.02C317.936,375.864,317.066,377.186,315.328,378.196z"/>
			<path style="fill:#A4D4ED;" d="M315.287,370.832c3.521,2.032,3.539,5.331,0.042,7.364l-54.866,31.884
				c-3.498,2.033-9.192,2.033-12.713,0l-55.225-31.884c-3.52-2.033-3.539-5.331-0.041-7.364l54.866-31.884
				c3.498-2.033,9.192-2.033,12.713,0L315.287,370.832z"/>
			<g>
				<path style="fill:#B5E9FE;" d="M221.905,399.068c-0.303-0.175-0.549-0.645-0.549-1.049c0-0.404,0.246-0.59,0.549-0.415
					c0.303,0.175,0.549,0.645,0.549,1.049C222.454,399.057,222.208,399.243,221.905,399.068z"/>
				<path style="fill:#B5E9FE;" d="M227.365,402.22c-0.303-0.175-0.549-0.645-0.549-1.049c0-0.405,0.246-0.59,0.549-0.415
					c0.303,0.175,0.549,0.645,0.549,1.049C227.914,402.209,227.668,402.395,227.365,402.22z"/>
				<path style="fill:#B5E9FE;" d="M232.824,405.372c-0.303-0.175-0.549-0.645-0.549-1.049c0-0.404,0.246-0.59,0.549-0.415
					c0.303,0.175,0.549,0.645,0.549,1.049C233.373,405.361,233.128,405.547,232.824,405.372z"/>
				<path style="fill:#B5E9FE;" d="M238.284,408.524c-0.303-0.175-0.549-0.645-0.549-1.049c0-0.404,0.246-0.59,0.549-0.415
					c0.303,0.175,0.549,0.645,0.549,1.049S238.587,408.699,238.284,408.524z"/>
			</g>
			<g>
				<path style="fill:#FF5A72;" d="M292.4,395.165c0-0.412,0.289-0.913,0.646-1.119c0.357-0.206,0.646-0.039,0.646,0.373
					c0,0.412-0.289,0.913-0.646,1.119C292.69,395.744,292.4,395.577,292.4,395.165z"/>
				<path style="fill:#FF5A72;" d="M298.927,391.397c0-0.412,0.289-0.913,0.646-1.119c0.357-0.206,0.646-0.039,0.646,0.373
					s-0.289,0.913-0.646,1.119C299.216,391.976,298.927,391.809,298.927,391.397z"/>
				<path style="fill:#FF5A72;" d="M305.766,387.448c0-0.412,0.289-0.913,0.646-1.119c0.357-0.206,0.646-0.039,0.646,0.373
					c0,0.412-0.289,0.913-0.646,1.119C306.055,388.027,305.766,387.86,305.766,387.448z"/>
				<path style="fill:#FF5A72;" d="M312.292,383.68c0-0.412,0.289-0.913,0.646-1.119c0.357-0.206,0.646-0.039,0.646,0.373
					s-0.289,0.913-0.646,1.119C312.581,384.259,312.292,384.092,312.292,383.68z"/>
			</g>
		</g>
		<g>
			<g>
				<path style="fill:#1A1885;" d="M451.131,295.573c3.746,2.163,3.766,5.672,0.044,7.835l-58.38,33.927
					c-3.722,2.163-9.781,2.163-13.527,0l-58.762-33.926c-3.746-2.163-3.766-5.672-0.044-7.835l58.38-33.927
					c3.722-2.163,9.781-2.163,13.527,0L451.131,295.573z"/>
				
					<linearGradient id="SVGID_00000071535023363131976520000011714537868390863549_" gradientUnits="userSpaceOnUse" x1="321.7678" y1="312.2965" x2="449.8517" y2="312.2965">
					<stop  offset="0" style="stop-color:#66D2FE"/>
					<stop  offset="0.3365" style="stop-color:#52A7DE"/>
					<stop  offset="0.7813" style="stop-color:#3974B7"/>
					<stop  offset="1" style="stop-color:#3060A8"/>
				</linearGradient>
				<path style="fill:url(#SVGID_00000071535023363131976520000011714537868390863549_);" d="M447.241,294.435l-54.866,31.884
					c-3.498,2.033-9.192,2.033-12.712,0l-55.225-31.884c-1.772-1.023-2.656-2.366-2.653-3.707l-0.017,6.02
					c-0.004,1.341,0.881,2.685,2.653,3.707l55.225,31.884c3.521,2.033,9.215,2.033,12.713,0l54.866-31.885
					c1.738-1.01,2.607-2.332,2.611-3.656l0.017-6.02C449.848,292.103,448.978,293.426,447.241,294.435z"/>
				<path style="fill:#A4D4ED;" d="M447.199,287.072c3.52,2.033,3.539,5.331,0.041,7.364l-54.866,31.884
					c-3.498,2.033-9.192,2.033-12.713,0l-55.225-31.884c-3.521-2.033-3.539-5.331-0.041-7.364l54.866-31.884
					c3.498-2.033,9.192-2.033,12.713,0L447.199,287.072z"/>
				<g>
					<path style="fill:#FF5A72;" d="M422.403,312.702c0-0.412,0.289-0.913,0.646-1.119c0.357-0.206,0.646-0.039,0.646,0.373
						s-0.289,0.913-0.646,1.119C422.692,313.281,422.403,313.114,422.403,312.702z"/>
					<path style="fill:#FF5A72;" d="M428.929,308.934c0-0.412,0.289-0.913,0.646-1.119c0.357-0.206,0.646-0.039,0.646,0.373
						c0,0.412-0.289,0.913-0.646,1.119C429.218,309.513,428.929,309.346,428.929,308.934z"/>
					<path style="fill:#FF5A72;" d="M435.768,304.986c0-0.412,0.289-0.913,0.646-1.119c0.357-0.206,0.646-0.039,0.646,0.373
						s-0.289,0.913-0.646,1.119C436.057,305.565,435.768,305.398,435.768,304.986z"/>
					<path style="fill:#FF5A72;" d="M442.294,301.218c0-0.412,0.289-0.913,0.646-1.119c0.357-0.206,0.646-0.039,0.646,0.373
						s-0.289,0.913-0.646,1.119C442.584,301.797,442.294,301.63,442.294,301.218z"/>
				</g>
			</g>
			<g>
				
					<linearGradient id="SVGID_00000042734846630545054380000016512498071159159941_" gradientUnits="userSpaceOnUse" x1="321.7678" y1="296.1413" x2="449.8517" y2="296.1413">
					<stop  offset="0" style="stop-color:#66D2FE"/>
					<stop  offset="0.3365" style="stop-color:#52A7DE"/>
					<stop  offset="0.7813" style="stop-color:#3974B7"/>
					<stop  offset="1" style="stop-color:#3060A8"/>
				</linearGradient>
				<path style="fill:url(#SVGID_00000042734846630545054380000016512498071159159941_);" d="M447.241,278.28l-54.866,31.884
					c-3.498,2.033-9.192,2.033-12.712,0l-55.225-31.884c-1.772-1.023-2.656-2.366-2.653-3.708l-0.017,6.02
					c-0.004,1.341,0.881,2.685,2.653,3.707l55.225,31.884c3.521,2.032,9.215,2.032,12.713,0l54.866-31.885
					c1.738-1.01,2.607-2.332,2.611-3.656l0.017-6.02C449.848,275.948,448.978,277.27,447.241,278.28z"/>
				<path style="fill:#A4D4ED;" d="M447.199,270.917c3.52,2.033,3.539,5.331,0.041,7.364l-54.866,31.884
					c-3.498,2.033-9.192,2.033-12.713,0l-55.225-31.884c-3.521-2.033-3.539-5.331-0.041-7.364l54.866-31.884
					c3.498-2.033,9.192-2.033,12.713,0L447.199,270.917z"/>
			</g>
			<g>
				
					<linearGradient id="SVGID_00000072980770005273195340000005279599237082160790_" gradientUnits="userSpaceOnUse" x1="321.7678" y1="279.9862" x2="449.8517" y2="279.9862">
					<stop  offset="0" style="stop-color:#66D2FE"/>
					<stop  offset="0.3365" style="stop-color:#52A7DE"/>
					<stop  offset="0.7813" style="stop-color:#3974B7"/>
					<stop  offset="1" style="stop-color:#3060A8"/>
				</linearGradient>
				<path style="fill:url(#SVGID_00000072980770005273195340000005279599237082160790_);" d="M447.241,262.125l-54.866,31.884
					c-3.498,2.033-9.192,2.033-12.712,0l-55.225-31.884c-1.772-1.023-2.656-2.366-2.653-3.707l-0.017,6.02
					c-0.004,1.341,0.881,2.685,2.653,3.707l55.225,31.884c3.521,2.033,9.215,2.033,12.713,0l54.866-31.885
					c1.738-1.01,2.607-2.332,2.611-3.656l0.017-6.02C449.848,259.793,448.978,261.115,447.241,262.125z"/>
				<path style="fill:#A4D4ED;" d="M447.199,254.762c3.52,2.033,3.539,5.331,0.041,7.364l-54.866,31.885
					c-3.498,2.033-9.192,2.033-12.713,0l-55.225-31.884c-3.521-2.033-3.539-5.331-0.041-7.364l54.866-31.885
					c3.498-2.033,9.192-2.033,12.713,0L447.199,254.762z"/>
				<g>
					<path style="fill:#FF5A72;" d="M397.468,294.357c0-0.412,0.289-0.913,0.646-1.119c0.357-0.206,0.646-0.039,0.646,0.373
						c0,0.412-0.289,0.913-0.646,1.119C397.757,294.936,397.468,294.769,397.468,294.357z"/>
					<path style="fill:#FF5A72;" d="M403.994,290.589c0-0.412,0.289-0.913,0.646-1.119c0.357-0.206,0.646-0.039,0.646,0.373
						c0,0.412-0.289,0.913-0.646,1.119C404.283,291.168,403.994,291.001,403.994,290.589z"/>
					<path style="fill:#FF5A72;" d="M410.833,286.641c0-0.412,0.289-0.913,0.646-1.119c0.357-0.206,0.646-0.039,0.646,0.373
						s-0.289,0.913-0.646,1.119C411.122,287.22,410.833,287.053,410.833,286.641z"/>
					<path style="fill:#FF5A72;" d="M417.359,282.873c0-0.412,0.289-0.913,0.646-1.119c0.357-0.206,0.646-0.039,0.646,0.373
						s-0.289,0.913-0.646,1.119C417.649,283.452,417.359,283.285,417.359,282.873z"/>
				</g>
			</g>
			<g>
				
					<linearGradient id="SVGID_00000023965640881305924630000017234213472695514496_" gradientUnits="userSpaceOnUse" x1="321.7678" y1="279.9862" x2="449.8517" y2="279.9862">
					<stop  offset="0" style="stop-color:#66D2FE"/>
					<stop  offset="0.3365" style="stop-color:#52A7DE"/>
					<stop  offset="0.7813" style="stop-color:#3974B7"/>
					<stop  offset="1" style="stop-color:#3060A8"/>
				</linearGradient>
				<path style="fill:url(#SVGID_00000023965640881305924630000017234213472695514496_);" d="M447.241,262.125l-54.866,31.884
					c-3.498,2.033-9.192,2.033-12.712,0l-55.225-31.884c-1.772-1.023-2.656-2.366-2.653-3.707l-0.017,6.02
					c-0.004,1.341,0.881,2.685,2.653,3.707l55.225,31.884c3.521,2.033,9.215,2.033,12.713,0l54.866-31.885
					c1.738-1.01,2.607-2.332,2.611-3.656l0.017-6.02C449.848,259.793,448.978,261.115,447.241,262.125z"/>
				<path style="fill:#A4D4ED;" d="M447.199,254.762c3.52,2.033,3.539,5.331,0.041,7.364l-54.866,31.885
					c-3.498,2.033-9.192,2.033-12.713,0l-55.225-31.884c-3.521-2.033-3.539-5.331-0.041-7.364l54.866-31.885
					c3.498-2.033,9.192-2.033,12.713,0L447.199,254.762z"/>
				<g>
					
						<linearGradient id="SVGID_00000176760135068655771510000008453711498231439032_" gradientUnits="userSpaceOnUse" x1="373.0879" y1="258.4437" x2="398.5486" y2="258.4437">
						<stop  offset="0" style="stop-color:#FF5A72"/>
						<stop  offset="0.1515" style="stop-color:#FF6971"/>
						<stop  offset="0.7206" style="stop-color:#FF9C6E"/>
						<stop  offset="1" style="stop-color:#FFB06D"/>
					</linearGradient>
					<path style="opacity:0.72;fill:url(#SVGID_00000176760135068655771510000008453711498231439032_);" d="M398.021,257.712
						c0.7,0.404,0.704,1.06,0.008,1.464l-10.908,6.339c-0.695,0.404-1.828,0.404-2.527,0l-10.979-6.339
						c-0.7-0.404-0.704-1.06-0.008-1.464l10.908-6.339c0.695-0.404,1.827-0.404,2.527,0L398.021,257.712z"/>
				</g>
				<g>
					<path style="fill:#FF5A72;" d="M397.468,294.357c0-0.412,0.289-0.913,0.646-1.119c0.357-0.206,0.646-0.039,0.646,0.373
						c0,0.412-0.289,0.913-0.646,1.119C397.757,294.936,397.468,294.769,397.468,294.357z"/>
					<path style="fill:#FF5A72;" d="M403.994,290.589c0-0.412,0.289-0.913,0.646-1.119c0.357-0.206,0.646-0.039,0.646,0.373
						c0,0.412-0.289,0.913-0.646,1.119C404.283,291.168,403.994,291.001,403.994,290.589z"/>
					<path style="fill:#FF5A72;" d="M410.833,286.641c0-0.412,0.289-0.913,0.646-1.119c0.357-0.206,0.646-0.039,0.646,0.373
						s-0.289,0.913-0.646,1.119C411.122,287.22,410.833,287.053,410.833,286.641z"/>
					<path style="fill:#FF5A72;" d="M417.359,282.873c0-0.412,0.289-0.913,0.646-1.119c0.357-0.206,0.646-0.039,0.646,0.373
						s-0.289,0.913-0.646,1.119C417.649,283.452,417.359,283.285,417.359,282.873z"/>
				</g>
			</g>
			<g>
				<path style="fill:#B5E9FE;" d="M351.614,281.834c-0.303-0.175-0.549-0.645-0.549-1.049c0-0.405,0.246-0.59,0.549-0.415
					c0.303,0.175,0.549,0.645,0.549,1.049C352.163,281.824,351.917,282.009,351.614,281.834z"/>
				<path style="fill:#B5E9FE;" d="M357.073,284.986c-0.303-0.175-0.549-0.645-0.549-1.049c0-0.404,0.246-0.59,0.549-0.415
					c0.303,0.175,0.549,0.645,0.549,1.049S357.376,285.161,357.073,284.986z"/>
				<path style="fill:#B5E9FE;" d="M362.533,288.138c-0.303-0.175-0.549-0.645-0.549-1.049c0-0.404,0.246-0.59,0.549-0.415
					c0.303,0.175,0.549,0.645,0.549,1.049S362.836,288.314,362.533,288.138z"/>
				<path style="fill:#B5E9FE;" d="M367.992,291.291c-0.303-0.175-0.549-0.645-0.549-1.049c0-0.405,0.246-0.59,0.549-0.415
					c0.303,0.175,0.549,0.645,0.549,1.049C368.541,291.28,368.296,291.466,367.992,291.291z"/>
			</g>
			<g>
				<path style="fill:#B5E9FE;" d="M351.614,297.558c-0.303-0.175-0.549-0.645-0.549-1.049c0-0.405,0.246-0.59,0.549-0.415
					c0.303,0.175,0.549,0.645,0.549,1.049C352.163,297.547,351.917,297.733,351.614,297.558z"/>
				<path style="fill:#B5E9FE;" d="M357.073,300.71c-0.303-0.175-0.549-0.645-0.549-1.049c0-0.404,0.246-0.59,0.549-0.415
					c0.303,0.175,0.549,0.645,0.549,1.049C357.622,300.699,357.376,300.885,357.073,300.71z"/>
				<path style="fill:#B5E9FE;" d="M362.533,303.862c-0.303-0.175-0.549-0.645-0.549-1.049c0-0.404,0.246-0.59,0.549-0.415
					c0.303,0.175,0.549,0.645,0.549,1.049C363.082,303.852,362.836,304.038,362.533,303.862z"/>
				<path style="fill:#B5E9FE;" d="M367.992,307.014c-0.303-0.175-0.549-0.645-0.549-1.049c0-0.404,0.246-0.59,0.549-0.415
					c0.303,0.175,0.549,0.645,0.549,1.049C368.541,307.004,368.296,307.19,367.992,307.014z"/>
			</g>
		</g>
		<g>
			<g>
				<path style="fill:#1A1885;" d="M319.219,217.665c3.746,2.163,3.766,5.673,0.044,7.835l-58.38,33.927
					c-3.722,2.163-9.781,2.163-13.527,0l-58.762-33.926c-3.746-2.163-3.766-5.673-0.044-7.835l58.38-33.927
					c3.722-2.163,9.781-2.163,13.527,0L319.219,217.665z"/>
				
					<linearGradient id="SVGID_00000171693225604907709800000011977862937246200221_" gradientUnits="userSpaceOnUse" x1="189.8556" y1="234.9118" x2="317.9395" y2="234.9118">
					<stop  offset="0" style="stop-color:#66D2FE"/>
					<stop  offset="0.3365" style="stop-color:#52A7DE"/>
					<stop  offset="0.7813" style="stop-color:#3974B7"/>
					<stop  offset="1" style="stop-color:#3060A8"/>
				</linearGradient>
				<path style="fill:url(#SVGID_00000171693225604907709800000011977862937246200221_);" d="M315.328,217.051l-54.866,31.884
					c-3.498,2.033-9.192,2.033-12.713,0l-55.225-31.884c-1.771-1.023-2.656-2.366-2.653-3.708l-0.017,6.02
					c-0.004,1.341,0.881,2.685,2.653,3.707l55.225,31.884c3.521,2.033,9.215,2.033,12.713,0l54.866-31.885
					c1.738-1.01,2.607-2.332,2.611-3.656l0.017-6.02C317.936,214.719,317.066,216.041,315.328,217.051z"/>
				<path style="fill:#A4D4ED;" d="M315.287,209.687c3.521,2.033,3.539,5.331,0.042,7.364l-54.866,31.884
					c-3.498,2.033-9.192,2.033-12.713,0l-55.225-31.884c-3.52-2.033-3.539-5.331-0.041-7.364l54.866-31.884
					c3.498-2.033,9.192-2.033,12.713,0L315.287,209.687z"/>
			</g>
			<g>
				
					<linearGradient id="SVGID_00000139990966160188253980000007515070716451741628_" gradientUnits="userSpaceOnUse" x1="189.8556" y1="218.7566" x2="317.9395" y2="218.7566">
					<stop  offset="0" style="stop-color:#66D2FE"/>
					<stop  offset="0.3365" style="stop-color:#52A7DE"/>
					<stop  offset="0.7813" style="stop-color:#3974B7"/>
					<stop  offset="1" style="stop-color:#3060A8"/>
				</linearGradient>
				<path style="fill:url(#SVGID_00000139990966160188253980000007515070716451741628_);" d="M315.328,200.896l-54.866,31.884
					c-3.498,2.033-9.192,2.033-12.713,0l-55.225-31.884c-1.771-1.023-2.656-2.366-2.653-3.707l-0.017,6.02
					c-0.004,1.341,0.881,2.685,2.653,3.708l55.225,31.884c3.521,2.033,9.215,2.033,12.713,0l54.866-31.885
					c1.738-1.01,2.607-2.332,2.611-3.656l0.017-6.02C317.936,198.564,317.066,199.886,315.328,200.896z"/>
				<path style="fill:#A4D4ED;" d="M315.287,193.532c3.521,2.033,3.539,5.331,0.042,7.364l-54.866,31.885
					c-3.498,2.033-9.192,2.033-12.713,0l-55.225-31.884c-3.52-2.033-3.539-5.331-0.041-7.364l54.866-31.884
					c3.498-2.033,9.192-2.033,12.713,0L315.287,193.532z"/>
			</g>
		</g>
		<g>
			<g>
				<g>
					
						<ellipse transform="matrix(0.0027 -1 1 0.0027 -50.6573 556.9377)" style="fill:#1A1885;" cx="253.898" cy="303.866" rx="17.237" ry="30.415"/>
					<path style="fill:#FFB06D;" d="M272.892,283.969c10.561,5.966,10.616,15.634,0.124,21.6c-10.492,5.966-27.553,5.966-38.113,0
						c-10.561-5.966-10.617-15.634-0.124-21.6C245.271,278.003,262.331,278.003,272.892,283.969z"/>
					
						<linearGradient id="SVGID_00000142137249725936581620000011968889995538348939_" gradientUnits="userSpaceOnUse" x1="201.5625" y1="245.3077" x2="281.0587" y2="311.3045">
						<stop  offset="0" style="stop-color:#FFE62A"/>
						<stop  offset="1" style="stop-color:#F4617E"/>
					</linearGradient>
					<path style="fill:url(#SVGID_00000142137249725936581620000011968889995538348939_);" d="M277.845,280.831l-0.058,20.379
						c0.01-3.573-2.342-7.151-7.052-9.87c-9.366-5.408-24.551-5.408-33.85-0.004c-4.623,2.686-6.937,6.209-6.947,9.737l0.058-20.379
						c0.01-3.528,2.324-7.05,6.947-9.737c9.299-5.404,24.483-5.404,33.849,0.004C275.503,273.68,277.855,277.258,277.845,280.831z"
						/>
					
						<linearGradient id="SVGID_00000039097817275490655840000008255757193958267032_" gradientUnits="userSpaceOnUse" x1="199.2656" y1="248.0744" x2="278.7615" y2="314.071">
						<stop  offset="0" style="stop-color:#FFE62A"/>
						<stop  offset="1" style="stop-color:#F4617E"/>
					</linearGradient>
					<path style="fill:url(#SVGID_00000039097817275490655840000008255757193958267032_);" d="M280.849,280.839l-0.058,20.379
						c-0.011,3.97-2.614,7.934-7.813,10.956c-10.466,6.082-27.56,6.082-38.094,0c-5.301-3.061-7.949-7.089-7.938-11.11l0.058-20.379
						c-0.011,4.022,2.636,8.049,7.938,11.11c10.535,6.082,27.628,6.082,38.094,0C278.235,288.773,280.838,284.809,280.849,280.839z"
						/>
					<path style="fill:#FFD0A8;" d="M272.911,269.729c10.535,6.082,10.591,15.983,0.124,22.066c-10.466,6.082-27.56,6.083-38.094,0
						c-10.535-6.082-10.59-15.983-0.124-22.066C245.283,263.647,262.377,263.647,272.911,269.729z M237.054,290.568
						c9.36,5.404,24.544,5.404,33.85-0.004c9.299-5.404,9.249-14.199-0.111-19.603c-9.366-5.408-24.551-5.408-33.849-0.004
						C227.638,276.365,227.687,285.16,237.054,290.568"/>
				</g>
				
					<linearGradient id="SVGID_00000029010575147547464160000018183638600093798036_" gradientUnits="userSpaceOnUse" x1="233.3768" y1="237.5276" x2="274.4182" y2="237.5276">
					<stop  offset="0" style="stop-color:#FF5A72"/>
					<stop  offset="0.1515" style="stop-color:#FF6971"/>
					<stop  offset="0.7206" style="stop-color:#FF9C6E"/>
					<stop  offset="1" style="stop-color:#FFB06D"/>
				</linearGradient>
				<path style="opacity:0.72;fill:url(#SVGID_00000029010575147547464160000018183638600093798036_);" d="M274.418,191.373
					l-0.229,80.669c-0.008,3.005-1.983,6.005-5.927,8.297c-7.944,4.617-20.864,4.617-28.86,0c-4.024-2.323-6.034-5.372-6.025-8.417
					l0.229-80.669c-0.009,3.044,2.001,6.093,6.025,8.417c7.997,4.617,20.916,4.617,28.86,0
					C272.435,197.378,274.41,194.378,274.418,191.373z"/>
				
					<linearGradient id="SVGID_00000084489978334447834890000000081190425905578139_" gradientUnits="userSpaceOnUse" x1="233.6055" y1="191.3126" x2="274.4182" y2="191.3126">
					<stop  offset="0" style="stop-color:#FF5A72"/>
					<stop  offset="0.1515" style="stop-color:#FF6971"/>
					<stop  offset="0.7206" style="stop-color:#FF9C6E"/>
					<stop  offset="1" style="stop-color:#FFB06D"/>
				</linearGradient>
				<path style="opacity:0.4;fill:url(#SVGID_00000084489978334447834890000000081190425905578139_);" d="M268.393,182.955
					c7.997,4.617,8.039,12.1,0.098,16.715c-7.944,4.617-20.864,4.617-28.86,0c-7.996-4.617-8.038-12.1-0.094-16.717
					C247.477,178.339,260.396,178.339,268.393,182.955z"/>
				
					<linearGradient id="SVGID_00000088824606244275111710000012869645730663742091_" gradientUnits="userSpaceOnUse" x1="233.6055" y1="182.2484" x2="274.4182" y2="182.2484">
					<stop  offset="0" style="stop-color:#FF5A72"/>
					<stop  offset="0.1515" style="stop-color:#FF6971"/>
					<stop  offset="0.7206" style="stop-color:#FF9C6E"/>
					<stop  offset="1" style="stop-color:#FFB06D"/>
				</linearGradient>
				<path style="opacity:0.4;fill:url(#SVGID_00000088824606244275111710000012869645730663742091_);" d="M268.393,173.891
					c7.997,4.617,8.039,12.1,0.098,16.715c-7.944,4.617-20.864,4.617-28.86,0c-7.996-4.617-8.038-12.1-0.094-16.717
					C247.477,169.274,260.396,169.274,268.393,173.891z"/>
				
					<linearGradient id="SVGID_00000000942925716236895680000004207962792887429013_" gradientUnits="userSpaceOnUse" x1="233.6055" y1="74.7643" x2="274.4182" y2="74.7643">
					<stop  offset="0" style="stop-color:#FF5A72"/>
					<stop  offset="0.1515" style="stop-color:#FF6971"/>
					<stop  offset="0.7206" style="stop-color:#FF9C6E"/>
					<stop  offset="1" style="stop-color:#FFB06D"/>
				</linearGradient>
				<path style="opacity:0.4;fill:url(#SVGID_00000000942925716236895680000004207962792887429013_);" d="M268.393,66.407
					c7.997,4.617,8.039,12.1,0.098,16.715c-7.944,4.617-20.864,4.617-28.86,0c-7.996-4.617-8.038-12.1-0.094-16.717
					C247.477,61.79,260.396,61.79,268.393,66.407z"/>
				
					<linearGradient id="SVGID_00000122720882927134377520000001205217709629429921_" gradientUnits="userSpaceOnUse" x1="244.4703" y1="96.8374" x2="263.5534" y2="96.8374">
					<stop  offset="0" style="stop-color:#FF5A72"/>
					<stop  offset="0.1515" style="stop-color:#FF6971"/>
					<stop  offset="0.7206" style="stop-color:#FF9C6E"/>
					<stop  offset="1" style="stop-color:#FFB06D"/>
				</linearGradient>
				<path style="opacity:0.4;fill:url(#SVGID_00000122720882927134377520000001205217709629429921_);" d="M260.736,92.93
					c3.739,2.159,3.759,5.658,0.046,7.815c-3.715,2.159-9.755,2.159-13.494,0s-3.759-5.658-0.044-7.816
					C250.956,90.771,256.997,90.771,260.736,92.93z"/>
			</g>
			<g>
				<g>
					
						<linearGradient id="SVGID_00000016780498709586838680000011785471434855087244_" gradientUnits="userSpaceOnUse" x1="196.1672" y1="130.0776" x2="288.667" y2="186.0774">
						<stop  offset="0" style="stop-color:#FFE62A"/>
						<stop  offset="1" style="stop-color:#F42C53"/>
					</linearGradient>
					<polygon style="fill:url(#SVGID_00000016780498709586838680000011785471434855087244_);" points="253.749,165.029 
						263.889,159.136 263.856,170.966 253.715,176.859 					"/>
					
						<linearGradient id="SVGID_00000145031752556590072560000007446616316343129771_" gradientUnits="userSpaceOnUse" x1="198.728" y1="125.8469" x2="291.2285" y2="181.8472">
						<stop  offset="0" style="stop-color:#FFE62A"/>
						<stop  offset="1" style="stop-color:#F4617E"/>
					</linearGradient>
					<polygon style="fill:url(#SVGID_00000145031752556590072560000007446616316343129771_);" points="243.457,159.086 
						253.597,153.193 263.889,159.136 253.749,165.029 					"/>
					
						<linearGradient id="SVGID_00000028325717543683378500000010215466860149772729_" gradientUnits="userSpaceOnUse" x1="193.4375" y1="134.5855" x2="285.9379" y2="190.5856">
						<stop  offset="0" style="stop-color:#FFB82A"/>
						<stop  offset="1" style="stop-color:#F4617E"/>
					</linearGradient>
					<polygon style="fill:url(#SVGID_00000028325717543683378500000010215466860149772729_);" points="253.749,165.029 
						253.715,176.859 243.423,170.917 243.457,159.086 					"/>
				</g>
				<g>
					
						<linearGradient id="SVGID_00000052094360957757883200000018303427842095303068_" gradientUnits="userSpaceOnUse" x1="278.5517" y1="74.723" x2="419.4236" y2="160.0075">
						<stop  offset="0" style="stop-color:#FFBC2A"/>
						<stop  offset="1" style="stop-color:#F4617E"/>
					</linearGradient>
					<polygon style="fill:url(#SVGID_00000052094360957757883200000018303427842095303068_);" points="319.038,93.407 
						329.179,87.514 329.145,111.179 319.005,117.073 					"/>
					
						<linearGradient id="SVGID_00000049919296511175005560000006783614876476642202_" gradientUnits="userSpaceOnUse" x1="296.7503" y1="74.0419" x2="389.2501" y2="130.0417">
						<stop  offset="0" style="stop-color:#FFE62A"/>
						<stop  offset="1" style="stop-color:#F4617E"/>
					</linearGradient>
					<polygon style="fill:url(#SVGID_00000049919296511175005560000006783614876476642202_);" points="308.746,87.465 
						318.887,81.572 329.179,87.514 319.038,93.407 					"/>
					
						<linearGradient id="SVGID_00000180329097663301266070000012368305755107420348_" gradientUnits="userSpaceOnUse" x1="283.8185" y1="84.0719" x2="407.8512" y2="159.1618">
						<stop  offset="0" style="stop-color:#FFD12A"/>
						<stop  offset="1" style="stop-color:#F4617E"/>
					</linearGradient>
					<polygon style="fill:url(#SVGID_00000180329097663301266070000012368305755107420348_);" points="319.038,93.407 
						319.005,117.073 308.713,111.13 308.746,87.465 					"/>
				</g>
				
					<line style="fill:none;stroke:#FF5A72;stroke-width:2;stroke-linecap:round;stroke-linejoin:round;stroke-miterlimit:10;" x1="291.335" y1="121.285" x2="313.879" y2="108.184"/>
				<g>
					
						<linearGradient id="SVGID_00000019646976744810850670000017921989604487695798_" gradientUnits="userSpaceOnUse" x1="228.6628" y1="89.4556" x2="321.1626" y2="145.4554">
						<stop  offset="0" style="stop-color:#FFE62A"/>
						<stop  offset="1" style="stop-color:#F42C53"/>
					</linearGradient>
					<polygon style="fill:url(#SVGID_00000019646976744810850670000017921989604487695798_);" points="286.245,124.407 
						296.385,118.513 296.352,130.344 286.211,136.237 					"/>
					
						<linearGradient id="SVGID_00000132045934890102769390000000377315061217197753_" gradientUnits="userSpaceOnUse" x1="231.2239" y1="85.225" x2="323.724" y2="141.2249">
						<stop  offset="0" style="stop-color:#FFE62A"/>
						<stop  offset="1" style="stop-color:#F4617E"/>
					</linearGradient>
					<polygon style="fill:url(#SVGID_00000132045934890102769390000000377315061217197753_);" points="275.953,118.464 
						286.093,112.571 296.385,118.513 286.245,124.407 					"/>
					
						<linearGradient id="SVGID_00000121261441043307998210000009278979600912550308_" gradientUnits="userSpaceOnUse" x1="225.9335" y1="93.9636" x2="318.4333" y2="149.9634">
						<stop  offset="0" style="stop-color:#FFB82A"/>
						<stop  offset="1" style="stop-color:#F4617E"/>
					</linearGradient>
					<polygon style="fill:url(#SVGID_00000121261441043307998210000009278979600912550308_);" points="286.245,124.407 
						286.211,136.237 275.919,130.295 275.953,118.464 					"/>
				</g>
				
					<line style="fill:none;stroke:#FF5A72;stroke-width:2;stroke-linecap:round;stroke-linejoin:round;stroke-miterlimit:10;" x1="258.029" y1="140.694" x2="280.573" y2="127.593"/>
				<g>
					
						<linearGradient id="SVGID_00000121281201079111446580000013680255806258495114_" gradientUnits="userSpaceOnUse" x1="229.1352" y1="126.9079" x2="321.6351" y2="182.9077">
						<stop  offset="0" style="stop-color:#FFBC2A"/>
						<stop  offset="1" style="stop-color:#F4617E"/>
					</linearGradient>
					<polygon style="fill:url(#SVGID_00000121281201079111446580000013680255806258495114_);" points="253.984,142.042 
						264.125,136.149 264.091,147.98 253.951,153.873 					"/>
					
						<linearGradient id="SVGID_00000130632891846535040750000006955989876195170945_" gradientUnits="userSpaceOnUse" x1="231.6964" y1="122.6775" x2="324.1962" y2="178.6772">
						<stop  offset="0" style="stop-color:#FFE62A"/>
						<stop  offset="1" style="stop-color:#F4617E"/>
					</linearGradient>
					<polygon style="fill:url(#SVGID_00000130632891846535040750000006955989876195170945_);" points="243.692,136.1 
						253.833,130.207 264.125,136.149 253.984,142.042 					"/>
					
						<linearGradient id="SVGID_00000077285498025913464970000005444908098912274577_" gradientUnits="userSpaceOnUse" x1="226.406" y1="131.416" x2="318.9061" y2="187.416">
						<stop  offset="0" style="stop-color:#FFD12A"/>
						<stop  offset="1" style="stop-color:#F4617E"/>
					</linearGradient>
					<polygon style="fill:url(#SVGID_00000077285498025913464970000005444908098912274577_);" points="253.984,142.042 
						253.951,153.873 243.659,147.931 243.692,136.1 					"/>
				</g>
				
					<line style="fill:none;stroke:#FF5A72;stroke-width:2;stroke-linecap:round;stroke-linejoin:round;stroke-miterlimit:10;" x1="254.139" y1="136.149" x2="254.139" y2="128.945"/>
				<g>
					
						<linearGradient id="SVGID_00000146476245082807878780000016549549286976759446_" gradientUnits="userSpaceOnUse" x1="216.0973" y1="95.7484" x2="308.5976" y2="151.7485">
						<stop  offset="0" style="stop-color:#FFAD2A"/>
						<stop  offset="1" style="stop-color:#F4617E"/>
					</linearGradient>
					<polygon style="fill:url(#SVGID_00000146476245082807878780000016549549286976759446_);" points="254.231,118.925 
						264.372,113.033 264.338,124.863 254.198,130.756 					"/>
					
						<linearGradient id="SVGID_00000151539273088341693800000005021809675380124853_" gradientUnits="userSpaceOnUse" x1="218.6585" y1="91.518" x2="311.1588" y2="147.5181">
						<stop  offset="0" style="stop-color:#FFE62A"/>
						<stop  offset="1" style="stop-color:#F4617E"/>
					</linearGradient>
					<polygon style="fill:url(#SVGID_00000151539273088341693800000005021809675380124853_);" points="243.939,112.983 
						254.08,107.09 264.372,113.033 254.231,118.925 					"/>
					
						<linearGradient id="SVGID_00000129198521397416375250000003948377646345325725_" gradientUnits="userSpaceOnUse" x1="213.3681" y1="100.2566" x2="305.8682" y2="156.2565">
						<stop  offset="0" style="stop-color:#FFCD2A"/>
						<stop  offset="1" style="stop-color:#F4617E"/>
					</linearGradient>
					<polygon style="fill:url(#SVGID_00000129198521397416375250000003948377646345325725_);" points="254.231,118.925 
						254.198,130.756 243.906,124.814 243.939,112.983 					"/>
				</g>
			</g>
		</g>
	</g>
	<g>
		<g>
			<path style="fill:#FFFFFF;" d="M307.726,185.336l75.543-43.615c0.733-0.423,1.395-0.463,1.873-0.185l1.41,0.819
				c-0.478-0.278-1.14-0.238-1.873,0.185l-75.543,43.615c-1.456,0.84-2.627,2.869-2.622,4.541l0.15,52.962
				c0.003,0.829,0.295,1.413,0.768,1.688l-1.41-0.819c-0.473-0.274-0.765-0.859-0.768-1.687l-0.15-52.962
				C305.099,188.205,306.27,186.177,307.726,185.336z"/>
			
				<linearGradient id="SVGID_00000092436430938344749090000014851544425872573372_" gradientUnits="userSpaceOnUse" x1="308.3774" y1="177.2028" x2="443.596" y2="235.5006">
				<stop  offset="0" style="stop-color:#FFFFFF"/>
				<stop  offset="0.2266" style="stop-color:#CAD6E9"/>
				<stop  offset="0.603" style="stop-color:#7897C6"/>
				<stop  offset="0.8698" style="stop-color:#446FB0"/>
				<stop  offset="1" style="stop-color:#3060A8"/>
			</linearGradient>
			<path style="fill:url(#SVGID_00000092436430938344749090000014851544425872573372_);" d="M309.135,186.155
				c-1.456,0.84-2.627,2.869-2.622,4.541l0.15,52.962c0.005,1.665,1.183,2.344,2.639,1.504l75.543-43.615
				c1.456-0.84,2.627-2.876,2.622-4.541l-0.15-52.962c-0.005-1.673-1.183-2.344-2.639-1.504L309.135,186.155z"/>
			<g>
				<g>
					<g>
						<path style="fill:#FF5A72;" d="M321.093,189.574c-0.983,0.568-1.78,1.948-1.78,3.083v10.037l3.56-2.055v-10.037
							C322.873,189.466,322.076,189.006,321.093,189.574z"/>
						<path style="fill:#CF2D52;" d="M319.313,210.243c0,1.135,0.797,1.595,1.78,1.028c0.983-0.568,1.78-1.948,1.78-3.083v-7.549
							l-3.56,2.055V210.243z"/>
						<path style="fill:#1A1885;" d="M327.567,187.291c-0.983,0.568-1.78,1.948-1.78,3.083v8.582l3.56-2.696v-8.582
							C329.347,187.184,328.55,186.724,327.567,187.291z"/>
						<path style="fill:#1A1885;" d="M325.787,201.069c0,1.135,0.797,1.595,1.78,1.028c0.983-0.568,1.78-1.948,1.78-3.083v-2.113
							l-3.56,2.055V201.069z"/>
						<path style="fill:#CF2D52;" d="M332.262,200.777c0,1.135,0.797,1.595,1.78,1.028c0.983-0.568,1.78-1.948,1.78-3.083v-5.559
							l-3.56,2.055V200.777z"/>
						<path style="fill:#FF5A72;" d="M334.042,180.108c-0.983,0.567-1.78,1.948-1.78,3.083v12.027l3.56-2.055v-12.027
							C335.822,180,335.025,179.54,334.042,180.108z"/>
						<path style="fill:#1A1885;" d="M338.736,202.866c0,1.135,0.797,2.236,1.78,1.669c0.983-0.568,1.78-1.948,1.78-3.083v-12.027
							l-3.56,2.055V202.866z"/>
						<path style="fill:#1A1885;" d="M340.516,182.838c-0.983,0.567-1.78,1.948-1.78,3.083v5.559l3.56-2.055v-6.2
							C342.296,182.089,341.499,182.27,340.516,182.838z"/>
						<path style="fill:#CF2D52;" d="M345.21,196.747c0,1.135,0.797,1.595,1.78,1.028c0.983-0.568,1.78-1.948,1.78-3.083v-9.005
							l-3.56,2.055V196.747z"/>
						<path style="fill:#FF5A72;" d="M346.99,176.077c-0.983,0.568-1.78,1.948-1.78,3.083v8.582l3.56-2.055v-8.582
							C348.77,175.97,347.974,175.51,346.99,176.077z"/>
						<path style="fill:#1A1885;" d="M351.685,190.558c0,1.135,0.797,1.595,1.78,1.028c0.983-0.567,1.78-2.589,1.78-3.724v-5.913
							l-3.56,2.055V190.558z"/>
						<path style="fill:#1A1885;" d="M353.465,169.889c-0.983,0.568-1.78,1.948-1.78,2.442v11.032l3.56-1.414v-11.033
							C355.245,169.781,354.448,169.321,353.465,169.889z"/>
						<path style="fill:#CF2D52;" d="M358.159,183.063c0,1.135,0.797,1.595,1.78,1.027c0.983-0.568,1.78-1.948,1.78-3.083v-2.797
							l-3.56,2.055V183.063z"/>
						<path style="fill:#FF5A72;" d="M359.939,163.552c-0.983,0.567-1.78,1.947-1.78,3.083v13.632l3.56-2.055v-13.632
							C361.719,163.444,360.922,162.984,359.939,163.552z"/>
						<path style="fill:#1A1885;" d="M366.413,162.413c-0.983,0.567-1.78,1.948-1.78,3.083v11.033l3.56-2.696V162.8
							C368.194,162.305,367.397,161.845,366.413,162.413z"/>
						<path style="fill:#1A1885;" d="M364.634,183.082c0,1.135,0.797,1.595,1.78,1.028c0.983-0.568,1.78-2.589,1.78-3.724v-5.913
							l-3.56,2.055V183.082z"/>
						<path style="fill:#FF5A72;" d="M374.668,165.176c0-1.135-0.797-1.595-1.78-1.028c-0.983,0.568-1.78,1.948-1.78,3.083v5.559
							l3.56-2.055V165.176z"/>
						<path style="fill:#CF2D52;" d="M371.108,172.79v5.559c0,1.135,0.797,1.595,1.78,1.028s1.78-1.948,1.78-3.083v-5.559
							L371.108,172.79z"/>
					</g>
					
						<linearGradient id="SVGID_00000006683866678353760400000006787626678989260935_" gradientUnits="userSpaceOnUse" x1="316.2666" y1="186.9258" x2="377.7144" y2="186.9258">
						<stop  offset="0" style="stop-color:#FFE62A"/>
						<stop  offset="1" style="stop-color:#F42C53"/>
					</linearGradient>
					<polygon style="fill:url(#SVGID_00000006683866678353760400000006787626678989260935_);" points="377.714,169.899 
						316.267,205.376 316.267,203.953 377.714,168.476 					"/>
				</g>
				<g>
					<polyline style="fill:none;stroke:#1A1885;stroke-width:0.6751;stroke-miterlimit:10;" points="316.267,226.757 
						321.093,220.948 335.822,213.955 341.391,206.81 359.939,202.872 372.888,188.626 					"/>
					<path style="fill:#1A1885;" d="M340.516,207.316c0-0.534,0.375-1.184,0.838-1.451c0.463-0.267,0.838-0.051,0.838,0.484
						c0,0.534-0.375,1.184-0.838,1.451C340.891,208.066,340.516,207.85,340.516,207.316z"/>
				</g>
				<g>
					<polyline style="fill:none;stroke:#FF5A72;stroke-width:0.6751;stroke-miterlimit:10;" points="316.267,232.197 
						325.787,216.786 329.347,216.424 334.042,218.791 338.736,211.729 347.921,208.965 358.159,198.096 365.473,201.128 
						368.193,195.447 377.714,185.839 					"/>
					<path style="fill:#1A1885;" d="M324.95,217.27c0-0.534,0.375-1.184,0.838-1.451c0.463-0.267,0.838-0.051,0.838,0.484
						c0,0.534-0.375,1.184-0.838,1.451C325.325,218.021,324.95,217.804,324.95,217.27z"/>
					<path style="fill:#1A1885;" d="M357.322,198.58c0-0.534,0.375-1.184,0.838-1.451c0.463-0.267,0.838-0.051,0.838,0.484
						s-0.375,1.184-0.838,1.451C357.697,199.331,357.322,199.114,357.322,198.58z"/>
					<path style="fill:#1A1885;" d="M364.634,201.613c0-0.534,0.375-1.184,0.838-1.451c0.463-0.267,0.838-0.051,0.838,0.484
						c0,0.534-0.375,1.184-0.838,1.451C365.009,202.363,364.634,202.147,364.634,201.613z"/>
					<path style="fill:#1A1885;" d="M333.204,219.275c0-0.534,0.375-1.184,0.838-1.451c0.463-0.267,0.838-0.051,0.838,0.484
						c0,0.534-0.375,1.184-0.838,1.451C333.579,220.026,333.204,219.809,333.204,219.275z"/>
				</g>
			</g>
		</g>
		<g>
			<g>
				<path style="fill:#FFFFFF;" d="M197.844,174.143l-75.543-43.615c-0.733-0.423-1.395-0.463-1.873-0.185l-1.41,0.819
					c0.478-0.278,1.14-0.238,1.873,0.185l75.543,43.615c1.456,0.84,2.627,2.869,2.622,4.541l-0.15,52.962
					c-0.002,0.829-0.295,1.413-0.768,1.688l1.41-0.819c0.473-0.274,0.765-0.859,0.768-1.687l0.15-52.962
					C200.471,177.012,199.3,174.984,197.844,174.143z"/>
				
					<linearGradient id="SVGID_00000134965609133323226590000013019737313040740996_" gradientUnits="userSpaceOnUse" x1="108.5515" y1="150.4488" x2="254.552" y2="244.4492">
					<stop  offset="0" style="stop-color:#FFFFFF"/>
					<stop  offset="0.2266" style="stop-color:#CAD6E9"/>
					<stop  offset="0.603" style="stop-color:#7897C6"/>
					<stop  offset="0.8698" style="stop-color:#446FB0"/>
					<stop  offset="1" style="stop-color:#3060A8"/>
				</linearGradient>
				<path style="fill:url(#SVGID_00000134965609133323226590000013019737313040740996_);" d="M196.435,174.962
					c1.456,0.84,2.627,2.869,2.622,4.541l-0.15,52.962c-0.005,1.665-1.183,2.344-2.639,1.504l-75.543-43.615
					c-1.456-0.84-2.627-2.876-2.622-4.541l0.15-52.962c0.005-1.673,1.183-2.344,2.639-1.504L196.435,174.962z"/>
			</g>
			<g>
				
					<linearGradient id="SVGID_00000167372612597420181290000002696494380409510835_" gradientUnits="userSpaceOnUse" x1="128.5293" y1="188.1505" x2="188.6299" y2="188.1505">
					<stop  offset="0" style="stop-color:#FF5A72"/>
					<stop  offset="0.2266" style="stop-color:#CA5C80"/>
					<stop  offset="0.603" style="stop-color:#785E95"/>
					<stop  offset="0.8698" style="stop-color:#445FA3"/>
					<stop  offset="1" style="stop-color:#3060A8"/>
				</linearGradient>
				<path style="fill:url(#SVGID_00000167372612597420181290000002696494380409510835_);" d="M181.303,190.464
					c-3.359-0.743-6.312-0.086-9.563-0.421c-3.252-0.334-7.187-1.983-10.132-5.901c-2.86-3.805-4.377-9.191-7.708-11.981
					c-3.896-3.264-7.208-0.5-11.167-2.174c-2.004-0.848-4.005-2.768-5.909-4.654c-1.904-1.886-5.024-5.885-7.039-7.238
					c-0.443-0.297-0.857-0.529-1.257-0.731v26.872l60.101,34.699v-24.892C186.182,192.241,183.665,190.986,181.303,190.464z"/>
				
					<linearGradient id="SVGID_00000109713513454521577950000014443773554000927393_" gradientUnits="userSpaceOnUse" x1="705.2195" y1="-2622.7117" x2="774.6198" y2="-2622.7117" gradientTransform="matrix(0.866 0.5 0 1.1547 -482.1908 2850.9153)">
					<stop  offset="0" style="stop-color:#02007D"/>
					<stop  offset="0.2291" style="stop-color:#0E1988"/>
					<stop  offset="0.7461" style="stop-color:#264C9F"/>
					<stop  offset="1" style="stop-color:#3060A8"/>
				</linearGradient>
				<path style="fill:url(#SVGID_00000109713513454521577950000014443773554000927393_);" d="M176.568,198.658
					c-3.987-1.561-7.319-0.225-11.253-1.442c-4.89-1.513-9.941-6.689-14.409-11.91s-8.911-10.922-13.903-14.412
					c-2.916-2.039-6.094-3.021-8.473-2.508v15.852l60.101,34.699V208.52C184.717,204.61,180.672,200.265,176.568,198.658z"/>
				<g>
					
						<line style="fill:none;stroke:#FF5A72;stroke-width:0.3375;stroke-linecap:round;stroke-linejoin:round;stroke-miterlimit:10;" x1="136.277" y1="151.534" x2="136.277" y2="188.71"/>
					
						<line style="fill:none;stroke:#FF5A72;stroke-width:0.3375;stroke-linecap:round;stroke-linejoin:round;stroke-miterlimit:10;" x1="145.073" y1="156.611" x2="145.073" y2="193.788"/>
					
						<line style="fill:none;stroke:#FF5A72;stroke-width:0.3375;stroke-linecap:round;stroke-linejoin:round;stroke-miterlimit:10;" x1="153.868" y1="161.689" x2="153.868" y2="198.866"/>
					
						<line style="fill:none;stroke:#FF5A72;stroke-width:0.3375;stroke-linecap:round;stroke-linejoin:round;stroke-miterlimit:10;" x1="162.663" y1="166.767" x2="162.663" y2="203.944"/>
					
						<line style="fill:none;stroke:#FF5A72;stroke-width:0.3375;stroke-linecap:round;stroke-linejoin:round;stroke-miterlimit:10;" x1="171.458" y1="171.845" x2="171.458" y2="209.022"/>
					
						<line style="fill:none;stroke:#FF5A72;stroke-width:0.3375;stroke-linecap:round;stroke-linejoin:round;stroke-miterlimit:10;" x1="180.253" y1="176.923" x2="180.253" y2="214.1"/>
				</g>
			</g>
		</g>
		<g>
			<g>
				
					<line style="fill:none;stroke:#FAB08B;stroke-width:2.9816;stroke-linecap:round;stroke-linejoin:round;stroke-miterlimit:10;" x1="110.664" y1="193.558" x2="110.664" y2="196.419"/>
			</g>
			<g>
				
					<path style="fill:none;stroke:#FFFFFF;stroke-width:2.9816;stroke-linecap:round;stroke-linejoin:round;stroke-miterlimit:10;" d="
					M108.059,197.514c0,0-4.53,3.4-5.152,7.059c-0.549,3.23,0.967,5.221,4.436,8.943"/>
				<path style="fill:#FAB08B;" d="M111.446,216.166L111.446,216.166c-0.304,0.445-0.887,0.604-1.375,0.373l-1.919-0.906
					c-0.8-0.378-1.072-1.381-0.573-2.111l0,0c0.499-0.73,1.533-0.841,2.175-0.233l1.541,1.459
					C111.686,215.12,111.751,215.721,111.446,216.166z"/>
			</g>
			<path style="fill:#070D30;" d="M111.854,251.801c0,0,1.011,0.996,1.675,0.83c0.993-0.248,4.761-1.317,5.995-2.832
				c1.234-1.515-0.149-1.96-1.27-1.685c-3.15,0.771-4.228,1.206-5.328,1.51C111.895,249.909,111.431,251.172,111.854,251.801z"/>
			<path style="fill:#070D30;" d="M106.485,248.826c0,0,1.01,0.996,1.675,0.83c0.993-0.248,4.761-1.317,5.995-2.832
				c1.234-1.515-0.149-1.96-1.27-1.685c-3.15,0.771-4.228,1.206-5.328,1.51C106.526,246.933,106.063,248.197,106.485,248.826z"/>
			
				<line style="fill:none;stroke:#D6E9F4;stroke-width:2.0854;stroke-linecap:round;stroke-linejoin:round;stroke-miterlimit:10;" x1="113.391" y1="250.039" x2="114.253" y2="244.697"/>
			
				<line style="fill:none;stroke:#D6E9F4;stroke-width:2.0854;stroke-linecap:round;stroke-linejoin:round;stroke-miterlimit:10;" x1="108.211" y1="246.856" x2="109.491" y2="241.599"/>
			<g>
				<path style="fill:#1A1885;" d="M106.708,215.098c2.112-0.026,6.657,0.916,9.058,1.251c0.875,1.661,1.2,3.438,0.808,5.17
					c0.762,4.104,0.704,6.709,0.737,11.211c0.033,4.502-0.681,10.498-1.602,15.199c-0.171,0.875-0.625,1.086-1.355,1.115
					c-0.287,0.011-0.742-0.061-0.999-0.132c-0.656-0.18-1.172-0.559-0.999-1.392c0.939-4.536,1.778-10.458,1.617-14.756
					c-0.161-4.298-0.356-6.476-1.264-10.296c-0.568-0.142-1.132-0.32-1.724-0.581c0.502,3.25,0.381,4.67,0.51,8.376
					c0.129,3.706,0.13,10.874-0.84,14.925c-0.224,0.936-0.737,1.303-1.583,1.383c-0.135,0.012-0.338,0.001-0.455-0.032
					c-1.197-0.4-1.369-1.369-1.197-2.311c0.758-4.138,0.978-9.822,0.776-13.817C107.994,226.416,104.754,215.122,106.708,215.098z"
					/>
			</g>
			<path style="fill:#FF5A72;" d="M105.188,215.459c-0.017,0.882,0.413,1.708,1.146,2.202c1.721,1.159,4.583,2.671,6.159,2.892
				c3.816,0.541,4.132-1.959,4.132-1.959s-0.11-14.967-0.649-18.069c-0.288-1.654-1.574-2.491-2.924-3.377
				c-0.17-0.111-0.332-0.217-0.486-0.311c-1.018-0.63-2.185-1.01-3.382-1.001c-0.324,0.004-0.613,0.03-0.877,0.085
				c-1.35,0.251-1.938,1.065-2.385,1.717c-0.281,0.409-0.439,0.894-0.447,1.393L105.188,215.459z"/>
			<g>
				<path style="fill:#FAB08B;" d="M115.668,189.143c0.865,2.477,0.103,5.319-1.823,5.992c-0.282,0.098-0.572,0.146-0.866,0.144
					c-1.366,0.003-2.803-0.997-3.71-2.471c-0.232-0.379-0.43-0.793-0.582-1.227c-0.021-0.06-0.042-0.121-0.058-0.178
					c-0.041-0.13-0.078-0.262-0.109-0.39c-0.377-1.556-0.036-2.983,0.801-3.921c0.269-0.302,0.588-0.553,0.95-0.742
					c0.142-0.072,0.286-0.136,0.439-0.189c1.488-0.52,3.122,0.064,4.184,1.503C115.208,188.085,115.471,188.58,115.668,189.143z"/>
				<path style="fill:#070D30;" d="M108.305,187.488c1.544-4.336,5.628-2.455,6.656-0.369c0.196,0.397,0.018,0.72-0.383,0.931
					c-0.1,0.424-0.287,0.919-0.643,1.113c-0.67,0.366,0.843,1.302,0.421,1.717c-0.421,0.415-0.927-0.466-1.458,0
					c-0.704,0.619,0.921,1.578,0.102,2.004c-0.819,0.427-1.453,2.313-3.372,1.905c-1.919-0.408-2.458-2.868-2.641-4.4
					C106.805,188.859,107.733,187.824,108.305,187.488z"/>
				<path style="fill:#FAB08B;" d="M114.356,191.358c0.239,0.595,0.084,1.296-0.379,1.482c-0.463,0.185-1.059-0.215-1.297-0.81
					c-0.238-0.595-0.029-1.159,0.434-1.345C113.577,190.499,114.118,190.763,114.356,191.358z"/>
			</g>
			<g>
				
					<path style="fill:none;stroke:#FFFFFF;stroke-width:2.9816;stroke-linecap:round;stroke-linejoin:round;stroke-miterlimit:10;" d="
					M114.691,201.143c0,0,4.574,3.34,8.256,2.867c3.25-0.417,4.712-2.449,7.259-6.853"/>
				<path style="fill:#FAB08B;" d="M131.542,192.459L131.542,192.459c0.515,0.161,0.836,0.672,0.759,1.206l-0.306,2.1
					c-0.128,0.875-1.008,1.428-1.852,1.164l0,0c-0.844-0.264-1.252-1.22-0.857-2.012l0.946-1.9
					C130.471,192.534,131.027,192.298,131.542,192.459z"/>
			</g>
		</g>
		<g>
			<g>
				
					<line style="fill:none;stroke:#FAB08B;stroke-width:2.9816;stroke-linecap:round;stroke-linejoin:round;stroke-miterlimit:10;" x1="402.726" y1="188.663" x2="402.726" y2="191.524"/>
			</g>
			<g>
				
					<path style="fill:none;stroke:#FFFFFF;stroke-width:2.9816;stroke-linecap:round;stroke-linejoin:round;stroke-miterlimit:10;" d="
					M405.331,192.618c0,0,4.53,3.4,5.152,7.059c0.549,3.23-0.967,5.221-4.436,8.943"/>
				<path style="fill:#FAB08B;" d="M401.944,211.271L401.944,211.271c0.304,0.445,0.887,0.604,1.375,0.374l1.919-0.906
					c0.8-0.377,1.072-1.381,0.573-2.111v0c-0.499-0.73-1.533-0.841-2.175-0.233l-1.541,1.459
					C401.703,210.225,401.639,210.826,401.944,211.271z"/>
			</g>
			<path style="fill:#070D30;" d="M401.536,246.906c0,0-1.01,0.996-1.675,0.83c-0.993-0.248-4.761-1.317-5.995-2.832
				c-1.234-1.515,0.15-1.96,1.27-1.685c3.15,0.771,4.228,1.206,5.328,1.51C401.495,245.014,401.958,246.277,401.536,246.906z"/>
			<path style="fill:#070D30;" d="M406.905,243.931c0,0-1.01,0.996-1.675,0.83c-0.993-0.248-4.761-1.317-5.995-2.832
				c-1.234-1.515,0.15-1.96,1.27-1.685c3.15,0.771,4.228,1.206,5.328,1.51C406.864,242.038,407.327,243.301,406.905,243.931z"/>
			
				<line style="fill:none;stroke:#D6E9F4;stroke-width:2.0854;stroke-linecap:round;stroke-linejoin:round;stroke-miterlimit:10;" x1="399.999" y1="245.144" x2="399.137" y2="239.802"/>
			
				<line style="fill:none;stroke:#D6E9F4;stroke-width:2.0854;stroke-linecap:round;stroke-linejoin:round;stroke-miterlimit:10;" x1="405.178" y1="241.961" x2="403.899" y2="236.704"/>
			<g>
				<path style="fill:#1A1885;" d="M406.681,210.203c-2.112-0.026-6.657,0.916-9.059,1.251c-0.875,1.661-1.2,3.439-0.808,5.17
					c-0.762,4.104-0.704,6.709-0.736,11.211c-0.033,4.502,0.681,10.498,1.602,15.199c0.171,0.875,0.625,1.086,1.355,1.115
					c0.287,0.011,0.742-0.061,0.999-0.132c0.656-0.18,1.172-0.559,0.999-1.392c-0.939-4.536-1.778-10.458-1.617-14.755
					c0.161-4.298,0.356-6.476,1.264-10.296c0.568-0.142,1.133-0.32,1.724-0.581c-0.502,3.25-0.381,4.67-0.51,8.376
					c-0.13,3.706-0.13,10.874,0.84,14.925c0.224,0.936,0.737,1.303,1.583,1.382c0.135,0.012,0.339,0.001,0.455-0.032
					c1.197-0.4,1.37-1.369,1.197-2.311c-0.758-4.138-0.978-9.822-0.776-13.817C405.396,221.521,408.636,210.227,406.681,210.203z"/>
			</g>
			<path style="fill:#FF5A72;" d="M408.201,210.564c0.017,0.882-0.413,1.708-1.146,2.202c-1.721,1.158-4.583,2.671-6.159,2.892
				c-3.816,0.541-4.132-1.959-4.132-1.959s0.11-14.967,0.649-18.069c0.288-1.654,1.574-2.491,2.924-3.377
				c0.17-0.111,0.332-0.217,0.486-0.311c1.018-0.63,2.185-1.009,3.382-1.001c0.324,0.004,0.613,0.03,0.878,0.085
				c1.35,0.251,1.938,1.065,2.385,1.717c0.281,0.409,0.439,0.895,0.447,1.393L408.201,210.564z"/>
			<g>
				<path style="fill:#FAB08B;" d="M397.722,184.248c-0.865,2.477-0.103,5.32,1.823,5.992c0.281,0.098,0.572,0.146,0.865,0.144
					c1.366,0.003,2.803-0.997,3.71-2.471c0.232-0.379,0.43-0.793,0.582-1.227c0.021-0.06,0.042-0.121,0.058-0.178
					c0.041-0.13,0.078-0.262,0.109-0.39c0.377-1.556,0.036-2.983-0.801-3.921c-0.269-0.301-0.587-0.553-0.95-0.742
					c-0.142-0.072-0.286-0.136-0.439-0.189c-1.488-0.52-3.122,0.064-4.184,1.503C398.182,183.19,397.919,183.685,397.722,184.248z"
					/>
				<path style="fill:#070D30;" d="M405.085,182.593c-1.544-4.336-5.628-2.455-6.656-0.369c-0.196,0.397-0.018,0.72,0.383,0.931
					c0.1,0.424,0.287,0.919,0.643,1.113c0.67,0.366-0.843,1.302-0.421,1.717c0.421,0.416,0.927-0.466,1.458,0
					c0.704,0.619-0.921,1.578-0.102,2.004c0.819,0.427,1.453,2.313,3.372,1.905c1.919-0.408,2.458-2.868,2.641-4.399
					C406.585,183.964,405.657,182.929,405.085,182.593z"/>
				<path style="fill:#FAB08B;" d="M399.034,186.463c-0.238,0.595-0.084,1.296,0.379,1.482c0.463,0.186,1.059-0.215,1.297-0.81
					c0.238-0.595,0.029-1.159-0.434-1.345C399.813,185.604,399.272,185.868,399.034,186.463z"/>
			</g>
			<g>
				<path style="fill:#FAB08B;" d="M394.241,214.669L394.241,214.669c-0.432-0.323-0.566-0.911-0.316-1.389l0.984-1.88
					c0.41-0.783,1.424-1.014,2.133-0.486l0,0c0.709,0.529,0.777,1.566,0.143,2.183l-1.522,1.48
					C395.276,214.952,394.673,214.992,394.241,214.669z"/>
				
					<path style="fill:none;stroke:#FFFFFF;stroke-width:2.9816;stroke-linecap:round;stroke-linejoin:round;stroke-miterlimit:10;" d="
					M399.42,194.94c0,0-5.134,2.392-6.498,5.844c-1.204,3.048-0.131,5.309,2.495,9.666"/>
			</g>
		</g>
		<g>
			<polygon style="fill:#070D30;" points="139.63,227.317 143.899,224.836 143.885,229.817 139.616,232.298 			"/>
			<polygon style="fill:#1A1885;" points="135.296,224.815 139.566,222.334 143.899,224.836 139.63,227.317 			"/>
			<polygon style="fill:#111057;" points="139.63,227.317 139.616,232.298 135.282,229.796 135.296,224.815 			"/>
		</g>
		<g>
			<polygon style="fill:#070D30;" points="149.38,233.54 153.649,231.059 153.635,236.04 149.366,238.521 			"/>
			<polygon style="fill:#1A1885;" points="145.046,231.038 149.316,228.557 153.649,231.059 149.38,233.54 			"/>
			<polygon style="fill:#111057;" points="149.38,233.54 149.366,238.521 145.032,236.019 145.046,231.038 			"/>
		</g>
		<g>
			<polygon style="fill:#070D30;" points="159.961,239.308 164.231,236.827 164.216,241.808 159.947,244.289 			"/>
			<polygon style="fill:#1A1885;" points="155.627,236.806 159.897,234.325 164.231,236.827 159.961,239.308 			"/>
			<polygon style="fill:#111057;" points="159.961,239.308 159.947,244.289 155.613,241.787 155.627,236.806 			"/>
		</g>
		<g>
			<g>
				
					<linearGradient id="SVGID_00000164503159793171282620000013622505000402499480_" gradientUnits="userSpaceOnUse" x1="332.1663" y1="256.592" x2="378.3234" y2="256.592">
					<stop  offset="0" style="stop-color:#66D2FE"/>
					<stop  offset="0.4283" style="stop-color:#4792C3"/>
					<stop  offset="0.8125" style="stop-color:#2F5E94"/>
					<stop  offset="1" style="stop-color:#254A82"/>
				</linearGradient>
				<path style="fill:url(#SVGID_00000164503159793171282620000013622505000402499480_);" d="M377.245,246.969l-27.986,16.264
					c-1.447,0.841-3.799,0.841-5.255,0l-10.73-6.195c-0.733-0.423-1.099-0.978-1.097-1.532l-0.011,3.862
					c-0.002,0.554,0.365,1.109,1.097,1.532l10.729,6.195c1.456,0.841,3.808,0.841,5.255,0l27.986-16.264
					c0.717-0.417,1.077-0.963,1.078-1.511l0.011-3.862C378.322,246.006,377.962,246.553,377.245,246.969z"/>
				
					<linearGradient id="SVGID_00000055683044057542708610000000147156129668697749_" gradientUnits="userSpaceOnUse" x1="341.3414" y1="241.6728" x2="401.3415" y2="279.6729">
					<stop  offset="0" style="stop-color:#FFFFFF"/>
					<stop  offset="0.2266" style="stop-color:#CAD6E9"/>
					<stop  offset="0.603" style="stop-color:#7897C6"/>
					<stop  offset="0.8698" style="stop-color:#446FB0"/>
					<stop  offset="1" style="stop-color:#3060A8"/>
				</linearGradient>
				<path style="fill:url(#SVGID_00000055683044057542708610000000147156129668697749_);" d="M377.228,243.926
					c1.456,0.841,1.46,2.205,0.017,3.044l-27.986,16.264c-1.447,0.841-3.799,0.841-5.255,0l-10.729-6.195
					c-1.456-0.841-1.464-2.203-0.017-3.044l27.986-16.264c1.442-0.838,3.798-0.841,5.254,0L377.228,243.926z"/>
			</g>
			<g>
				<path style="fill:#1A1885;" d="M345.74,258.398c-0.435-0.251-0.435-0.658,0-0.909c0.435-0.251,1.14-0.251,1.575,0
					c0.435,0.251,0.435,0.658,0,0.909C346.88,258.65,346.175,258.65,345.74,258.398z"/>
				<path style="fill:#FFB06D;" d="M350.648,255.565c-0.435-0.251-0.435-0.658,0-0.91s1.14-0.251,1.575,0s0.435,0.658,0,0.91
					C351.788,255.816,351.083,255.816,350.648,255.565z"/>
				<path style="fill:#1A1885;" d="M355.556,252.731c-0.435-0.251-0.435-0.658,0-0.91c0.435-0.251,1.14-0.251,1.575,0
					c0.435,0.251,0.435,0.658,0,0.91C356.696,252.982,355.991,252.982,355.556,252.731z"/>
				<path style="fill:#FF5A72;" d="M360.464,249.898c-0.435-0.251-0.435-0.658,0-0.909c0.435-0.251,1.14-0.251,1.575,0
					c0.435,0.251,0.435,0.658,0,0.909C361.604,250.149,360.899,250.149,360.464,249.898z"/>
			</g>
		</g>
		<g>
			<g>
				<polygon style="fill:#56A6C7;" points="290.083,174.869 297.747,170.415 297.722,190.178 290.057,194.632 				"/>
				<polygon style="fill:#B5E9FE;" points="282.304,170.378 289.968,165.924 297.747,170.415 290.083,174.869 				"/>
				<polygon style="fill:#82D7FA;" points="290.083,174.869 290.057,194.632 282.278,190.141 282.304,170.378 				"/>
			</g>
		</g>
		<g>
			<g>
				
					<path style="fill:none;stroke:#FFFFFF;stroke-width:2.9816;stroke-linecap:round;stroke-linejoin:round;stroke-miterlimit:10;" d="
					M241.987,336.562c0,0,4.762,3.065,8.41,2.377c3.22-0.608,4.56-2.722,6.843-7.268"/>
				<path style="fill:#FAB08B;" d="M258.299,326.901L258.299,326.901c0.523,0.131,0.874,0.622,0.828,1.16l-0.182,2.115
					c-0.076,0.881-0.922,1.485-1.78,1.271l0,0c-0.858-0.214-1.321-1.145-0.974-1.958l0.832-1.952
					C257.234,327.04,257.775,326.771,258.299,326.901z"/>
			</g>
			<g>
				<path style="fill:#070D30;" d="M235.165,388.31c0,0-0.481,1.342-0.025,1.869c0.681,0.788,3.385,3.724,5.367,4.181
					c1.981,0.457,1.775-0.982,1.013-1.873c-2.146-2.507-3.041-3.291-3.823-4.152C236.963,387.529,235.566,387.657,235.165,388.31z"
					/>
				
					<line style="fill:none;stroke:#D6E9F4;stroke-width:2.1297;stroke-linecap:round;stroke-linejoin:round;stroke-miterlimit:10;" x1="236.666" y1="388.563" x2="236.902" y2="383.157"/>
				<path style="fill:#070D30;" d="M241.714,386.405c0,0-0.509,1.443,0.093,1.657c0.9,0.32,4.553,1.059,6.652,0.98
					c1.863-0.07,0.971-1.587-0.04-1.952c-2.846-1.028-3.914-1.248-4.927-1.58C242.542,385.199,241.739,385.703,241.714,386.405z"/>
				
					<line style="fill:none;stroke:#D6E9F4;stroke-width:2.1297;stroke-linecap:round;stroke-linejoin:round;stroke-miterlimit:10;" x1="242.885" y1="385.423" x2="243.085" y2="380.015"/>
				<path style="fill:#1A1885;" d="M244.777,358.305c0.108-0.166,0.174-0.329,0.183-0.488c0.086-1.431,0.481-4.298-0.486-4.589
					c-0.967-0.29-9.705,2.584-9.705,2.584s-1.151,3.253,0.249,5.278l0.786,11.173l-0.751,14.48
					c-0.035,0.674,0.483,1.249,1.157,1.284l1.058,0.055c0.674,0.035,1.249-0.483,1.284-1.157l0.762-14.693v-10.625
					c0.498-0.243,1.087-0.519,1.694-0.815l1.041,8.673l-0.737,14.214c-0.042,0.821,0.589,1.521,1.41,1.564l0.526,0.027
					c0.821,0.043,1.521-0.589,1.564-1.41l0.748-14.427L244.777,358.305z"/>
			</g>
			<g>
				<path style="fill:#FF5A72;" d="M245.112,353.974c0.017,0.882-0.413,1.708-1.146,2.202c-1.721,1.159-4.583,2.671-6.159,2.892
					c-3.816,0.541-4.132-1.959-4.132-1.959s0.11-14.967,0.649-18.069c0.288-1.654,1.574-2.491,2.924-3.377
					c0.17-0.111,0.332-0.217,0.486-0.311c1.018-0.63,2.185-1.01,3.382-1.001c0.324,0.004,0.613,0.03,0.877,0.085
					c1.35,0.251,1.938,1.065,2.385,1.716c0.281,0.409,0.439,0.895,0.447,1.393L245.112,353.974z"/>
				<g>
					<path style="fill:#98E1ED;" d="M237.807,334.706c0,0,0-0.355,1.704-0.541l0.126,1.709l-1.696-0.218L237.807,334.706z"/>
					
						<line style="fill:none;stroke:#FAB08B;stroke-width:2.9816;stroke-linecap:round;stroke-linejoin:round;stroke-miterlimit:10;" x1="239.637" y1="332.073" x2="239.637" y2="334.933"/>
					<g>
						<path style="fill:#FFFFFF;" d="M237.807,334.706l-0.16,1.509c0,0,0.666,1.491,1.038,2.023l1.544-2.156
							C240.23,336.081,239.351,335.939,237.807,334.706z"/>
						<path style="fill:#FFFFFF;" d="M241.179,335.132c0,0-0.337,0.745-1.056,0.949l1.81,1.038c0,0-0.062-1.863-0.311-2.538
							C241.623,334.581,241.41,334.351,241.179,335.132z"/>
					</g>
				</g>
			</g>
			<g>
				<g>
					
						<linearGradient id="SVGID_00000122721733913193504710000004032231412585930665_" gradientUnits="userSpaceOnUse" x1="262.4609" y1="354.7507" x2="354.9608" y2="410.7505">
						<stop  offset="0" style="stop-color:#FFBC2A"/>
						<stop  offset="1" style="stop-color:#F4617E"/>
					</linearGradient>
					<polygon style="fill:url(#SVGID_00000122721733913193504710000004032231412585930665_);" points="287.31,369.885 
						297.451,363.992 297.417,375.823 287.277,381.716 					"/>
					
						<linearGradient id="SVGID_00000071536728262349721090000016028248902904056735_" gradientUnits="userSpaceOnUse" x1="265.022" y1="350.5202" x2="357.5221" y2="406.5201">
						<stop  offset="0" style="stop-color:#FFE62A"/>
						<stop  offset="1" style="stop-color:#F4617E"/>
					</linearGradient>
					<polygon style="fill:url(#SVGID_00000071536728262349721090000016028248902904056735_);" points="277.018,363.943 
						287.158,358.05 297.451,363.992 287.31,369.885 					"/>
					
						<linearGradient id="SVGID_00000060730533775972777050000006233099411644826777_" gradientUnits="userSpaceOnUse" x1="259.7317" y1="359.2588" x2="352.2315" y2="415.2586">
						<stop  offset="0" style="stop-color:#FFD12A"/>
						<stop  offset="1" style="stop-color:#F4617E"/>
					</linearGradient>
					<polygon style="fill:url(#SVGID_00000060730533775972777050000006233099411644826777_);" points="287.31,369.885 
						287.277,381.716 276.984,375.773 277.018,363.943 					"/>
				</g>
				
					<line style="fill:none;stroke:#FF5A72;stroke-width:2;stroke-linecap:round;stroke-linejoin:round;stroke-miterlimit:10;" x1="259.607" y1="385.928" x2="282.151" y2="372.827"/>
				<g>
					
						<linearGradient id="SVGID_00000176009609736863353960000014511175001652343175_" gradientUnits="userSpaceOnUse" x1="196.9346" y1="354.0988" x2="289.4344" y2="410.0986">
						<stop  offset="0" style="stop-color:#FFE62A"/>
						<stop  offset="1" style="stop-color:#F42C53"/>
					</linearGradient>
					<polygon style="fill:url(#SVGID_00000176009609736863353960000014511175001652343175_);" points="254.516,389.05 
						264.657,383.157 264.623,394.987 254.483,400.88 					"/>
					
						<linearGradient id="SVGID_00000121960947013884096000000002841457533611663267_" gradientUnits="userSpaceOnUse" x1="199.4957" y1="349.8682" x2="291.9958" y2="405.8681">
						<stop  offset="0" style="stop-color:#FFE62A"/>
						<stop  offset="1" style="stop-color:#F4617E"/>
					</linearGradient>
					<polygon style="fill:url(#SVGID_00000121960947013884096000000002841457533611663267_);" points="244.224,383.108 
						254.365,377.215 264.657,383.157 254.516,389.05 					"/>
					
						<linearGradient id="SVGID_00000127004713815661956440000016029238977321266850_" gradientUnits="userSpaceOnUse" x1="194.2052" y1="358.6068" x2="286.7051" y2="414.6067">
						<stop  offset="0" style="stop-color:#FFB82A"/>
						<stop  offset="1" style="stop-color:#F4617E"/>
					</linearGradient>
					<polygon style="fill:url(#SVGID_00000127004713815661956440000016029238977321266850_);" points="254.516,389.05 
						254.483,400.88 244.191,394.938 244.224,383.108 					"/>
				</g>
				
					<line style="fill:none;stroke:#FF5A72;stroke-width:2;stroke-linecap:round;stroke-linejoin:round;stroke-miterlimit:10;" x1="254.906" y1="383.157" x2="254.906" y2="352.966"/>
				<g>
					
						<linearGradient id="SVGID_00000087410322109951786300000017108310087804798129_" gradientUnits="userSpaceOnUse" x1="216.865" y1="319.7698" x2="309.3648" y2="375.7696">
						<stop  offset="0" style="stop-color:#FFAD2A"/>
						<stop  offset="1" style="stop-color:#F4617E"/>
					</linearGradient>
					<polygon style="fill:url(#SVGID_00000087410322109951786300000017108310087804798129_);" points="254.999,342.947 
						265.139,337.054 265.106,348.884 254.965,354.777 					"/>
					
						<linearGradient id="SVGID_00000057869475523716944930000013526187283752565645_" gradientUnits="userSpaceOnUse" x1="219.4261" y1="315.5392" x2="311.9261" y2="371.5392">
						<stop  offset="0" style="stop-color:#FFE62A"/>
						<stop  offset="1" style="stop-color:#F4617E"/>
					</linearGradient>
					<polygon style="fill:url(#SVGID_00000057869475523716944930000013526187283752565645_);" points="244.707,337.004 
						254.847,331.112 265.139,337.054 254.999,342.947 					"/>
					
						<linearGradient id="SVGID_00000149367965360126094540000010814548183043251846_" gradientUnits="userSpaceOnUse" x1="214.1356" y1="324.2778" x2="306.6355" y2="380.2776">
						<stop  offset="0" style="stop-color:#FFB82A"/>
						<stop  offset="1" style="stop-color:#F4617E"/>
					</linearGradient>
					<polygon style="fill:url(#SVGID_00000149367965360126094540000010814548183043251846_);" points="254.999,342.947 
						254.965,354.777 244.673,348.835 244.707,337.004 					"/>
				</g>
			</g>
			<g>
				<polygon style="fill:#070D30;" points="254.945,333.865 259.215,331.384 259.201,336.365 254.931,338.847 				"/>
				<polygon style="fill:#1A1885;" points="250.611,331.363 254.881,328.882 259.215,331.384 254.945,333.865 				"/>
				<polygon style="fill:#111057;" points="254.945,333.865 254.931,338.847 250.597,336.345 250.611,331.363 				"/>
			</g>
			<g>
				<path style="fill:#FAB08B;" d="M243.946,328.272c0.857,2.48,0.085,5.32-1.844,5.986c-0.282,0.097-0.572,0.144-0.866,0.141
					c-1.366-0.001-2.799-1.007-3.702-2.484c-0.23-0.38-0.428-0.794-0.578-1.229c-0.021-0.06-0.042-0.121-0.057-0.178
					c-0.04-0.13-0.077-0.262-0.108-0.391c-0.371-1.557-0.026-2.983,0.814-3.918c0.27-0.301,0.589-0.551,0.952-0.739
					c0.142-0.072,0.287-0.135,0.44-0.188c1.49-0.515,3.122,0.075,4.179,1.517C243.49,327.213,243.752,327.708,243.946,328.272z"/>
				<path style="fill:#070D30;" d="M243.247,326.246c-1.02-2.089-5.099-3.984-6.658,0.346c0,0-2.337,2.227,0.368,4.094
					c0,0,0.646,1.452,1.296,0.721c0.648-0.731-0.633-2.485-0.621-2.94c0.004-0.18,0.133-0.478,0.397-0.746
					c0.281,0.243,0.762,0.493,1.608,0.581c0.999,0.103,1.115-0.448,0.979-0.985C242.37,327.653,243.672,327.118,243.247,326.246z"/>
				<path style="fill:#FAB08B;" d="M237.631,330.53c0.454,0.453,0.589,1.158,0.236,1.511c-0.352,0.353-1.058,0.22-1.512-0.233
					c-0.454-0.453-0.484-1.054-0.132-1.407C236.576,330.048,237.177,330.077,237.631,330.53z"/>
			</g>
			<g>
				
					<path style="fill:none;stroke:#FFFFFF;stroke-width:2.9816;stroke-linecap:round;stroke-linejoin:round;stroke-miterlimit:10;" d="
					M235.409,339.987c0,0-0.459,5.645,1.867,8.538c2.054,2.553,4.549,2.739,9.635,2.61"/>
				<path style="fill:#FAB08B;" d="M251.616,349.82L251.616,349.82c0.132,0.523-0.137,1.064-0.632,1.277l-1.951,0.836
					c-0.813,0.348-1.744-0.113-1.96-0.971l0,0c-0.216-0.858,0.387-1.705,1.268-1.782l2.114-0.186
					C250.993,348.947,251.485,349.297,251.616,349.82z"/>
			</g>
		</g>
	</g>
</g>
<g id="DESIGNED_BY_FREEPIK">
	<g>
		<g id="XMLID_319_">
			<g id="XMLID_338_">
				<path id="XMLID_346_" style="fill:#F9FBFC;" d="M260.104,465.465c-0.432,0.443-0.803,0.931-1.108,1.453l-0.465-0.241
					c-0.067-0.298-0.349-0.503-0.659-0.466c-0.331,0.039-0.568,0.339-0.529,0.67c0.039,0.331,0.339,0.568,0.67,0.529
					c0.065-0.008,0.127-0.026,0.183-0.052l0.452,0.234c-0.251,0.554-0.433,1.139-0.539,1.744l0.747,0.132
					c0.23-1.306,0.85-2.507,1.792-3.473L260.104,465.465z"/>
				<path id="XMLID_345_" style="fill:#F9FBFC;" d="M265.592,463.163c-0.171,0-0.341,0.006-0.51,0.017l-0.074-0.626
					c0.188-0.149,0.296-0.389,0.266-0.645c-0.046-0.393-0.402-0.674-0.795-0.628c-0.393,0.046-0.674,0.402-0.628,0.795
					c0.03,0.254,0.189,0.461,0.405,0.564l0.073,0.624c-0.714,0.116-1.403,0.332-2.06,0.646l0.327,0.684
					c0.934-0.447,1.942-0.673,2.995-0.673c0.496,0,0.993,0.053,1.475,0.158l0.161-0.741
					C266.692,463.222,266.142,463.163,265.592,463.163z"/>
				<path id="XMLID_344_" style="fill:#F9FBFC;" d="M272.194,465.711c0.331-0.04,0.566-0.341,0.526-0.672
					c-0.04-0.331-0.341-0.566-0.672-0.526c-0.309,0.038-0.535,0.304-0.53,0.609l-0.416,0.363c-0.418-0.43-0.89-0.813-1.408-1.139
					l-0.404,0.641c1.134,0.715,2.021,1.726,2.563,2.925l0.691-0.313c-0.251-0.554-0.568-1.072-0.942-1.545l0.402-0.351
					C272.065,465.716,272.129,465.719,272.194,465.711z"/>
				<path id="XMLID_343_" style="fill:#F9FBFC;" d="M265.044,473.372c-0.386,0.023-0.775,0.035-1.157,0.035
					c-0.88,0-1.733-0.061-2.478-0.179c-0.39-0.062-0.846-0.155-1.27-0.292c1.046,1.861,3.069,3.125,5.388,3.125
					c2.855,0,5.262-1.916,5.95-4.504c-0.682,0.449-1.505,0.825-2.459,1.123C267.839,473.047,266.464,473.286,265.044,473.372z"/>
				<path id="XMLID_339_" style="fill:#F9FBFC;" d="M265.592,464.68c-3.352,0-6.08,2.666-6.08,5.943
					c0,0.426,0.046,0.849,0.137,1.261c0.673,0.483,2.706,0.89,5.348,0.731c2.879-0.173,5.297-0.957,6.672-2.159
					c-0.005-0.195-0.021-0.39-0.045-0.582C271.244,466.913,268.65,464.68,265.592,464.68z M263.432,471.194
					c-1.02,0-1.85-0.83-1.85-1.85c0-1.02,0.83-1.85,1.85-1.85c1.02,0,1.85,0.83,1.85,1.85
					C265.282,470.365,264.452,471.194,263.432,471.194z M268.17,470.286c-0.75,0-1.36-0.61-1.36-1.36s0.61-1.361,1.36-1.361
					c0.75,0,1.361,0.61,1.361,1.361S268.92,470.286,268.17,470.286z"/>
			</g>
			<path id="XMLID_336_" style="fill:#F9FBFC;" d="M281.595,466.547c-0.295-0.116-0.805-0.309-1.382-0.237
				c-0.551,0.069-0.844,0.341-0.844,1.007v0.866h2.228v1.717h-2.228v5.455h-1.932v-5.455h-1.34v-1.717h1.34v-0.888
				c0-1.68,0.896-2.783,2.568-2.783c0.643,0,1.157,0.122,1.59,0.308L281.595,466.547z"/>
			<path id="XMLID_334_" style="fill:#F9FBFC;" d="M286.298,469.879c-0.177-0.03-0.358-0.046-0.526-0.046
				c-0.896,0-1.51,0.548-1.51,1.614v3.908h-1.932v-7.172h1.873v0.785c0.451-0.673,1.14-0.977,2.021-0.977
				c0.414,0,0.848,0.128,1.094,0.337L286.298,469.879z"/>
			<path id="XMLID_331_" style="fill:#F9FBFC;" d="M293.965,471.757c0,0.222-0.015,0.489-0.037,0.651h-5.085
				c0.207,1.036,0.933,1.488,1.843,1.488c0.622,0,1.295-0.252,1.813-0.688l1.132,1.243c-0.814,0.748-1.85,1.088-3.057,1.088
				c-2.198,0-3.723-1.495-3.723-3.753c0-2.258,1.48-3.797,3.627-3.797C292.544,467.99,293.958,469.522,293.965,471.757z
				 M288.851,471.091h3.175c-0.177-0.918-0.733-1.436-1.562-1.436C289.554,469.655,289.021,470.203,288.851,471.091z"/>
			<path id="XMLID_328_" style="fill:#F9FBFC;" d="M301.618,471.757c0,0.222-0.015,0.489-0.037,0.651h-5.085
				c0.207,1.036,0.933,1.488,1.843,1.488c0.622,0,1.295-0.252,1.813-0.688l1.132,1.243c-0.814,0.748-1.85,1.088-3.057,1.088
				c-2.198,0-3.723-1.495-3.723-3.753c0-2.258,1.48-3.797,3.627-3.797C300.197,467.99,301.611,469.522,301.618,471.757z
				 M296.504,471.091h3.175c-0.178-0.918-0.733-1.436-1.562-1.436C297.207,469.655,296.674,470.203,296.504,471.091z"/>
			<path id="XMLID_325_" style="fill:#F9FBFC;" d="M309.964,471.764c0,2.154-1.495,3.775-3.471,3.775
				c-0.962,0-1.643-0.378-2.109-0.933v3.708h-1.924v-10.133h1.887v0.792c0.466-0.585,1.155-0.984,2.139-0.984
				C308.469,467.99,309.964,469.61,309.964,471.764z M304.287,471.764c0,1.132,0.747,1.976,1.843,1.976
				c1.14,0,1.85-0.881,1.85-1.976c0-1.095-0.71-1.976-1.85-1.976C305.035,469.788,304.287,470.632,304.287,471.764z"/>
			<path id="XMLID_322_" style="fill:#F9FBFC;" d="M313.068,465.836c0,0.696-0.54,1.229-1.236,1.229
				c-0.696,0-1.229-0.533-1.229-1.229c0-0.696,0.533-1.243,1.229-1.243C312.527,464.592,313.068,465.14,313.068,465.836z
				 M312.809,475.354h-1.932v-7.172h1.932V475.354z"/>
			<path id="XMLID_320_" style="fill:#F9FBFC;" d="M316.032,470.736l2.701-2.554h2.368l-3.479,3.375l3.501,3.797h-2.376
				l-2.716-2.901v2.901H314.1v-10.658h1.932V470.736z"/>
		</g>
		<g>
			<path style="fill:#F9FBFC;" d="M184.412,475.289v-1.055c-0.527,0.718-1.391,1.23-2.387,1.23c-1.846,0-3.149-1.406-3.149-3.706
				c0-2.256,1.289-3.721,3.149-3.721c0.952,0,1.816,0.469,2.387,1.245v-3.765h1.099v9.77H184.412z M184.412,473.37v-3.208
				c-0.395-0.615-1.245-1.143-2.124-1.143c-1.421,0-2.27,1.172-2.27,2.739c0,1.567,0.85,2.724,2.27,2.724
				C183.168,474.483,184.017,473.986,184.412,473.37z"/>
			<path style="fill:#F9FBFC;" d="M186.932,471.744c0-2.051,1.465-3.706,3.486-3.706c2.139,0,3.398,1.67,3.398,3.794v0.279h-5.727
				c0.088,1.333,1.025,2.446,2.549,2.446c0.805,0,1.626-0.322,2.182-0.894l0.527,0.718c-0.703,0.703-1.655,1.084-2.812,1.084
				C188.44,475.465,186.932,473.956,186.932,471.744z M190.403,468.947c-1.509,0-2.256,1.274-2.314,2.358h4.643
				C192.718,470.25,192.015,468.947,190.403,468.947z"/>
			<path style="fill:#F9FBFC;" d="M194.607,474.351l0.571-0.791c0.469,0.542,1.362,1.011,2.329,1.011c1.084,0,1.67-0.513,1.67-1.216
				c0-1.714-4.38-0.659-4.38-3.281c0-1.098,0.952-2.036,2.636-2.036c1.201,0,2.051,0.454,2.622,1.026l-0.513,0.762
				c-0.424-0.513-1.201-0.894-2.109-0.894c-0.967,0-1.567,0.483-1.567,1.113c0,1.552,4.38,0.527,4.38,3.281
				c0,1.187-0.952,2.138-2.783,2.138C196.306,475.465,195.325,475.113,194.607,474.351z"/>
			<path style="fill:#F9FBFC;" d="M201.477,466.471c0-0.41,0.337-0.747,0.732-0.747c0.41,0,0.747,0.337,0.747,0.747
				c0,0.41-0.337,0.732-0.747,0.732C201.814,467.203,201.477,466.881,201.477,466.471z M201.667,475.289v-7.075h1.099v7.075H201.667
				z"/>
			<path style="fill:#F9FBFC;" d="M204.582,477.105l0.556-0.82c0.586,0.703,1.289,0.967,2.3,0.967c1.172,0,2.27-0.571,2.27-2.124
				v-1.011c-0.513,0.718-1.377,1.26-2.373,1.26c-1.845,0-3.149-1.377-3.149-3.662c0-2.27,1.289-3.677,3.149-3.677
				c0.952,0,1.802,0.469,2.373,1.245v-1.069h1.098v6.87c0,2.344-1.641,3.076-3.369,3.076
				C206.237,478.16,205.417,477.926,204.582,477.105z M209.709,473.253v-3.091c-0.381-0.615-1.23-1.143-2.109-1.143
				c-1.421,0-2.27,1.128-2.27,2.695c0,1.553,0.849,2.695,2.27,2.695C208.478,474.41,209.328,473.868,209.709,473.253z"/>
			<path style="fill:#F9FBFC;" d="M217.413,475.289v-4.629c0-1.245-0.63-1.641-1.582-1.641c-0.865,0-1.685,0.527-2.095,1.099v5.17
				h-1.099v-7.075h1.099v1.025c0.498-0.586,1.465-1.201,2.519-1.201c1.48,0,2.256,0.747,2.256,2.285v4.966H217.413z"/>
			<path style="fill:#F9FBFC;" d="M219.932,471.744c0-2.051,1.465-3.706,3.486-3.706c2.139,0,3.398,1.67,3.398,3.794v0.279h-5.727
				c0.088,1.333,1.025,2.446,2.549,2.446c0.806,0,1.626-0.322,2.183-0.894l0.527,0.718c-0.703,0.703-1.655,1.084-2.812,1.084
				C221.441,475.465,219.932,473.956,219.932,471.744z M223.404,468.947c-1.509,0-2.256,1.274-2.314,2.358h4.643
				C225.718,470.25,225.015,468.947,223.404,468.947z"/>
			<path style="fill:#F9FBFC;" d="M233.35,475.289v-1.055c-0.527,0.718-1.392,1.23-2.388,1.23c-1.846,0-3.149-1.406-3.149-3.706
				c0-2.256,1.289-3.721,3.149-3.721c0.952,0,1.817,0.469,2.388,1.245v-3.765h1.098v9.77H233.35z M233.35,473.37v-3.208
				c-0.396-0.615-1.245-1.143-2.124-1.143c-1.421,0-2.27,1.172-2.27,2.739c0,1.567,0.849,2.724,2.27,2.724
				C232.105,474.483,232.954,473.986,233.35,473.37z"/>
			<path style="fill:#F9FBFC;" d="M239.692,475.289v-9.77h1.098v3.765c0.572-0.776,1.421-1.245,2.388-1.245
				c1.845,0,3.149,1.465,3.149,3.721c0,2.299-1.304,3.706-3.149,3.706c-0.996,0-1.86-0.513-2.388-1.23v1.055H239.692z
				 M242.9,474.483c1.436,0,2.285-1.157,2.285-2.724c0-1.568-0.85-2.739-2.285-2.739c-0.864,0-1.728,0.527-2.109,1.143v3.208
				C241.171,473.986,242.036,474.483,242.9,474.483z"/>
			<path style="fill:#F9FBFC;" d="M247.528,477.061c0.161,0.073,0.425,0.117,0.601,0.117c0.483,0,0.805-0.161,1.055-0.747
				l0.469-1.069l-2.959-7.148h1.187l2.358,5.8l2.344-5.8h1.201l-3.545,8.51c-0.425,1.025-1.143,1.421-2.08,1.435
				c-0.234,0-0.601-0.044-0.806-0.103L247.528,477.061z"/>
		</g>
	</g>
</g>
</svg>
